<svg xmlns="http://www.w3.org/2000/svg" fill="none" viewBox="0 0 310 193"><path fill="#d5d4c8" d="M103.609 12.47h103.059v148.75H103.609z"/><path fill="#e5e3d5" d="M.559 25.653h103.059v122.385H.558z"/><path fill="#bdbcb0" d="M206.668.349h103.059v172.994H206.668z"/><path fill="#1e1e1e" d="M42.846 182.422h3.06l2.08 7.1 2.04-7.1h2.88l-3.58 9.92h-2.78zm10.196.76v-1.72h.4c.86 0 1.68-.2 2.24-.58.56-.36.8-.82.96-1.88h2.1v13.34h-2.64v-9.16zm98.74-.76h3.06l2.08 7.1 2.04-7.1h2.88l-3.58 9.92h-2.78zm19.236 9.92h-9.04c.02-1.34.2-2 .68-2.86.52-.88 1.14-1.52 2.6-2.56 2.38-1.7 3.12-2.62 3.12-3.84 0-1.24-.66-2.02-1.68-2.02-.64 0-1.24.26-1.56.66-.28.36-.4.88-.44 1.9h-2.5v-.44c0-2.66 1.72-4.32 4.46-4.32 2.64 0 4.4 1.66 4.4 4.14 0 2-1.18 3.56-4.08 5.4-.72.46-1.26.88-1.52 1.2-.08.08-.2.28-.36.56h5.92zm83.934-9.92h3.06l2.08 7.1 2.04-7.1h2.88l-3.58 9.92h-2.78zm12.716.76h-2.4c.06-1.42.28-2.12.92-2.84.82-.96 2.04-1.44 3.54-1.44 2.42 0 4.04 1.42 4.04 3.54 0 1.38-.7 2.48-1.74 2.76 1.34.28 2.16 1.48 2.16 3.1 0 2.48-1.88 4.26-4.52 4.26-1.98 0-3.36-.64-4.12-1.92-.3-.5-.46-1.18-.46-1.96v-.46h2.46c.06.84.2 1.28.5 1.62.32.38.9.62 1.48.62 1.16 0 1.92-.82 1.92-2.06 0-1.3-.76-2-2.16-2-.24 0-.48 0-.78.02v-1.86c.24.02.46.02.62.02 1.36 0 2.08-.68 2.08-1.9 0-1.02-.68-1.7-1.68-1.7-.6 0-1.16.28-1.48.74-.22.36-.32.72-.38 1.46"/><path stroke="#000" stroke-width="2" d="M37.816 98.392c74.87 47.253 186.995 19.632 223.427-50.526"/><circle cx="261.397" cy="47.866" r="7.106" fill="#000" transform="rotate(-12.743 261.397 47.866)"/></svg>