<svg width="747" height="109" fill="none" xmlns="http://www.w3.org/2000/svg"><path d="M89.5861 34.72c0 3.4291-.2858 7.144-1.0002 11.1447l-3.0004 17.0027c-5.8581 33.4341-23.5753 45.8646-50.4369 45.8646C15.574 108.732 0 97.1588 0 73.7264c0-3.4292.285762-7.0012 1.00016-10.859l3.0005-17.0027C10.2874 10.4303 30.5764 0 54.4375 0c19.146 0 35.1486 10.4303 35.1486 34.72Zm-24.5754 1.7145c0-10.716-4.858-15.0024-14.431-15.0024-12.0019 0-18.7173 6.5725-21.8607 24.4326l-3.0005 17.0027c-.7144 3.8578-1.0002 7.1441-1.0002 10.0017 0 10.716 4.858 14.4309 14.2881 14.4309 12.002 0 19.0031-7.2869 22.0036-24.4326l3.0005-17.0027c.5715-3.5721 1.0002-6.7154 1.0002-9.4302ZM191.066 29.0048c0 1.7145-.143 3.572-.286 5.4294l-.143 1.2859c-3 27.0045-24.004 34.5771-48.722 34.5771-3.429 0-8.001-.2857-11.573-.4286l-6.001 34.7204c-.286 1.571-1.858 2.857-3.429 2.857H102.48c-1.429 0-2.429-.857-2.429-2.286v-.429l17.003-96.01529c.857-4.85793 3-6.14386 7.572-6.85826C132.056.714402 143.772 0 154.06 0c21.718 0 37.006 8.57283 37.006 29.0048Zm-24.433 2.7147c0-8.1442-5-11.4305-15.859-11.4305-2.001 0-10.002.2858-11.717.4287l-5.143 29.1476c1.571.1429 10.001.2858 11.573.2858 12.716 0 19.718-4.5722 20.861-14.431l.142-1.2859c.143-1.0002.143-1.8574.143-2.7147ZM338.854 2.71473c0 .57152-.429 1.28592-1.144 2.14321L293.56 53.1516l25.147 51.2944c.286.428.286.857.286 1.286 0 1-.857 1.714-2.286 1.714h-23.004c-1.714 0-2.286-.857-2.857-2l-20.575-47.1507-8.144 46.2937c-.286 1.571-1.858 2.857-3.429 2.857H239.98c-1.429 0-2.286-1-2.286-2.286v-.571L255.411 4.00065c.286-1.57168 1.715-2.71472 3.287-2.71472h18.717c1.429 0 2.429.85728 2.429 2.28608v.42864l-7.716 43.29285 37.721-44.293c1-1.14305 1.857-1.71457 3.429-1.71457h23.432c1.429 0 2.144.57152 2.144 1.4288ZM421.543 104.589c0 1.714-1.286 2.857-2.857 2.857h-19.575c-1.429 0-2.429-1.143-2.429-2.572l-1-23.4321h-29.291l-9.287 23.4321c-.571 1.429-1.857 2.572-3.286 2.572h-20.432c-1.286 0-2-.714-2-1.714 0-.429.143-.858.286-1.286l36.863-88.5863C374.25 2.14321 385.252 0 395.111 0c9.858 0 19.86 2.14321 20.717 15.8597l5.715 88.5863v.143Zm-26.432-42.7217-1.715-39.4351c0-1.4288-.143-2.1432-1.429-2.1432s-1.857.7144-2.429 2.1432l-15.717 39.4351h21.29ZM480.831 3.42913v.57152L463.114 104.589c-.286 1.571-1.715 2.857-3.286 2.857h-19.146c-1.286 0-2.001-1-2.001-2.143v-.714L456.398 4.00065c.286-1.57168 1.429-2.71472 3.001-2.71472h19.146c1.429 0 2.286.85728 2.286 2.1432ZM550.778 90.1576v.4287l-2.429 13.2877c-.286 1.858-1.143 2.572-3.286 3.001-4.858 1-16.146 1.857-23.719 1.857-15.716 0-30.147-5.572-30.147-23.5752 0-2.1432.285-4.5722.714-7.144l13.002-73.86927c.286-1.57168 1.858-2.8576 3.429-2.8576h18.718c1.428 0 2.286 1.00016 2.286 2.28608v.57152L516.344 78.0128c-.286 1.4288-.429 2.7147-.429 3.7149 0 4.5722 2.429 6.0009 7.858 6.0009h24.576c1.429 0 2.429 1.0002 2.429 2.429ZM660.564 3.57201v.42864L649.276 67.5825c-6.43 35.8635-25.861 41.1495-48.579 41.1495-20.004 0-34.72-9.2871-34.72-31.005 0-3.1434.143-6.4296.857-10.1445l11.287-63.58185c.286-1.57168 1.715-2.71472 3.287-2.71472h18.717c1.429 0 2.429 1.00016 2.429 2.28608v.42864L591.266 67.5825c-.571 3.1434-.857 6.001-.857 8.43 0 8.5728 4.001 12.2877 14.002 12.2877 12.86 0 17.861-6.1439 20.432-20.7177l11.288-63.58185c.286-1.57168 1.715-2.71472 3.286-2.71472h18.575c1.429 0 2.572.85728 2.572 2.28608ZM746.636 104.589c0 1.714-1.286 2.857-2.858 2.857h-19.575c-1.428 0-2.428-1.143-2.428-2.572l-1.001-23.4321h-29.29l-9.287 23.4321c-.572 1.429-1.858 2.572-3.287 2.572h-20.432c-1.286 0-2-.714-2-1.714 0-.429.143-.858.286-1.286l36.863-88.5863C699.342 2.14321 710.344 0 720.203 0c9.859 0 19.86 2.14321 20.718 15.8597l5.715 88.5863v.143Zm-26.433-42.7217-1.715-39.4351c0-1.4288-.143-2.1432-1.428-2.1432-1.286 0-1.858.7144-2.43 2.1432l-15.716 39.4351h21.289Z" fill="#000"/></svg>
