<svg xmlns="http://www.w3.org/2000/svg" xml:space="preserve" id="Layer_1" x="0" y="0" version="1.1" viewBox="0 0 791.2 791.2"><style>.st2{fill:#fd3a01}.st3{fill:#0f172a}.st4{fill:#0f172a}.st6{fill:#fdb200}.st8{fill:#fcfcfc}.st9{fill:#fcb201}.st10{fill:#00abdd}.st11{fill:#fcb001}.st12{fill:#f93b02}.st13{fill:#01abdb}.st14{fill:#f7af02}.st15{fill:#0f172a}</style><path fill="transparent" d="M0 0h791.2v791.2H0z"/><path fill="#0f172a" d="M160.1 53c26.4-17.4 55.4-26.4 87-27 30.3-.6 58.4 7.2 85.1 21.6 26.3 14.2 52.5 12.6 77-4.8 32.4-23 68.1-37.5 107.6-41.5C578.5-5 634 11.3 682.2 50.5c43.8 35.6 70.8 81.7 80.3 137.4 7 40.9 2.2 80.8-12.8 119.5-11.4 29.3-9.7 58.1 5.4 85.7 17.5 31.9 26.2 66 25.3 102.3-1.4 53.3-20.7 99.4-58.1 137.6-30.6 31.3-67.9 50.5-111.1 57.8-19.4 3.3-38.8 3.3-58.3 1.1-37.5-4.2-72.1 4.1-103.7 24.7-37.5 24.5-78.5 39.5-123 44.2-117.9 12.7-226.3-46.7-278.8-148.2-19.3-37.3-29.3-76.9-30.7-118.8-2.2-67.5 17.4-128 58.4-181.6 9.7-12.6 15.7-26.8 18.4-42.4 8.1.9 16.1 1.3 24.2.3 2.3-.3 4 .3 4.8 2.6.8 2.2 2.3 2.8 4.5 2.4 6.8-1.2 13.5-2.9 20-5.1 2-.6 3.1-1.7 2.7-3.9-.5-2.7 1-4 3.4-5 17.5-7.5 32.2-18.8 44.1-33.7 16.9-21.1 25.2-45.4 25.2-72.4 0-19.9-5-38.6-14.8-55.9-1-1.7-2.2-3.6-.9-5.3 2.7-3.6 1.1-6.4-1.2-9.2-1.3-1.7-2.7-3.3-3.9-5.1-1.3-1.9-2.9-2.6-5.2-2-2.5.6-4.6-.1-6.4-2-8.7-9.3-18.8-16.6-29.9-22.5zm94.2 619.5c.4 0 .9 0 1.4-.1 2.2-.3 4.1-1.1 3.9-3.7-.2-2.8-2.2-3.2-4.6-3.3-3.4-.1-6.7.3-9.8 1.5-5.3 2-7.4 6.9-5.5 12.2.8 2.1 2.1 4 3.6 5.7 3.8 4.4 8.6 7.4 13.3 10.7.2 1.4.3 2.8.5 4.2 2 16.8 15.1 31.5 32 35.7 17.2 4.3 35.4-2.3 45.3-16.4 2.4 0 4.7 0 7.1-.1 5.2-.3 10.4-.8 15-3.5 6.3-3.8 6.6-11.1.7-15.8-1.3-2.5-3.8-3.7-6.1-5.2-1.7-1.1-3.5-1-4.7.7-1.3 1.7-.8 3.3.7 4.8s2.9 3.1 4.3 4.7c1.3 1.6.8 2.5-1.2 2.8-3.2.5-6.3.8-9.6.5.2-1 .4-2.1.7-3.1 2-7.8 2-15.5-.3-23.2-5.4-18.6-22.1-31-41.4-31-19.6 0-35.9 12.5-41.6 31.7-2.8-.5-4.7-2.6-6.9-4.2-1.1-.8-2.8-1.8-2.5-3.2.3-1.3 2.2-1.5 3.6-1.7h.9c.7 0 1.1-.1 1.2-.7zm338.8-319c6.5-8.6 12.6-17.3 16.3-27.5 7.7-20.8-.2-37.8-16.9-48.3.5-7.3-1.2-14.6.8-21.9 1.6-5.9 1-12.1-.6-18-5.5-20.6-23-34.9-44.4-39.3-7.2-1.5-13.5.2-17.9 6.6-1 1.4-2.2 1.5-3.7 1.4-2.5-.2-4.9-.1-7.3 1.6 3.6 1.8 7 3.4 10.3 5.3 17.1 9.8 25.8 24.4 23.6 44.3-2.3 20.8-11.5 38.7-25.8 53.7-9.5 10-21.5 15.4-35.6 14-14.5-1.4-26.7-8.3-37.3-17.9-2.4-2.2-4.8-3.3-7.9-3-8.2-.8-16.1.9-23.9 3-13.7 3.8-27.3 5.1-41 .5-3.2-1.2-6.4-2.4-9.6-3.7-7.4-3.6-14.5-7.7-21.5-11.8-4.4-2.6-9.3-4.3-14.3-5.2-13.1-2.5-25.2-.6-34.9 9.4-7 7.2-7.3 18.6-.9 26 3.2 3.7 7.2 5 10.7 2.8 6.4-3.8 12-2.8 17.9 1.2 8.4 5.6 17.2 10.5 26.6 14.4 3.4 1.6 6.9 3.1 10.5 4.1 14.1 5.5 28.8 7.1 43.8 6.1 2.3-.2 3.5-1.1 4.6-3.2 2.2-4.2 4.9-8.2 7.3-12.2.5-.9 1.1-2.1 2.4-1.5 1.3.6.8 1.9.6 2.8-1 4.2-2.8 8-5.1 11.7-4.4 7.2-8.9 14.3-14 21.1-2.6 2.9-5.2 5.7-7.9 8.6-.8.6-1.7 1.3-2.5 1.9-3.9 3.3-7.9 4.3-13.2 2.8-13.2-3.7-26.8-5.5-40.5-6.3-2.6-.1-3.8.1-2.5 3.1 1.7 4.1 2.5 8.4 3.2 12.8.6 3.7-1.9 6.8-5.3 6.2-8.4-1.3-16.8-.8-25.2.2-4.2.5-5.5-.5-6.6-4.7-1.2-4.9-2.9-9.5-5-14.1-.7-1.5-1.5-2.2-3.3-1.9-4.5.9-9.2 1.2-13.6 2.5-3.5.4-7 1.1-10.3 2.4-9.9 1.7-19.2 5.3-28.6 8.4-2.8.9-3.8 2.4-3.9 5.3-.1 4.2-1.5 8.1-4.2 11.5-.7.8-1.5 1.8-2.7 1.1-1.1-.6-.6-1.6-.3-2.5 1.1-4.1 2-8.3 3.4-12.3 5.4-16-5.4-29.7-22.3-28.1-5.7 0-10.4 2.3-14.1 6.6-2.8 3.3-4.5 7.3-5.6 11.5-2.1 8.1-2 16.3-1.4 24.4.9 11 3.3 21.7 8.9 31.3 2.6 4.4 5.6 8.3 10.9 9.7 4.1 2 8.1 1.4 11.9-.8 2.2-1.3 4.4-2.9 6.4-4.5 7.7-6.3 16.2-11 25.6-14.4 7.8-2.9 15.7-5.1 23.6-7.7 3.6-.4 7.1-1.4 10.6-2.3.8-.1 1.7-.1 2.5-.3 25.9-4.8 51.6-4.4 77.2 1.8 3.6.9 7.2 2 11.1 3-.8-4-1.8-7.6-.8-11.3.2-.8.2-1.8 1.3-1.9 1.2-.1 1.6.8 1.8 1.8.5 1.8.8 3.7 1.5 5.5 1.4 4.1 1.4 8.6 4.1 12.4 6.9 9.7 15 18.1 26.2 23.1-18.2-1.6-35.8.7-53.3 6.1 3.7 3.8 6.9 7.7 9.7 11.8 2.4 3.7 1.3 7.2-2.8 8.4-7.8 2.3-15 6-21.8 10.4-3.5 2.3-5.6 1.9-8.3-1.4-3.1-3.8-6.5-7.3-10.2-10.5-1.2-1-2-1.3-3.4-.3-4.3 3.4-8.8 6.5-12.5 10.5-2.9 2.4-5.7 4.9-7.9 7.9-6.3 5.9-11.3 12.8-16.5 19.6-1.3 1.7-1.5 3.2-1 5.2 1 4.2 1.2 8.5-.2 12.7-.4 1.2-.4 2.9-2.2 2.7-1.5-.2-1.2-1.8-1.4-2.9-.1-1.2-.1-2.4-.2-3.6-.4-4.6-.1-9.3-1.4-13.8-2.4-8.5-7.7-13.3-16-13.9-4.7-.3-9.2.5-13.4 2.6-7.3 1.8-11.6 6.8-13.4 13.8-1.9 7.3-1.1 14.6.6 21.8 3.5 14.6 9.3 28.2 20 39.1 3.5 3.6 7.6 6.5 13 6.4 6.6.8 12-2.1 16.9-6 5-4 9-8.8 12.5-14.1 9.6-14.3 20.7-27.2 33.5-38.6 2.8-2.1 5.5-4.3 8.3-6.4 11.4-7.8 23.3-14.6 36.5-19 12.4-4.2 25.2-7.4 38.4-6.3 8.1.6 16.1 1 24.1-.6 7 8.4 15.3 15.3 25.4 19.8 12.5 5.5 24.7 5.4 36.1-3-.3 3.7.6 6.8 3.7 9.1 11.3 8.5 29 6.9 38.3-3.6 4.9-5.5 9.3-11.5 13.3-17.7 8.5-13.3 15.2-27.5 20.4-42.3 5.6-15.9 9-32.3 8.2-49.3 3.4-4.9 6.1-10.2 8.5-15.6 3.1-7.2 4.8-14.6 3.5-22.6-1.2-6.6-4.6-12.2-8.2-17.7zM548.9 254c-.3-18.5-8.6-31.8-29.1-37.8-9.6-2.8-17.9-1.1-24.9 6-5.5 5.5-9.9 11.9-13.3 18.9-2.4 4.8-2.1 9.5 1.5 13.7 1.8 2.1 1.9 4.3.9 6.6-.7 1.6-1.5 3.2-2.5 4.7-1.6 2.3-1.4 4.1.7 5.9 2.3 2 3.8 1.2 5.1-1.2.5-.9 1.4-2.1 2.5-1.6 1.4.7.3 2 .2 3.1-.1 1.2-2 2.3-.6 3.4 1.4 1.2 3.2 2.2 5 2.7 1.5.4 1.6-1.7 2.6-2.5.1-.1.1-.2.2-.3.8-.6 1.4-2 2.6-1.3.9.6.3 1.7 0 2.6-.4 1.2-1.5 3.2-1.2 3.5 1.7 1.4 3.6 2.6 5.7 3.5 1.4.6 1.4-1.2 2.2-1.9 1-.9 1.7-3 3.3-2.1 1.5.9-.1 2.5-.3 3.8-.1 1-1.8 2-.1 3 1.5.9 3 2.1 4.7 2.4 1.6.3 1.7-2 2.8-2.8.3-.2.5-.5.8-.8.5-.5 1.1-1.2 1.8-.7s.4 1.3.2 2c-.3 1-.7 2-1.1 3-.3.6-.7 1.2-.1 1.9 3.3 4 8.2 3.8 11.2-.4 2.5-3.5 4.8-7.2 9.8-7.5 1.1-.1 1.3-.9 1.6-1.7 4.5-8.8 7.5-18.5 7.8-28.1zM686 196.6c3.4-5.7 6.5-10.6 9.4-15.7 5.6-9.7 10.8-19.6 15-29.9.5-1.1 1.7-2.6.4-3.6-1.2-.9-2.4.6-3.4 1.2-4.4 2.9-8.7 5.8-12.9 8.9-4.8 3.6-9.5 7.3-14.6 11.2-.6-2.5.6-4.3.7-6.3 0-1 1-2.2 0-3-1.2-1-2.2.1-3.2.7-12.3 7.5-22.1 17.6-30.2 29.4-5.9 8.6-10.4 17.9-12.1 28.3-1.6 10 6.3 18.3 16.4 17.6 22.5-1.7 40.6-22.8 45.5-38.5.8-2.5-.1-3-2.4-2.4-2.5.7-5.2 1.3-8.6 2.1zM505.2 314.4c8.8.1 12.9-1.9 15.8-6.9 1.3-2.3 1.8-4.5-.9-6.1-3.4-2.1-5.6-1.6-7.2 1.4-.5.9-.8 2.7-2.3 2.1-1.4-.5-.9-2.1-.6-3.2.4-1.9.8-3.6-1.9-3.8-2-.2-4.5-2.6-5.6 1.4-.3 1.2-.8 3-2.3 2.7-1.6-.4-1.1-2.3-.8-3.3 1.3-4-2.1-3.3-4-4.2-2.1-1-3.5-.5-4.1 2-.3 1.1-.9 3-2.4 2.6-1.6-.4-.5-2.2-.7-3.4 0-.2 0-.5.1-.7 1.1-2.6-.8-2.7-2.4-2.9-1.7-.2-3.7-2.5-4.8.8-.5 1.4-.9 3.9-2.9 3.3-1.5-.5-.5-2.7-.4-4.2.1-.7.9-1.6-.3-2.2-.8-.4-1.7-.2-2.4.2-1.6.7-2 2.2-2.2 3.8-.6 6 2.2 10.8 8.4 14 7.8 4.2 16.5 5.9 23.9 6.6zm-63-31.3c-.3 5.3 1.4 11.5 4.9 17.3.6 1 1.3 2.4 2.7 1.5 1.1-.7.3-1.9-.2-2.9-4.1-8-4.5-16.4-2.4-25 5.2-20.8 15.1-39.3 29.1-55.4 7.2-8.3 16.3-13.4 27.9-12.6 3.4.2 6.6 1 9.8 1.8.9.2 2 .7 2.4-.5.6-1.5-.7-1.7-1.7-2.2-.3-.2-.7-.2-1-.4-14.1-5.2-26.7-2.5-37.8 7.4-11.4 10.2-18.8 23.3-25.2 36.9-4.6 10.5-8.5 21.1-8.5 34.1zm-71.8 193.1c-.1-.3-.1-.7-.3-1-3.8-5.5-7.7-10.9-13.5-14.6-1-.6-2-.6-3.1-.3-8.5 2.5-16.3 6.4-23.5 11.5-1.9 1.3-1.7 2.5 0 3.9 4.6 3.6 8.8 7.7 12.3 12.3 1.2 1.5 2.3 1.8 3.9.7 6.9-4.6 14.3-8.4 22.4-10.7.9-.2 1.6-.7 1.8-1.8zm-50.6-103.9c-5.1.3-10 .6-14.8 1.4-2.6.4-3.5 1.5-2.2 4.1 2.6 5 4.6 10.2 5.8 15.7.5 2.2 1.4 2.9 3.7 2.5 7.9-1.2 15.8-1.6 23.8-.4 2.9.5 3.7-.8 3.1-3.4-.9-3.9-1.8-7.8-3.1-11.7-1.6-5.1-4.3-8.3-10.2-7.8-2.1.2-4.3-.3-6.1-.4zm43 268.1c-6.5 0-11.4 5-11.4 11.6s5 11.5 11.5 11.6c6.2 0 11.6-5.4 11.5-11.7 0-6.5-5.1-11.5-11.6-11.5zM255.1 206.7c.1-4.5-3.3-7.9-7.7-8-4.4-.1-8 3.4-8 7.8s3.4 7.9 7.8 8c4.4.1 7.9-3.3 7.9-7.8zM663.7 599c4.4 0 8-3.5 8-7.8 0-4.2-3.7-8-7.9-8-4.3 0-8 3.6-8 7.9 0 4.3 3.5 7.9 7.9 7.9zm-480.8 51.8c0-4.5-3.4-7.9-7.8-7.9s-7.9 3.6-7.9 7.9c0 4.3 3.6 7.9 7.9 7.9 4.4-.1 7.8-3.5 7.8-7.9zm445.7-520.9c4.5 0 7.9-3.3 8-7.8 0-4.3-3.5-8-7.8-8s-8 3.5-8 7.8c-.1 4.6 3.3 8 7.8 8zm-193.4-15.5c0-4.5-3.3-8-7.7-8.1-4.2-.1-8 3.6-8.1 7.8-.1 4.4 3.3 7.9 7.8 7.9 4.7.1 8-3 8-7.6zM260.3 53.7c0 2.5 2.2 4.7 4.6 4.4 2.5-.3 4.1-1.8 4.2-4.4.1-2.5-2-4.5-4.6-4.4-2.5.2-3.9 1.8-4.2 4.4zm436.9 84c-.3.1-.5.1-.7.2-4.2 2.6-7.3 6.1-8.8 10.8-.6 1.9 1.1 2.4 2.4 1.5 3.8-2.6 6.8-5.9 8.4-10.3.5-1.2.1-2-1.3-2.2zm-117-88.4c-2.8.1-4.7 2.2-4.5 4.7.3 2.6 2 4 4.5 4.1 2.4.1 4.6-2.4 4.3-4.7-.3-2.6-1.9-4-4.3-4.1zM617 555.9c2.2-.3 3.8-1.8 3.9-4.3.2-2.4-2.1-4.6-4.6-4.5-2.6.2-4.1 1.7-4.3 4.3.1 2.5 2.2 4.5 5 4.5zm-553.5-15c-2.4.1-4.3 2-4.3 4.3 0 2.5 2.1 4.5 4.6 4.4 2.7-.1 4.1-1.7 4.2-4.3.1-2.6-2-4.5-4.5-4.4zm86 82.9c-3.1-.1-5.4 1.8-5.2 4.3.2 2.5 1.5 4.2 4.2 4.4 2.6.2 4.6-1.8 4.5-4.3 0-2.7-1.3-4.2-3.5-4.4zm498 .1c2.9 0 5.2-2.1 4.9-4.5-.3-2.5-1.7-4.1-4.4-4.2-2.6-.1-4.6 1.9-4.4 4.5.2 2.6 1.7 4 3.9 4.2zM112.8 423.5c0-2.7-1.9-4.6-4.5-4.4-2.6.3-4.1 1.8-4.2 4.4-.1 2.5 2.2 4.6 4.6 4.4 2.6-.3 4.1-1.7 4.1-4.4zm615 55.2c-2.5.1-4.5 2.1-4.2 4.7.3 2.6 1.8 4.1 4.5 4 2.7-.1 4.1-1.8 4.3-4.3.1-2.5-2.1-4.5-4.6-4.4zM397.2 144.8c-2.5 0-4.4 2-4.3 4.6.1 2.7 1.6 4.1 4.3 4.1 2.7 0 4.1-1.6 4.4-4.1.2-2.4-2-4.6-4.4-4.6zM440 619.6c2.1-.3 3.7-1.6 3.8-4.3.1-2.6-1.8-4.5-4.4-4.4-2.7.1-4.1 1.6-4.3 4.2-.1 2.6 1.9 4.6 4.9 4.5zM705.8 187c2.8 0 8.1-6.5 7.5-8.8-.4-1.7-1.7-1.5-2.8-.8-2.9 1.6-4.9 4.1-5.9 7.2-.4 1.4-.2 2.3 1.2 2.4zm15.2-26.9c0-1.4-.5-2.3-2-2.4-1.8-.1-2.9.8-3.2 2.6-.2 1.5.5 2.5 2.1 2.5 1.9 0 2.8-1.1 3.1-2.7zm-3.9-31.9c0-1.3-.5-2.5-1.9-2.5-1.6 0-3 .8-3.1 2.7-.1 1.5.6 2.6 2.1 2.6 1.8.1 2.8-1.1 2.9-2.8zm-39.6 19.1c-1.7.3-2.9 1.1-2.8 3 0 1.4.6 2.3 2 2.3 1.8 0 2.9-1 3-2.8.1-1.5-.7-2.3-2.2-2.5z"/><path d="M160.1 53c11.1 5.9 21.2 13.2 29.9 22.3 1.8 1.9 3.9 2.7 6.4 2 2.3-.6 3.9.1 5.2 2 1.2 1.8 2.6 3.4 3.9 5.1 2.3 2.8 4 5.6 1.2 9.2-1.3 1.7 0 3.6.9 5.3 9.8 17.4 14.8 36.1 14.8 55.9 0 27-8.3 51.2-25.2 72.4-11.9 14.9-26.6 26.2-44.1 33.7-2.4 1-3.8 2.2-3.4 5 .4 2.2-.7 3.3-2.7 3.9-6.6 2.1-13.2 3.9-20 5.1-2.2.4-3.7-.3-4.5-2.4-.8-2.3-2.5-2.9-4.8-2.6-8.1 1-16.2.6-24.2-.3 2.9-16.5-.8-32.3-3.8-48.4-10.1-54.6 3.8-102.7 41.1-144 7.5-8.3 16.1-15.5 25.3-22 1.3-.7 2.4-1.8 4-2.2zm-7.3 190.5c3.4 1.9 7 1.3 10.9-2.1 4-3.4 5-6.5 3.4-10.8 1.5.1 3.1.3 2.2-2.1-.6-1.6-1.4-3.2-2.2-4.8-.3-.5-.7-1-1.4-.9-.9.2-.8 1-.9 1.7-.4 2.5 1.4 4.1 2.3 6.1-8.9-.2-14.9 5.3-14.3 12.9-1.6 0-2.2-1.8-3.7-2.1-1.3-.3-2.9-1.5-3.8.3-.6 1.3 1.1 1.8 2 2.5.7.5 1.4.9 2.1 1.3 2.3 1.5 3.5.9 3.4-2zm44-108.1c-.2-2.5-.4-5-1.6-7.2-1.9-3.4-5-3.7-7.4-.7-3.3 4-3.9 12.9-1.3 17.3 2 3.3 5.1 3.5 7.5.4 2.1-3 2.6-6.4 2.8-9.8zm-86.9 31.9c.1 1.9.7 4.7 2.6 6.9 2.6 3.2 6.2 2.7 8-.9 1.3-2.7 1.3-5.5.7-8.4-1-4.2-3.8-7.2-6.6-6.9-2.7.4-4.7 3.8-4.7 9.3zm17.9 104.9c5.8-.7 12.2-2.3 18.3-4.7.7-.3 1.8-.4 1.6-1.6-.3-1.2-1.3-.8-2.1-.7-6.5.9-12.8 2.5-19 4.8-.7.3-1.9.5-1.6 1.5.3 1.2 1.3.8 2.8.7zm76.4-97.9c-.1-1.3-.2-2.7-1.4-3.5-.9-.6-2-.4-3 .2-2.2 1.5-3.8 6.4-3 8.9.8 2.5 2.4 2.8 4.3 1.2 2.1-1.7 2.7-4.2 3.1-6.8zM123 232.9c2.8-.2 5.6-.9 7.3-3.8.6-1.1.3-2.1-.8-2.7-3-1.6-5.8-.7-8.4.8-1.3.8-2.8 1.8-2.4 3.6.5 1.9 2.3 2 4.3 2.1zm27.2-138c0 2.7 2.6 6.2 4.6 6.3 1.6 0 2-1 2-2.3.1-2.4-2.7-6.1-4.6-6.2-1.5 0-1.9 1.1-2 2.2zm55.1-5.1c-.1-1.7-4.6-8.7-6.3-9.7-.5-.3-1.1-.6-1.6-.2-.5.4-.4 1.1-.2 1.6 1.4 3.4 3.3 6.5 6 9.1.4.4.9.8 1.6.4.5-.2.7-.7.5-1.2zm-17.6 58.8c-1 .3-2.3.5-3.5 1-1.2.5-2.9 1.1-2.6 2.5.4 1.8 2.2.6 3.4.5 1.2-.1 2.4-.4 3.4-.8s2.9-.3 2.8-1.7c-.2-1.6-2-1.2-3.5-1.5zm1.8-24.6c1.1-.1 2.3.1 2.4-1.1.2-1.2-1-1.4-1.9-1.8-2.3-.9-4.4-2.4-7-1.9-.7.1-.5 1-.2 1.5 1.8 2.3 4.3 2.9 6.7 3.3z" class="st2"/><path d="M520.3 791.2c-13.6-.3-25.7-2.6-36.4-10-14.9-10.3-18.4-27.4-8.5-42.5 9-13.7 22.5-21.3 37.9-25.6 18.6-5.2 36.9-5.2 54.5 3.8 13.1 6.7 19.7 18.1 18.2 31.2-1.2 10.1-6.8 17.9-14.3 24.4-14.9 13-32.8 18.1-51.4 18.7zm2-28.8c0 4.4 3.4 8 7.8 8 4.3 0 7.9-3.5 8-7.9 0-4.4-3.4-7.8-7.9-7.9-4.6 0-7.9 3.3-7.9 7.8zm-13.6-30.1c-2.6.3-4.1 1.7-4.2 4.4-.1 2.6 1.9 4.5 4.5 4.4 2.6-.2 4.1-1.6 4.2-4.3 0-2.6-2-4.6-4.5-4.5zM72 265c-4.2 15.1-12.1 27.4-26.8 34-12.3 5.5-24.2.3-29-12.3-5.1-13.2-2.9-26.1 2.7-38.7 1.8-4.1 4-8.1 7-11.5C38.8 249.9 54.4 259.1 72 265zm557.9 468.8c12.9-.1 23.3 10.1 23.4 22.8.1 13.4-9.9 23.8-23 23.9-13.1.1-23.5-10-23.6-23-.1-13.3 10-23.6 23.2-23.7z" class="st3"/><path d="M72 265c-17.6-5.9-33.2-15.1-46.2-28.5 4.7-6.6 10.7-11.4 18.3-14.1 13.5-4.7 25.5 2.7 28.9 17.6-2.6 0-5.3-.4-7.7.8-1.7.9-3.3 1.8-3.5 4.1-.2 2.4 1.1 3.8 2.9 4.9 2.9 1.7 6.1 1.8 9.3 1.6.3 4.6-.3 9.2-2 13.6zM46.3 162c0 9.9-7.8 17.7-17.6 17.7-10 0-17.9-7.9-17.9-17.9 0-9.8 7.9-17.7 17.7-17.7 10 0 17.8 7.8 17.8 17.9z" class="st2"/><path d="M372.3 5.3c8.7.1 15.6 7.1 15.6 15.7 0 8.8-7.2 15.9-15.9 15.8-8.8-.1-15.7-7.2-15.5-16.2 0-8.6 7-15.4 15.8-15.3z" class="st3"/><path d="M74.1 251.4c-3.2.2-6.4.2-9.3-1.6-1.8-1.1-3.1-2.5-2.9-4.9.2-2.3 1.8-3.3 3.5-4.1 2.5-1.2 5.1-.8 7.7-.8 1.2 3.7 1.9 7.5 1 11.4z" class="st4"/><path fill="#fcae01" d="M589.1 409.4c.8 17-2.6 33.4-8.2 49.3-5.2 14.8-11.9 29.1-20.4 42.3-4 6.2-8.4 12.2-13.3 17.7-9.3 10.6-27 12.1-38.3 3.6-3.1-2.3-4.1-5.4-3.7-9.1.7-1.7 1.5-3.4 2.2-5.2.6-1 1.2-1.9 1.8-2.9 2-2.3 4.2-4.5 6.1-7 1.8-2.4 4.6-4.9 2.8-8.2-1.8-3.3-5.4-2.3-8.4-1.9-1.9.2-3.5.1-5-1.1-3.8-3-3-7.7 1.4-10.6 3.2-2 7-2 10.3-3.6 2.3.5 4.4-.6 6.7-.8 4.2-.7 8.7-.8 10.6-5.6.4-.9.8-1.8 1.3-2.7 2-3.3 3.5-6.9 4.7-10.6.8-.9 1.2-1.9 1.1-3 3.8-8.1 5.9-16.7 7.3-25.5 1.7-11.4 1.5-22.7-4-33.3 1.3-1.8.2-3.5-.5-5-2.3-5.4-6-9.6-11.6-11.8-.9-.3-1.9-.6-2.6.4-.6.8 0 1.3.4 1.9 4.4 4.9 8.9 9.8 13.3 14.8-1.1 6.7-3.4 13.1-6.1 19.3-3.9 9.1-9.4 17.3-14.7 25.6-.9 1.2-1.8 2.3-2.6 3.5-2.1 2.7-4.3 5.4-6.4 8-.3.3-.6.5-1 .8-14.4-4.7-27.9-11.5-40.8-19.3-14-8.4-26.9-18.2-38.9-29.3-2.1-1.9-1.9-3.2-.4-5.2 3.2-4.4 6.1-9 9.2-13.6 9.5-14.1 18.4-28.6 26.9-43.2 4-6.9 3.9-7 10.5-3.4 28.4 15 58.4 23.8 90.7 23.3.1 0 .3.1.4.1 6.5 8.1 11.5 17 14.8 26.9 2.6 7.9 3.8 16.1 4.4 24.4zm-102.3 3.5c1.2 0 1.7-.8 2.3-1.6 8.9-13.4 17-27.2 22.6-42.4 1-2.6.4-3.8-2.3-4.7-10.3-3.8-20-8.7-29.2-14.7-3.7-2.4-3.7-2.4-5.8 1.5-7.1 13.1-14.3 26.1-23.3 38-1.5 1.9-.9 3.1.8 4.4 9.9 7.7 20.5 14.2 32.3 18.7.9.3 1.8.5 2.6.8zm70.6-27.1c0 7 5.3 12.8 11.7 12.8 5.8 0 10.5-5.3 10.5-11.7-.1-7-5.4-12.7-11.8-12.7-6.1.1-10.5 4.9-10.4 11.6zm-9.1 128.1c-.1-1-.8-1.6-1.5-2-6-4.5-12.8-7.1-19.8-9.4-1.2-.4-2.4 0-3 1.2-2.7 5.7-6.9 10.5-10.5 15.6-.6.8-1.7 1.8-.4 2.7 1.1.9 2-.2 2.7-.9 3.8-3.1 7.2-6.6 9.9-10.7 1.5-2.4 2.9-2.5 5.2-1.5 4.9 2 10 3.8 14.9 5.7 1.1.6 2.2 1.1 2.5-.7zm.8-45.6c-.9.1-2.3-.4-2.7.9-.5 1.5 1 2 2 2.4 4.9 2.2 9.8 4.3 14.7 6.3 1 .4 2.3 1.5 3.2.2 1-1.5-.4-2.4-1.3-3.2-4.5-4-9.9-5.9-15.9-6.6zm2.9 9.6c-1 .1-2.6-.3-3 1.2-.5 1.8 1.1 2.5 2.3 3.2 2.2 1.3 4.5 2.3 7.1 1.3.8-.3.6-1.2.2-1.9-1.5-2.5-3.7-3.7-6.6-3.8z"/><path d="M283.6 381.3c4.4-1.4 9.1-1.6 13.6-2.5 1.8-.4 2.6.4 3.3 1.9 2.1 4.5 3.8 9.2 5 14.1 1.1 4.2 2.3 5.2 6.6 4.7 8.4-1.1 16.8-1.5 25.2-.2 3.5.5 6-2.6 5.3-6.2-.7-4.3-1.5-8.7-3.2-12.8-1.3-3-.1-3.2 2.5-3.1 13.7.8 27.3 2.6 40.5 6.3 5.2 1.5 9.3.5 13.2-2.8.8-.7 1.7-1.3 2.5-1.9 5.7 7.3 11.5 14.5 17.9 21.2 8.2 8.5 17 16.3 26.3 23.4 14.4 11 29.9 20.2 46.4 27.7 5 2.3 10.6 3.5 15.2 6.8-.1.3-.2.5-.3.8-1 .7-2 1.4-2.3 2.8-2.7 1.5-4.9 3.6-6.9 5.9-5.1-4.1-10.3-8-15.2-12.3-1.9-1.7-3-1.5-4.7.2-8.5 8.4-17.8 15.6-28.7 20.6-2.3 1.1-2.8 2-.8 4.1 3.8 4.1 8 7.8 12 11.6-4.1 2.5-8.9 3-13.2 4.9-8 1.7-15.9 1.3-24.1.6-13.2-1.1-25.9 2.2-38.4 6.3-13.2 4.4-25.1 11.2-36.5 19-7.2-13.9-17.9-24.5-31.3-32.4 3.8-4 8.2-7.2 12.5-10.5 1.3-1.1 2.2-.7 3.4.3 3.7 3.2 7.1 6.7 10.2 10.5 2.7 3.3 4.8 3.7 8.3 1.4 6.8-4.4 14-8.1 21.8-10.4 4.1-1.2 5.2-4.7 2.8-8.4-2.8-4.2-5.9-8-9.7-11.8 17.6-5.5 35.2-7.7 53.3-6.1-11.2-5-19.3-13.4-26.2-23.1-2.7-3.8-2.7-8.3-4.1-12.4-.6-1.8-1-3.7-1.5-5.5-.2-1-.6-1.9-1.8-1.8-1.1.1-1.1 1.1-1.3 1.9-1 3.7 0 7.3.8 11.3-3.9-1.1-7.5-2.1-11.1-3-25.6-6.2-51.4-6.6-77.2-1.8-.8.2-1.6.2-2.5.3 1.2-14-1.3-27.2-7.6-39.6z" class="st6"/><path fill="#fc8701" d="M503.9 457.8c-4.6-3.3-10.1-4.5-15.2-6.8-16.5-7.5-32-16.7-46.4-27.7-9.4-7.2-18.1-15-26.3-23.4-6.5-6.7-12.3-13.9-17.9-21.2 2.6-2.9 5.2-5.7 7.9-8.6 4.2 5.8 8.6 11.3 13.4 16.6 2.1 2.4 3.4 2.5 5.4-.3 13.3-18.4 25.7-37.3 37.1-56.9 2-3.4 1.4-4.7-1.4-7-5.7-4.9-11.6-10-13.7-17.8 3.1-.3 5.5.8 7.9 3 10.6 9.6 22.8 16.5 37.3 17.9 14.1 1.4 26.1-4 35.6-14 14.3-15 23.5-32.9 25.8-53.7 2.2-19.9-6.4-34.5-23.6-44.3-3.3-1.9-6.7-3.5-10.3-5.3 2.4-1.8 4.8-1.8 7.3-1.6 1.5.1 2.7.1 3.7-1.4 4.4-6.3 10.8-8 17.9-6.6 21.4 4.4 38.8 18.7 44.4 39.3 1.6 6 2.2 12.1.6 18-2 7.3-.3 14.6-.8 21.9-1.1 5.3-2.3 10.7-3.4 16-4.5 13.8-11.4 26.4-19.5 38.4-3.2 4.1-6.3 8.2-9.6 12.2-1.4 1.6-1.4 2.5.3 4 3.4 2.8 6.8 5.8 9.2 9.7-32.4.5-62.4-8.2-90.7-23.3-6.7-3.5-6.5-3.5-10.5 3.4-8.6 14.7-17.4 29.1-26.9 43.2-3.1 4.5-6 9.1-9.2 13.6-1.4 2-1.6 3.3.4 5.2 11.9 11.1 24.9 20.9 38.9 29.3 12.9 7.8 26.4 14.6 40.8 19.3-.5.8-.9 1.6-1.4 2.3-2.6 1.9-4.2 5-7.1 6.6zm61.4-146.7c0-6-3.9-10.4-9.4-10.4-6.5-.1-12 6.2-11.9 13.4.1 6 4.1 10.3 9.5 10.2 6.4 0 11.9-6.1 11.8-13.2zm25-55.7c-.2-.5-.4-1.2-.7-1.9-6.9-16.3-18.4-28.1-34.8-35-1.3-.5-3.1-2.1-4.1-.1-.8 1.7 1.4 2.1 2.5 2.8 13.8 8.4 24.8 19.5 33.3 33.2.4.7.9 1.4 1.4 2.1.4.5 1 .7 1.6.5.8-.2.8-.8.8-1.6zm-23.2 28.8c-3.4.1-6.2 3.6-6.1 7.5.1 3.1 2 5.1 4.7 5.1 3.5 0 6.4-3.3 6.3-7.3 0-3.3-2-5.4-4.9-5.3zm-27.4-70.1c3.3-.1 6.4-3.6 6.3-7-.1-2.9-2.5-5.2-5.2-5.1-3.3.1-6.1 3.2-6.1 6.7-.1 2.9 2.3 5.5 5 5.4z"/><path d="M446.6 304.6c2.1 7.8 8 12.9 13.7 17.8 2.8 2.4 3.4 3.6 1.4 7-11.4 19.6-23.8 38.6-37.1 56.9-2 2.8-3.3 2.7-5.4.3-4.7-5.3-9.2-10.9-13.4-16.6 5.1-6.8 9.6-13.9 14-21.1 2.3-3.7 4.2-7.5 5.1-11.7.2-1 .8-2.3-.6-2.8-1.3-.6-1.9.6-2.4 1.5-2.5 4.1-5.1 8.1-7.3 12.2-1.1 2-2.4 3-4.6 3.2-15 1.1-29.7-.6-43.8-6.1 9-10.8 13.5-23.5 15.5-37.2 13.7 4.6 27.3 3.3 41-.5 7.8-2.1 15.7-3.7 23.9-2.9z" class="st6"/><path d="M548.9 254c-.3 9.5-3.3 19.2-7.8 28.5-.4.7-.6 1.6-1.6 1.7-5 .3-7.3 4-9.8 7.5-3 4.2-7.9 4.4-11.2.4-.6-.8-.2-1.3.1-1.9.4-1 .8-2 1.1-3 .2-.7.4-1.5-.2-2-.7-.5-1.3.2-1.8.7-.3.2-.5.5-.8.8-1.1.8-1.2 3.1-2.8 2.8-1.7-.3-3.2-1.5-4.7-2.4-1.7-1 0-2 .1-3 .2-1.3 1.8-2.9.3-3.8-1.5-.9-2.2 1.2-3.3 2.1-.7.6-.8 2.5-2.2 1.9-2-.9-4-2.1-5.7-3.5-.4-.3.7-2.3 1.2-3.5.3-.9.9-2 0-2.6-1.2-.8-1.8.6-2.6 1.3-.1.1-.1.2-.2.3-1 .8-1.1 2.9-2.6 2.5-1.8-.5-3.5-1.5-5-2.7-1.4-1.1.5-2.3.6-3.4.1-1.1 1.2-2.4-.2-3.1-1.1-.5-2 .7-2.5 1.6-1.3 2.4-2.8 3.2-5.1 1.2-2.1-1.8-2.3-3.6-.7-5.9 1-1.4 1.8-3.1 2.5-4.7 1-2.3.9-4.5-.9-6.6-3.6-4.2-3.8-8.9-1.5-13.7 3.5-7 7.8-13.4 13.3-18.9 7-7.1 15.3-8.8 24.9-6 20.5 5.6 28.8 19 29.1 37.4zm-41.6-11.7c-.1-1.9-.9-3.3-2.5-4.1-1.7-.9-3.4-1-5 .3-2.6 2.3-4.2 5.1-4.8 8.5-.3 1.8.4 3.3 2 4.2 1.6 1 3.4 1.3 5 .1 3-2.4 4.4-5.6 5.3-9zm31.6 15.5c.1-2-.9-3.2-2.6-4-1.7-.8-3.5-.9-5 .5-2.4 2.2-4 5-4.6 8.2-.4 2 .5 3.5 2.2 4.5 1.5.9 3.2 1.2 4.7.1 3.1-2.3 4.7-5.5 5.3-9.3zm-36.4 6.3c.1 1.3.2 2.9 1.7 2.8 2.5-.2 2.1-2.5 2.3-4.1.1-1.3.1-3-1.8-2.8-2.4.2-1.5 2.7-2.2 4.1zm14.6 2.6c-.3-1.2-.9-2-2-1.6-1.9.7-3.9 1.5-4.3 3.8-.2 1 .6 2 1.8 1.7 2-.7 3.9-1.7 4.5-3.9z" class="st8"/><path d="M336.6 528.9c-12.8 11.4-23.9 24.3-33.5 38.6-3.5 5.2-7.5 10.1-12.5 14.1-4.9 3.9-10.3 6.8-16.9 6 3.4-2 3.9-5.5 4.2-8.9 1-11.9-1.2-23.4-4-34.8-2.7-10.6-5.9-21-11.8-30.3-2.1-3.2-4.4-6.2-8.6-7 4.2-2.1 8.8-2.9 13.4-2.6 8.3.6 13.6 5.4 16 13.9 1.3 4.5 1 9.2 1.4 13.8.1 1.2.1 2.4.2 3.6.1 1.1-.2 2.7 1.4 2.9 1.8.2 1.8-1.5 2.2-2.7 1.3-4.2 1.1-8.5.2-12.7-.5-2-.2-3.5 1-5.2 5.2-6.8 10.2-13.7 16.5-19.6 12.8 7.7 23.4 17.6 30.8 30.9zM214.6 367c16.9-1.6 27.7 12 22.3 28.1-1.4 4-2.3 8.2-3.4 12.3-.2.9-.8 1.9.3 2.5 1.2.6 2-.3 2.7-1.1 2.7-3.3 4.1-7.3 4.2-11.5.1-2.9 1.1-4.3 3.9-5.3 9.4-3.1 18.7-6.7 28.6-8.4 5.6 12.5 8.7 25.5 7.5 39.4-7.9 2.6-15.8 4.8-23.6 7.7-9.3 3.5-17.9 8.1-25.6 14.4-2 1.7-4.2 3.2-6.4 4.5-3.8 2.3-7.8 2.8-11.9.8 2.3-.4 3.8-1.9 4.9-3.8 1.4-2.5 2.4-5.1 3.1-7.9 3.6-14.2 4.2-28.6 3.2-43.1-.5-7.2-1.3-14.4-3.9-21.3-1-3-2.5-6-5.9-7.3zm141.1-25.8c-9.4-3.9-18.2-8.8-26.6-14.4-5.9-3.9-11.6-4.9-17.9-1.2-3.6 2.1-7.5.8-10.7-2.8-6.4-7.3-6.1-18.7.9-26 9.7-10 21.8-11.9 34.9-9.4 5 .9 9.9 2.6 14.3 5.2 7.1 4.1 14.2 8.2 21.5 11.8-.9 3.9-1.7 7.9-2.9 11.7-2.8 9.2-6.7 17.9-13.5 25.1zm-23.6-30.4v.2c-2.1-.2-4.3-.2-6.4-.6-2.3-.4-4.4-1.4-4.4-4.3s1.7-4.2 4.3-4.8c3.5-.9 6.9-.2 10.3.1.9.1 2 .4 2.3-1 .2-1-.6-1.5-1.4-1.8-4.5-1.7-9.1-2.8-13.9-1.5-4.1 1.2-6.4 4.4-6.4 8.8s1.9 7.1 6.2 8.4c4.6 1.3 9.2.6 13.7-.7.9-.3 2-.5 1.9-1.7-.2-1.5-1.5-1.2-2.5-1.2-1.4.1-2.5.1-3.7.1z" class="st9"/><path d="M686 196.6c3.4-.8 6-1.4 8.7-2.1 2.3-.6 3.2-.1 2.4 2.4-4.8 15.7-23 36.9-45.5 38.5-10.1.7-18-7.6-16.4-17.6 1.7-10.4 6.2-19.7 12.1-28.3 8.1-11.8 17.9-21.9 30.2-29.4 1-.6 2-1.7 3.2-.7 1 .8 0 2 0 3-.1 2-1.3 3.8-.7 6.3 5-3.9 9.7-7.7 14.6-11.2 4.2-3.1 8.5-6 12.9-8.9 1-.7 2.2-2.2 3.4-1.2 1.2 1 0 2.5-.4 3.6-4.2 10.4-9.4 20.3-15 29.9-3 5-6 10-9.5 15.7zm-43.5 20.2c.1 5.1 6.1 12.2 10.5 12.9.5.1 1.1.2 1.4-.1 3.1-3.3 7.7-2.7 11.5-4.2 2.2-.8 3.1-2.1 2.3-4.3-.5-1.5-.4-2.4.9-3.7 1.7-1.7 2.6-4.2 1.6-6.9-2.6-6.8-9.2-10.1-16.1-8.2-.9.3-1.9.4-2.8.3-3.9-.2-6.3 2.4-7.2 5.3-1.1 3.2-1 6.5-2.1 8.9zM664 197c2.9.1 11.2-9 10.8-11.6-.3-1.6-1.4-1.5-2.4-.9-4.2 2.4-7.4 5.9-9.4 10.3-.6 1.2-.2 2 1 2.2zm5.6-24.4c-.2 0-.5.1-.7.1-2.4.6-5.3 4.6-4.9 6.7.2 1 .7 1.5 1.7 1.5 2 0 5.5-3.9 5.6-6.2 0-1.2-.2-2.1-1.7-2.1zm13.8 37.1c.2-1.9-.7-2.3-2.4-1.9-2.2.6-5.1 4.4-4.9 6.4.1 1.3.8 1.6 1.9 1.5 2.2-.1 5.3-3.6 5.4-6zm1.6-25c1.7-.3 2.9-1.2 3.1-3 .1-1.3-.6-2.4-2-2.4-1.8-.1-2.9 1-3.2 2.7-.3 1.5.6 2.4 2.1 2.7z" class="st10"/><path d="M258.1 682.4c5.6-19.3 22-31.7 41.6-31.7 19.3 0 36 12.5 41.4 31 2.3 7.7 2.3 15.5.3 23.2-.3 1-.4 2.1-.7 3.1-2.6-.2-5.2-.3-7.8-.7-19.3-3.1-38-8.3-56.1-15.6-6.5-2.5-13.1-4.8-18.7-9.3zm75.1 9.8c1-.1 2.5-.2 4-.4.9-.1 1.8-.3 1.8-1.3 0-1.3-1-1.5-2-1.4-3.1.2-6.2-.3-9.2-1-19.5-4.2-38.8-9.3-56.4-19-.7-.4-1.5-1-2.2-.2-1 1.1-.1 1.8.6 2.4.9.8 1.8 1.5 2.8 2.2 5.5 3.9 11.5 6.7 17.7 9.1 13.6 5.2 27.6 9.2 42.9 9.6zm-1 8.2h4.6c.9 0 2.3.2 2.3-1 .1-1.4-1.3-1-2.2-1-2.6 0-5.2-.2-7.8-.7-22.4-3.8-44-9.9-63.8-21.3-.6-.4-1.4-1.3-2.2-.5-.8.9.3 1.4.9 1.9 1.2.9 2.4 2 3.7 2.8 7.1 4.5 14.7 7.8 22.6 10.6 13.6 4.8 27.4 8.6 41.9 9.2zm-4.3-22.9h3.2c.9 0 2.3 0 2.3-1.2 0-1.4-1.4-.8-2.2-.9-16.6-2.2-32.4-6.9-47.3-14.6-.7-.3-1.3-1.5-2.1-.5-.6.8.2 1.5.8 2.1.4.4 1 .7 1.4 1 13.3 8.7 28.3 12.4 43.9 14.1zm-12.2-9.3h2.2c1.4-.2 3.3 0 3.5-1.7.2-2.1-1.9-1.6-3.1-2-6.5-2.1-13.1-4.1-19.7-6.1-1-.3-2.3-1.5-3.1.1-.7 1.4.7 2.1 1.6 2.8 5.6 4.6 12.4 6 18.6 6.9z" class="st11"/><path d="M258.1 682.4c5.6 4.5 12.2 6.8 18.7 9.4 18.1 7.3 36.8 12.5 56.1 15.6 2.6.4 5.2.5 7.8.7 3.2.3 6.4.1 9.6-.5 2-.3 2.5-1.2 1.2-2.8-1.4-1.6-2.8-3.2-4.3-4.7-1.4-1.5-1.9-3.1-.7-4.8 1.3-1.7 3-1.8 4.7-.7 2.2 1.5 4.7 2.6 6.1 5.2-.2.1-.5.2-.6.2-1.3-.5-2.3-.1-2.7 1.3-.2.9.3 1.3 1.1 1.4 1.6 0 1.9-1 1.8-2.3 0-.2.2-.3.4-.5 5.9 4.7 5.6 11.9-.7 15.8-4.6 2.8-9.8 3.3-15 3.5-2.4.1-4.7.1-7.1.1-9.2-.7-18.4-2-27.4-4.1-17.7-4.1-34.5-10.5-50.4-19.5-4.6-3.3-9.5-6.3-13.3-10.7-1.5-1.7-2.8-3.5-3.6-5.7-2-5.3.2-10.2 5.5-12.2 3.1-1.2 6.4-1.5 9.8-1.5 2.4 0 4.4.5 4.6 3.3.2 2.6-1.7 3.4-3.9 3.7-.5.1-.9.1-1.4.1-.9-1 1.1-2.9-1-3.5-.9-.3-1.7-.2-2.3.6-1.4 1.9 1.1 2.2 1.4 3.4v.4c-1.4.2-3.3.4-3.6 1.7-.3 1.4 1.4 2.4 2.5 3.2 2 1.4 3.9 3.4 6.7 3.9zm37.2 19.5c-.9 0-1.7-.2-2.1.6-.5 1.1.5 1.5 1.2 1.9 2.3 1.4 4.8 2.1 7.4 2.2.7 0 1.5 0 1.7-.9.1-.7-.5-1-1-1.3-2.3-1.5-4.8-2.3-7.2-2.5zm61.6 3.2c-.3.1-.6.2-.6.4-.6 2.5-2.4 4.2-4.2 5.9-.6.5-.2 1.2.4 1.4 2.2.5 3.9-.6 5.2-2.3 1.1-1.6 1.3-3.3 0-4.9-.2-.2-.6-.3-.8-.5zm-86.6-9.4c-.9-.2-1.7-.2-2.1.7-.3.8.3 1.3.9 1.7 1.5 1.2 3.2 1.9 5.1 2.2.7.1 1.5.2 1.9-.5.5-1-.3-1.5-1-2-1.4-1.1-3.1-1.7-4.8-2.1zm59.8 19.5c1-.4 2.7.2 2.9-1.4.1-1.5-1.4-1.6-2.5-1.9-1.7-.4-3.5-.8-5.1.2-.6.3-.6 1-.2 1.5 1.3 1.4 3.2 1.2 4.9 1.6zm-73.6-28.7c-.4-1.8-1.8-2.6-3.5-3-.9-.2-1.8.1-1.6 1.2.2 2 1.8 2.7 3.4 3.1 1 .3 1.7-.1 1.7-1.3zm-8-16.9c-.2-1.2-1-1.4-1.9-1.3-1.9.4-3.6 1.2-3.7 3.5 0 .8.6 1.3 1.4 1 1.8-.6 3.5-1.3 4.2-3.2zm97.8 47.4c1.3 0 2.6-.2 2.9-1.6.3-1.5-1.2-1.7-2.1-1.7-1.3 0-2.9.2-2.9 1.9 0 1.3 1.2 1.3 2.1 1.4zm3.8-20.3c-.9 0-1.7.3-1.7 1.3 0 1.2.7 2 1.9 2.1.9.1 1.7-.3 1.7-1.3 0-1.3-.7-1.9-1.9-2.1zm-107-16.7c1-.1 1.5-.7 1.5-1.6 0-1.1-.6-1.8-1.7-1.8-1 0-1.5.6-1.5 1.5 0 1.2.6 1.7 1.7 1.9zm72.8 25.8c-1.1.1-1.9.5-1.8 1.7 0 .9.6 1.5 1.6 1.6 1 .1 1.9-.3 2-1.4 0-1.1-.8-1.7-1.8-1.9zm-33.1-8.4c-.1-1-.7-1.5-1.6-1.5-.9 0-1.7.4-1.7 1.4 0 1.1.6 1.8 1.8 1.7 1-.1 1.4-.6 1.5-1.6zm-17.3-4c0-.9-.4-1.6-1.3-1.8-.9-.2-1.7 0-1.9 1-.2 1.1.2 1.9 1.4 2 .9.2 1.5-.3 1.8-1.2zm41 19.3c.7-.1 1.3-.4 1.4-1.4 0-1-.4-1.5-1.4-1.5-.8 0-1.3.5-1.4 1.2-.2.9.1 1.5 1.4 1.7zm35.7-1.2c-.2-.8-.7-1.6-1.6-1.4-.8.2-1.3 1-1.1 1.9.1.7.6 1.3 1.4 1.2.9-.1 1.3-.8 1.3-1.7z" class="st12"/><path d="M214.6 367c3.4 1.3 4.9 4.3 6.1 7.4 2.6 6.8 3.5 14 3.9 21.3.9 14.5.3 28.9-3.2 43.1-.7 2.8-1.7 5.4-3.1 7.9-1.1 1.9-2.5 3.4-4.9 3.8-5.3-1.3-8.3-5.3-10.9-9.7-5.7-9.7-8-20.3-8.9-31.3-.6-8.2-.7-16.4 1.4-24.4 1.1-4.2 2.8-8.1 5.6-11.5 3.6-4.3 8.3-6.5 14-6.6zm-5.5 32.3c3.4.4 6.8-.4 10.2-.7 1.1-.1 2.7-.2 2.8-1.7.1-1.6-1.4-1.6-2.6-1.8-6.7-1.1-13.5-1.1-20.2 0-1.2.2-2.7.1-2.6 1.7.1 1.5 1.7 1.6 2.8 1.7 3.1.4 6.3 1.1 9.6.8zm1.1 20.8c3.2.2 6.5-.1 9.8-.7.9-.2 2-.4 2-1.6.1-1.3-1.1-1.5-1.9-1.7-6.6-1.2-13.2-1.3-19.8 0-.9.2-2 .4-1.9 1.7.1 1.2 1.2 1.4 2.1 1.5 3.2.7 6.4 1 9.7.8zm-.3-31.4c3.2 0 6.4 0 9.5-.8.9-.3 1.9-.5 1.8-1.8-.1-1.1-1-1.3-1.8-1.4-6.3-1.3-12.7-1.3-19.1-.1-.9.2-2 .4-2 1.6 0 1.2 1 1.4 2 1.7 3.2.8 6.4.8 9.6.8zm-.3 16.2c-3.7.2-7.5-.1-11.2.9-.9.2-1.7.4-1.7 1.5 0 1 .9 1.3 1.8 1.4 7.3 1.2 14.7 1.3 22 0 .9-.2 1.7-.5 1.7-1.5 0-1.1-.9-1.2-1.7-1.4-3.7-.9-7.2-.8-10.9-.9zm.9 20.8c-2.7 0-5.5.1-8.1.8-.8.2-1.6.5-1.7 1.5-.1 1.1.8 1.4 1.6 1.6 5.5 1.4 11 1.4 16.5 0 .8-.2 1.7-.5 1.7-1.5 0-1.2-1-1.5-1.9-1.7-2.6-.6-5.4-.7-8.1-.7zm-.9-47.2c2-.3 3.9-.6 5.7-1 .9-.2 1.9-.5 1.8-1.8-.1-1.2-1-1.6-1.9-1.8-2-.4-4-1-5.9-.7-2.4.4-6.8-.6-6.6 2.7.1 2.9 4.5 1.7 6.9 2.6zm1.3 62.5c2.1 0 4.3.1 6.3-.8.7-.3 1.2-.7 1.3-1.5 0-.9-.6-1.3-1.3-1.5-4-1.4-8.1-1.4-12.2-.1-.8.3-1.6.7-1.4 1.7.1.8.7 1.1 1.4 1.4 1.9.9 3.9.7 5.9.8zm42.6 65.5c4.1.7 6.5 3.7 8.6 7 5.9 9.3 9.2 19.7 11.8 30.3 2.9 11.4 5.1 23 4 34.8-.3 3.4-.8 6.9-4.2 8.9-5.5.1-9.5-2.8-13-6.4-10.7-10.9-16.5-24.4-20-39.1-1.7-7.2-2.5-14.5-.6-21.8 1.8-6.9 6.1-11.8 13.4-13.7zm-3.6 45.3c6.5-.8 12.9-2.7 18.9-5.4 1-.5 2.6-.8 2.3-2.3-.4-1.8-2.2-1.1-3.3-1-6.7.7-13 2.6-19.1 5.4-1 .5-2.6.8-2.1 2.3.5 1.6 2.1.8 3.3 1zm-3-10c6.6-.8 13.3-2.6 19.7-5.8.8-.4 2-.8 1.8-1.9-.3-1.5-1.7-1.1-2.6-1-7.1.5-13.7 2.6-20.1 5.6-1 .4-2.2.9-1.9 2.2.3 1.3 1.7.8 3.1.9zm23.9 11.3c-6 .7-12.2 2.4-18 5.2-.9.4-2.2 1-1.8 2.3.4 1.5 1.9 1.2 3 1 6.2-.9 12.3-2.3 17.9-5.2 1-.5 2.5-.8 2-2.4-.4-1.4-1.7-.8-3.1-.9zm-9.4-30.1c-5.9.7-12 2.3-17.6 5.3-.8.5-1.8 1.1-1.4 2.2.4 1 1.5 1 2.5.9 6.1-.8 12.1-2.2 17.7-5 1-.5 2.5-.8 2-2.4-.5-1.4-1.8-.8-3.2-1zm-2 48c4.9-.6 9.8-1.8 14.3-4.3.8-.5 1.8-1 1.5-2.1-.4-1.3-1.6-1.3-2.6-1.1-5 .5-9.7 1.8-14.2 4.1-1 .5-2.4 1-1.9 2.6.4 1.2 1.7.7 2.9.8zm6.1 9.3c3.3-.2 6.4-1.2 9.3-2.9.8-.5 1.8-1 1.4-2.2-.3-1.1-1.3-1.3-2.3-1.3-3.4 0-6.6.9-9.6 2.4-1.2.6-3 1.1-2.5 2.9.7 1.7 2.4.9 3.7 1.1zm-18.7-60c3.4-.2 6.5-1.2 9.4-2.9.8-.5 1.8-1 1.5-2.2-.3-1.4-1.5-1.4-2.6-1.4-3.4 0-6.6 1-9.6 2.5-1 .5-2.4 1.1-2.1 2.5.5 2.1 2.2 1.2 3.4 1.5z" class="st13"/><path d="M256.6 695.5c15.8 9 32.6 15.4 50.4 19.5 9 2.1 18.2 3.4 27.4 4.1-9.9 14.1-28.1 20.7-45.3 16.4-16.9-4.3-30-18.9-32-35.7-.2-1.5-.3-2.9-.5-4.3zm57.4 27.7c1.2 0 2.4.1 3.6 0 .7 0 1.5-.3 1.5-1.2-.1-1-1-.8-1.7-.8-17-2.2-33.2-6.8-48.3-14.9-.6-.3-1.2-1-1.8-.1-.4.6 0 1.2.5 1.6.6.6 1.2 1.2 1.9 1.6 13.5 8.3 28.5 12.4 44.3 13.8zm-14.5 7.3c.7 0 1.4.1 2.1 0 1.5-.1 3.7.3 3.7-1.7 0-1.6-2.2-1.5-3.5-1.8-8-1.7-15.7-4.4-23.5-7.1-1.1-.4-2.5-1.8-3.5-.2-1 1.7.9 2.5 1.9 3.2 6.9 4.7 14.5 7.2 22.8 7.6z" class="st11"/><path d="M443.7 496.5c4.3-2 9.1-2.5 13.2-4.9 1 .4 1.9 1.3 3.1.8 4.8 4.1 4.8 4.1 10.1 1.3 2.9-1.5 5.8-3.2 8.7-4.8 8.8 7.4 18.2 14 28.5 19.2-.7 1.7-1.5 3.4-2.2 5.2-11.4 8.3-23.6 8.5-36.1 3-9.9-4.5-18.2-11.3-25.3-19.8z" class="st10"/><path d="M569.6 357.9c-2.4-3.9-5.8-6.8-9.2-9.7-1.7-1.4-1.7-2.3-.3-4 3.3-4 6.4-8.1 9.6-12.2 4.3 3.4 8.6 6.9 12.9 10.3 3.5 3.7 7 7.4 10.5 11.2 3.6 5.5 7 11 8.1 17.7 1.3 7.9-.5 15.3-3.5 22.6-2.3 5.5-5 10.8-8.5 15.6-.6-8.3-1.8-16.5-4.3-24.5 5.1-6.2 6-12.8 2.5-19.1-3.3-6.1-9.2-8.7-17.4-7.7-.2-.1-.3-.1-.4-.2z" class="st13"/><path d="M593.1 353.5c-3.5-3.7-7-7.4-10.5-11.2 5.7-6.8 10.3-14.2 13.3-22.6 3.6-10.2 1.6-18.9-6.7-26.1 1.1-5.3 2.3-10.7 3.4-16 16.7 10.5 24.6 27.5 16.9 48.3-3.9 10.3-10 19.1-16.4 27.6zm15.8-36.1c.7-.1 2.6.8 1.9-1-.6-1.6-3-1.6-4.7-2.1-1.4-.4-1.8.8-2.2 1.8-1.4 3.5-2.7 7.1-4.1 10.6-2.6 6.2-5.9 11.9-9.9 17.3-.6.8-2 1.8-.8 2.7 1.1.8 1.7-.7 2.5-1.3.3-.2.5-.5.8-.8 6.9-7.1 10.9-15.8 13.6-25.2.5-1.4.7-2.8 2.9-2zm-4.3-21.8c-1.9.4-4.5 1.6-6.6 3.6-.5.4-.7 1-.3 1.6.3.3.9.5 1.3.4 2.9-.6 5.4-1.8 7.6-3.7.4-.4.9-.9.5-1.5-.3-.7-.9-.7-2.5-.4zm-1.1-5.8c0-.1-.4-.7-1.3-.4-3 .9-5.6 2.4-7.4 5-.5.6-.4 1.4.5 1.7 1.5.6 7.9-3.7 8.2-6.3z" class="st12"/><path d="M505.2 314.4c-7.3-.7-16-2.4-24.1-6.6-6.2-3.2-8.9-8-8.4-14 .2-1.6.6-3.1 2.2-3.8.8-.4 1.6-.5 2.4-.2 1.2.5.3 1.4.3 2.2-.1 1.5-1.1 3.7.4 4.2 1.9.6 2.4-1.8 2.9-3.3 1.2-3.4 3.2-1 4.8-.8 1.6.2 3.6.3 2.4 2.9-.1.2-.1.5-.1.7.2 1.2-.8 3 .7 3.4 1.5.4 2.1-1.5 2.4-2.6.6-2.5 2-2.9 4.1-2 1.8.8 5.3.1 4 4.2-.3 1-.9 3 .8 3.3 1.5.3 2-1.5 2.3-2.7 1-4 3.6-1.6 5.6-1.4 2.7.2 2.3 2 1.9 3.8-.2 1.1-.8 2.7.6 3.2 1.5.6 1.8-1.2 2.3-2.1 1.6-3 3.8-3.5 7.2-1.4 2.7 1.6 2.3 3.8.9 6.1-2.7 5-6.8 7-15.6 6.9z" class="st8"/><path d="M442.2 283.1c0-13 3.9-23.6 8.7-33.9 6.4-13.6 13.8-26.7 25.2-36.9 11.1-9.9 23.7-12.6 37.8-7.4.3.1.7.2 1 .4.9.5 2.3.7 1.7 2.2-.5 1.2-1.5.7-2.4.5-3.2-.8-6.4-1.6-9.8-1.8-11.6-.8-20.7 4.3-27.9 12.6-14.1 16.1-23.9 34.6-29.1 55.4-2.2 8.6-1.8 17 2.4 25 .5.9 1.3 2.2.2 2.9-1.4.9-2.1-.5-2.7-1.5-3.7-6-5.4-12.2-5.1-17.5z" class="st13"/><path d="M370.4 476.2c-.1 1.1-.8 1.6-1.8 1.9-8 2.4-15.4 6.1-22.4 10.7-1.6 1.1-2.7.9-3.9-.7-3.6-4.6-7.7-8.7-12.3-12.3-1.7-1.4-1.9-2.6 0-3.9 7.2-5.2 15-9 23.5-11.5 1.1-.3 2.1-.3 3.1.3 5.7 3.7 9.6 9.1 13.5 14.6.1.2.2.6.3.9zm-8.2-2.8c-.2-3.7-5.5-9.4-9.3-9.8-.8-.1-1.5-.1-1.9.6-.4.6-.1 1.3.3 2 2.4 3.3 5.3 6 8.2 8.8.5.5 1.2.7 2 .3.9-.5.7-1.2.7-1.9zm-7.8 3.6c0-3.7-5.6-9.8-9.4-10.1-.7-.1-1.2 0-1.6.5-.6.7-.4 1.4.1 2 2.5 3.3 5.2 6.5 8.5 9 1.4 1 2.5.5 2.4-1.4zm-18.4-5.3c-.6 0-1.4.9-.6 2 2.4 3.7 5.6 6.8 8.9 9.6 1.1.9 2 .2 2.2-1.1.5-3.6-6.1-10.8-10.5-10.5zm-16.2-99.4c1.9.2 4 .6 6.1.5 5.8-.4 8.6 2.8 10.2 7.8 1.2 3.9 2.2 7.8 3.1 11.7.6 2.6-.2 3.9-3.1 3.4-7.9-1.3-15.9-.8-23.8.4-2.3.3-3.2-.3-3.7-2.5-1.2-5.5-3.2-10.7-5.8-15.7-1.4-2.7-.4-3.7 2.2-4.1 4.8-.9 9.6-1.3 14.8-1.5zm-4.1 14.8c-.3-3.8-1.4-7-3.9-9.7-.7-.7-1.4-1.4-2.5-1.1-1.3.4-.9 1.6-.7 2.4.8 3.7 2.2 7.3 3.6 10.8.3.7.7 1.3 1.5 1.3 1.1 0 1.3-.8 1.5-1.6.3-.7.4-1.5.5-2.1zm9.3-.9c-.4-4.1-1.6-7.5-4.4-10.1-.6-.6-1.4-1.1-2.2-.6-.7.4-.6 1.2-.5 1.9.7 4.1 2.1 8 3.9 11.7.7 1.4 1.9 1.4 2.6-.2.3-.9.4-2 .6-2.7zm8.4.3c-.1-4.2-1.4-7.4-4-10.1-.6-.6-1.3-1.1-2.2-.8-1.1.4-.9 1.3-.8 2.1.7 4 2.2 7.7 3.8 11.4.3.7.9 1.1 1.7.9.6-.1 1-.6 1.1-1.2.1-.9.3-1.8.4-2.3z" class="st14"/><path d="M336.6 528.9c-7.3-13.3-18-23.2-30.9-30.9 2.2-3 5-5.5 7.9-7.9 13.4 7.9 24.1 18.5 31.3 32.4-2.8 2.1-5.6 4.3-8.3 6.4zM280.8 423c1.2-13.8-1.9-26.8-7.5-39.4 3.3-1.3 6.8-1.9 10.3-2.4 6.3 12.4 8.8 25.6 7.8 39.4-3.5 1.1-7 2.1-10.6 2.4zm74.9-81.8c6.8-7.1 10.7-15.9 13.6-25.1 1.2-3.8 1.9-7.8 2.9-11.7 3.2 1.2 6.4 2.4 9.6 3.7-2 13.7-6.5 26.4-15.5 37.2-3.7-1-7.2-2.5-10.6-4.1z" class="st2"/><path d="M362.8 640.4c6.5 0 11.5 5 11.6 11.5.1 6.3-5.3 11.7-11.5 11.7-6.5 0-11.5-5-11.5-11.6 0-6.5 4.9-11.5 11.4-11.6zm4.6 17c-.2-2.5-1.5-3.6-4-3.5-2.3.1-3.4 1.5-3.3 3.7 0 2.3 1.3 3.5 3.6 3.5 2.4 0 3.6-1.3 3.7-3.7zm-5.5-11.5c-.4-1.3-1.2-2.4-2.7-2.3-1.5.1-2.4 1.2-2.2 2.7.2 1.5 1.3 2.2 2.8 2.1 1.3-.2 2-1.2 2.1-2.5z" class="st13"/><path d="M255.1 206.7c-.1 4.5-3.5 7.9-7.9 7.8-4.4-.1-7.8-3.7-7.8-8 0-4.4 3.6-7.8 8-7.8 4.4.1 7.8 3.6 7.7 8zM663.7 599c-4.4 0-7.9-3.6-7.9-7.9 0-4.3 3.6-7.9 8-7.9 4.2 0 7.9 3.8 7.9 8 0 4.3-3.6 7.8-8 7.8zm-480.8 51.8c0 4.5-3.4 7.9-7.9 7.9-4.3 0-7.9-3.6-7.9-7.9 0-4.3 3.6-7.9 7.9-7.9 4.5-.1 7.9 3.4 7.9 7.9zm445.7-520.9c-4.5 0-7.9-3.5-7.8-7.9 0-4.3 3.7-7.9 8-7.8 4.3 0 7.9 3.7 7.8 8-.1 4.4-3.6 7.8-8 7.7zm-193.4-15.5c0 4.5-3.3 7.7-7.9 7.6-4.5 0-7.9-3.5-7.8-7.9.1-4.3 3.8-7.9 8.1-7.8 4.3.1 7.6 3.7 7.6 8.1zM260.3 53.7c.2-2.6 1.6-4.2 4.3-4.4 2.5-.2 4.7 1.8 4.6 4.4-.1 2.7-1.7 4.1-4.2 4.4-2.4.3-4.6-2-4.7-4.4z" class="st14"/><path d="M697.2 137.7c1.4.2 1.8 1 1.3 2.2-1.6 4.4-4.7 7.7-8.4 10.3-1.3.9-3 .5-2.4-1.5 1.5-4.7 4.5-8.3 8.8-10.8.2-.1.4-.1.7-.2z" class="st13"/><path d="M580.2 49.3c2.4.1 4 1.5 4.3 4.1.3 2.3-1.9 4.8-4.3 4.7-2.5-.1-4.2-1.5-4.5-4.1-.3-2.5 1.7-4.6 4.5-4.7zM617 555.9c-2.8.1-5-2-4.9-4.5.1-2.7 1.7-4.1 4.3-4.3 2.4-.2 4.7 2.1 4.6 4.5-.2 2.5-1.7 3.9-4 4.3zm-553.5-15c2.6-.1 4.6 1.8 4.5 4.4-.1 2.6-1.6 4.2-4.2 4.3-2.5.1-4.6-1.9-4.6-4.4 0-2.4 1.9-4.3 4.3-4.3zm86 82.9c2.2.2 3.5 1.7 3.6 4.3.1 2.6-2 4.5-4.5 4.3-2.7-.2-4.1-1.9-4.2-4.4-.2-2.4 2-4.3 5.1-4.2zm498 .1c-2.2-.2-3.7-1.6-3.9-4.2-.2-2.6 1.8-4.5 4.4-4.5 2.7.1 4.1 1.7 4.4 4.2.3 2.4-1.9 4.5-4.9 4.5zM112.8 423.5c0 2.7-1.5 4.1-4.1 4.4-2.4.2-4.7-1.9-4.6-4.4.1-2.6 1.6-4.2 4.2-4.4 2.7-.3 4.5 1.6 4.5 4.4zm615 55.2c2.5-.1 4.7 1.9 4.5 4.4-.2 2.5-1.5 4.2-4.3 4.3-2.7.1-4.2-1.4-4.5-4-.2-2.6 1.7-4.7 4.3-4.7zM397.2 144.8c2.4 0 4.6 2.1 4.4 4.6-.2 2.6-1.7 4.1-4.4 4.1s-4.2-1.3-4.3-4.1c-.1-2.5 1.8-4.6 4.3-4.6zM440 619.6c-3 .1-5-1.9-4.9-4.5.1-2.6 1.6-4.1 4.3-4.2 2.6-.1 4.5 1.8 4.4 4.4-.1 2.8-1.7 4-3.8 4.3z" class="st14"/><path d="M705.8 187c-1.4-.1-1.6-1.1-1.2-2.4 1-3.2 3-5.6 5.9-7.2 1.1-.6 2.3-.9 2.8.8.6 2.3-4.7 8.8-7.5 8.8zm15.2-26.9c-.3 1.7-1.2 2.7-3.1 2.7-1.7 0-2.4-1-2.1-2.5.3-1.7 1.4-2.7 3.2-2.6 1.5 0 2 1 2 2.4zm-3.9-31.9c-.2 1.8-1.2 2.9-2.9 2.9-1.5 0-2.3-1.2-2.1-2.6.2-1.8 1.5-2.7 3.1-2.7 1.5-.1 1.9 1 1.9 2.4zm-39.6 19.1c1.4.2 2.3 1 2.2 2.6-.2 1.7-1.3 2.8-3 2.8-1.4 0-2-1-2-2.3 0-2 1.1-2.8 2.8-3.1z" class="st13"/><path d="M252.4 673.3c0-.1.1-.2 0-.4-.4-1.2-2.8-1.5-1.4-3.4.5-.7 1.4-.8 2.3-.6 2.1.7.1 2.5 1 3.5-1-.6-1.1 0-1 .8-.3.1-.6.1-.9.1z" class="st4"/><path d="M253.3 673.3c0-.8 0-1.4 1-.8-.1.6-.5.7-1 .8z" class="st12"/><path d="M196.8 135.4c-.2 3.5-.7 6.9-2.9 9.7-2.4 3.1-5.5 2.9-7.5-.4-2.7-4.4-2-13.3 1.3-17.3 2.5-3 5.5-2.7 7.4.7 1.3 2.3 1.5 4.8 1.7 7.3z" class="st3"/><path d="M109.9 167.3c0-5.5 1.9-9 4.7-9.3 2.8-.3 5.6 2.6 6.6 6.9.7 2.9.6 5.7-.7 8.4-1.8 3.7-5.4 4.1-8 .9-1.9-2.2-2.5-5-2.6-6.9zm57.1 63.3c1.6 4.3.6 7.4-3.4 10.8-3.9 3.3-7.5 4-10.9 2.1l.1.1c-.6-7.7 5.4-13.2 14.2-13zm-39.2 41.6c-1.5.1-2.6.5-2.8-.6-.2-1.1.9-1.3 1.6-1.5 6.1-2.3 12.5-4 19-4.8.8-.1 1.8-.5 2.1.7.3 1.1-.9 1.3-1.6 1.6-6.1 2.3-12.4 3.9-18.3 4.6zm76.4-97.9c-.4 2.6-.9 5.1-3.1 6.9-1.9 1.6-3.4 1.3-4.3-1.2-.8-2.6.8-7.5 3-8.9 1-.7 2-.9 3-.2 1.2.7 1.3 2 1.4 3.4zM123 232.9c-2-.1-3.8-.1-4.3-2.1-.5-1.8 1.1-2.8 2.4-3.6 2.6-1.5 5.5-2.4 8.4-.8 1.1.6 1.5 1.6.8 2.7-1.7 2.9-4.5 3.6-7.3 3.8zm27.2-138c.1-1.1.5-2.2 2-2.2 1.9 0 4.7 3.7 4.6 6.2 0 1.3-.4 2.4-2 2.3-2 0-4.6-3.6-4.6-6.3zm55.1-5.1c.1.5 0 1-.4 1.2-.6.4-1.1 0-1.6-.4-2.7-2.6-4.6-5.6-6-9.1-.2-.6-.3-1.2.2-1.6.5-.4 1.1-.1 1.6.2 1.6 1 6.1 8 6.2 9.7zm-17.6 58.8c1.5.3 3.4-.1 3.5 1.5.1 1.4-1.8 1.3-2.8 1.7-1.1.5-2.3.8-3.4.8-1.2.1-2.9 1.3-3.4-.5-.3-1.4 1.4-2 2.6-2.5 1.2-.5 2.5-.7 3.5-1zm1.8-24.6c-2.5-.4-4.9-1-6.6-3.3-.3-.5-.5-1.4.2-1.5 2.6-.5 4.7 1 7 1.9.8.3 2 .5 1.9 1.8-.2 1.2-1.4 1-2.5 1.1z" class="st4"/><path d="M152.8 243.5c.2 2.9-1 3.5-3.4 2-.7-.4-1.5-.8-2.1-1.3-.9-.7-2.6-1.2-2-2.5.8-1.7 2.5-.6 3.8-.3 1.4.3 2 2.1 3.7 2.1zm14.3-12.8c-.9-2-2.7-3.6-2.3-6.1.1-.7 0-1.5.9-1.7.7-.1 1.1.3 1.4.9.8 1.6 1.6 3.2 2.2 4.8.9 2.3-.8 2.1-2.2 2.1-.1-.1 0 0 0 0z" class="st4"/><path d="M522.3 762.4c0-4.5 3.3-7.8 7.9-7.8 4.4 0 7.9 3.5 7.9 7.9s-3.6 7.9-8 7.9c-4.3 0-7.8-3.6-7.8-8zm-13.6-30.1c2.5-.1 4.5 1.9 4.5 4.4-.1 2.7-1.6 4.1-4.2 4.3-2.6.2-4.6-1.8-4.5-4.4.1-2.6 1.6-4 4.2-4.3z" class="st14"/><path d="M486.8 412.9c-.8-.3-1.8-.5-2.6-.8-11.8-4.5-22.4-10.9-32.3-18.7-1.7-1.3-2.2-2.5-.8-4.4 9-11.9 16.2-24.9 23.3-38 2.1-3.9 2.1-3.9 5.8-1.5 9.2 6 19 10.9 29.2 14.7 2.6 1 3.2 2.2 2.3 4.7-5.6 15.1-13.7 29-22.6 42.4-.6.8-1.1 1.6-2.3 1.6zm13.3-26.6c-3.4-1.6-6.7-3.2-10-4.7-2.6-1.2-3.2-2.5-1.6-5.2 2.4-4 4-8.3 6.1-12.5.8-1.5.5-2.3-1.1-3-4.8-2.2-9.4-4.7-13.7-7.6-1.8-1.2-2.4-.7-3.3 1-6.4 12-13.1 23.7-21.1 34.7-.8 1.1-1.1 1.9.3 2.9 8.9 6.7 18.3 12.4 28.6 16.6 1.5.6 2.4.3 3.3-1 4.4-7 8.7-13.9 12.5-21.2zm4.3-15.5c-.6-2-2.8-2.1-4.4-2.7-1-.4-4.8 5.6-4.4 7.1.7 2.3 2.9 2.6 4.8 2.9 1.1.1 4.1-5.4 4-7.3z" class="st4"/><path d="M544 391.4c5.5 10.6 5.7 21.9 4 33.3-1.3 8.8-3.5 17.4-7.3 25.5-5.4-5.6-11.9-9.7-18.4-13.8 5.3-8.3 10.8-16.5 14.7-25.6 2.7-6.2 4.9-12.6 6.1-19.3.3 0 .6-.1.9-.1z" class="st13"/><path d="M494.5 467.3c2-2.3 4.1-4.5 6.9-5.9 5 3.8 10 7.7 15 11.5-3.3 1.7-7.1 1.6-10.3 3.6-4.5 2.9-5.2 7.6-1.4 10.6 1.5 1.2 3.1 1.4 5 1.1 3-.4 6.6-1.4 8.4 1.9 1.8 3.3-.9 5.8-2.8 8.2-1.9 2.4-4 4.7-6.1 7-.9-.9-1.9-1.8-2.8-2.7-7-6.2-14.9-11.4-22.6-16.7 4.1-3.4 8.7-6.5 12.3-10.5 1.7-1.9 2.2-3.6-.1-5.3.3-1.4-1.1-1.8-1.5-2.8z" class="st2"/><path d="M557.4 385.8c0-6.7 4.3-11.6 10.4-11.6 6.4 0 11.7 5.7 11.8 12.7.1 6.4-4.6 11.7-10.5 11.7-6.4.1-11.7-5.7-11.7-12.8zm8.2 8.4c2.7-2 5.1-2.1 8-2.3 2.8-.2-1.6-5.3 1.8-7.2.3-.2.4-.6.6-.9.3-.9 0-1.5-.9-1.4-2.8.4-4.8-.4-6.1-3-.5-.9-1.7-1-1.8.1-.2 3.7-2.9 4.7-6.6 5.8 3.6 2.2 5.8 4.7 5 8.9z" class="st3"/><path d="M503.9 457.8c2.9-1.7 4.5-4.7 7.1-6.8 7.2 5.8 14.7 11 22.7 15.5-2 4.8-6.4 4.9-10.6 5.6-5.9-5.3-12.7-9.3-19.5-13.5.1-.2.2-.5.3-.8zm9.4-9.9c2.1-2.7 4.3-5.4 6.4-8 6.5 4.7 13 9.4 20 13.4-1.2 3.7-2.8 7.2-4.7 10.6-6.6-6.3-14-11.4-21.7-16z" class="st13"/><path d="M570 358.1c8.1-1 14.1 1.7 17.4 7.7 3.5 6.3 2.6 13-2.5 19.1-3.4-9.8-8.5-18.7-14.9-26.8z" class="st3"/><path d="M548.3 513.9c-.3 1.8-1.4 1.2-2.6.8-5-1.9-10-3.7-14.9-5.7-2.3-1-3.7-.8-5.2 1.5-2.6 4.1-6.1 7.6-9.9 10.7-.8.6-1.6 1.8-2.7.9-1.2-1-.2-1.9.4-2.7 3.7-5.1 7.8-9.9 10.5-15.6.6-1.3 1.8-1.6 3-1.2 7 2.3 13.9 4.9 19.8 9.4.8.4 1.4.9 1.6 1.9z" class="st4"/><path d="M483.7 485.9c7.7 5.3 15.6 10.4 22.6 16.7 1 .9 1.9 1.8 2.8 2.7-.6 1-1.2 1.9-1.8 2.9-10.3-5.3-19.7-11.8-28.5-19.2 1.7-1.1 3.3-2.1 4.9-3.1z" class="st3"/><path d="M513.3 447.9c7.8 4.6 15.2 9.6 21.7 15.9-.4.9-.8 1.8-1.3 2.7-8-4.5-15.6-9.7-22.7-15.5.5-.8.9-1.6 1.4-2.3.2-.3.5-.5.9-.8z" class="st15"/><path d="M539.6 453.3c-7-4-13.5-8.7-20-13.4.9-1.2 1.8-2.3 2.6-3.5 6.5 4.1 13 8.2 18.4 13.8.2 1.2-.2 2.2-1 3.1z" class="st3"/><path d="M503.6 458.6c6.7 4.2 13.5 8.2 19.5 13.5-2.2.2-4.4 1.3-6.7.8-5-3.8-10-7.7-15-11.5.1-1.3 1.2-2.1 2.2-2.8zm45.5 9.7c6 .7 11.4 2.5 15.9 6.6.9.8 2.4 1.8 1.3 3.2-.9 1.3-2.2.2-3.2-.2l-14.7-6.3c-1-.5-2.5-.9-2-2.4.4-1.2 1.7-.8 2.7-.9zm-5.1-76.9c-.3 0-.6.1-.9.1-4.4-4.9-8.9-9.8-13.3-14.8-.5-.5-1-1.1-.4-1.9.7-1 1.7-.7 2.6-.4 5.6 2.2 9.3 6.4 11.6 11.8.6 1.7 1.7 3.4.4 5.2zm8 86.5c2.9.1 5.1 1.3 6.6 3.7.4.7.5 1.6-.2 1.9-2.6 1.1-4.9 0-7.1-1.3-1.2-.7-2.8-1.4-2.3-3.2.4-1.4 1.9-1 3-1.1zm-57.5-10.6c.5.9 1.8 1.4 1.5 2.8-1.4.5-2.2-.6-3.2-1.2-2.5-1.8-5.1-3.5-7.5-5.4-1.3-1-2.2-1.3-3.6.1-7.9 8-16.9 14.6-27 19.6-1.6.8-1.8 1.4-.5 2.7 2 2.1 4.7 3.7 5.8 6.6-1.2.5-2.1-.4-3.1-.8-4-3.9-8.2-7.5-12-11.6-2-2.1-1.5-3.1.8-4.1 10.9-5 20.3-12.3 28.7-20.6 1.7-1.7 2.8-1.8 4.7-.2 5.1 4.1 10.3 8 15.4 12.1z" class="st4"/><path d="M589.1 293.7c8.3 7.1 10.3 15.9 6.7 26.1-3 8.4-7.6 15.8-13.3 22.6-4.3-3.4-8.6-6.9-12.9-10.3 8.1-12 15-24.6 19.5-38.4z" class="st3"/><path d="M565.3 311.1c0 7-5.4 13.2-11.8 13.2-5.5 0-9.5-4.2-9.5-10.2-.1-7.2 5.5-13.5 11.9-13.4 5.5.1 9.4 4.4 9.4 10.4zm-4.9.3c.1-3.3-1.8-5.7-4.5-5.7-3.4 0-7 4.1-6.9 8.2 0 3 1.9 5.4 4.4 5.5 3.4.1 6.9-3.8 7-8zm29.9-56c0 .8 0 1.4-.7 1.6-.6.2-1.2 0-1.6-.5-.5-.7-.9-1.4-1.4-2.1-8.5-13.7-19.5-24.8-33.3-33.2-1.1-.7-3.4-1.1-2.5-2.8.9-1.9 2.8-.4 4.1.1 16.3 6.9 27.9 18.7 34.8 35 .2.7.4 1.4.6 1.9z" class="st4"/><path d="M567.1 284.2c2.9-.1 4.9 2 4.9 5.3.1 3.9-2.8 7.2-6.3 7.3-2.8 0-4.6-2-4.7-5.1-.1-4 2.7-7.4 6.1-7.5z" class="st3"/><path d="M539.7 214.1c-2.7.1-5.1-2.5-5.1-5.4 0-3.5 2.8-6.6 6.1-6.7 2.7-.1 5.1 2.2 5.2 5.1.2 3.5-2.9 7-6.2 7z" class="st2"/><path d="M507.3 242.3c-.9 3.4-2.3 6.7-5.3 8.9-1.6 1.3-3.4.9-5-.1s-2.3-2.4-2-4.2c.6-3.4 2.2-6.2 4.8-8.5 1.5-1.3 3.3-1.2 5-.3 1.6.9 2.4 2.3 2.5 4.2zm31.6 15.5c-.6 3.7-2.3 6.9-5.3 9.2-1.5 1.2-3.1.8-4.7-.1-1.7-1-2.6-2.5-2.2-4.5.6-3.2 2.2-6 4.6-8.2 1.5-1.4 3.3-1.3 5-.5 1.7 1 2.7 2.2 2.6 4.1z" class="st4"/><path d="M502.5 264.1c.7-1.4-.3-3.9 2.3-4.2 1.8-.2 1.9 1.5 1.8 2.8-.2 1.7.2 4-2.3 4.1-1.5.2-1.6-1.4-1.8-2.7zm14.6 2.6c-.6 2.3-2.5 3.3-4.6 3.8-1.1.3-1.9-.6-1.8-1.7.4-2.3 2.4-3.1 4.3-3.8 1.2-.3 1.9.4 2.1 1.7z" class="st15"/><path d="M332.1 310.8h3.6c1 0 2.3-.4 2.5 1.2.2 1.2-.9 1.4-1.9 1.7-4.5 1.4-9.1 2.1-13.7.7-4.3-1.3-6.3-3.9-6.2-8.4 0-4.5 2.3-7.6 6.4-8.8 4.8-1.4 9.4-.2 13.9 1.5.8.3 1.6.7 1.4 1.8-.2 1.4-1.4 1.1-2.3 1-3.4-.3-6.8-1-10.3-.1-2.6.7-4.3 1.9-4.3 4.8s2.1 3.9 4.4 4.3c2.1.4 4.3.4 6.4.6.1-.2.1-.3.1-.3z" class="st4"/><path d="M642.5 216.8c1.1-2.5 1.1-5.8 2-8.7.9-2.9 3.3-5.5 7.2-5.3.9 0 1.9 0 2.8-.3 6.9-2 13.5 1.3 16.1 8.2 1 2.6.1 5.1-1.6 6.9-1.3 1.3-1.4 2.2-.9 3.7.8 2.2-.1 3.5-2.3 4.3-3.8 1.4-8.4.8-11.5 4.2-.2.2-.9.1-1.4.1-4.4-.9-10.3-7.9-10.4-13.1zm10.6 1.8c-.1-1.4-.6-2.3-2.1-2.3-1.8 0-2.9.8-3.1 2.6-.2 1.5.6 2.5 2.2 2.5 1.8-.1 2.8-1.1 3-2.8zm10.2-3.1c1.1-.2 1.6-.9 1.4-2-.1-1-.8-1.5-1.7-1.2-.9.2-1.3.9-1.3 1.8.1 1 .6 1.5 1.6 1.4z" class="st3"/><path d="M664 197c-1.2-.2-1.6-1-1-2.2 2.1-4.4 5.2-7.9 9.4-10.3 1-.6 2.1-.7 2.4.9.4 2.6-7.9 11.7-10.8 11.6zm5.6-24.4c1.5 0 1.7.9 1.7 2.1-.1 2.4-3.6 6.2-5.6 6.2-1 0-1.5-.5-1.7-1.5-.4-2.1 2.5-6.1 4.9-6.7.2 0 .5 0 .7-.1zm13.8 37.1c-.1 2.4-3.2 5.9-5.3 6-1.1.1-1.8-.2-1.9-1.5-.2-2 2.6-5.9 4.9-6.4 1.6-.4 2.5.1 2.3 1.9zm1.6-25c-1.5-.3-2.4-1.2-2.2-2.7.3-1.7 1.4-2.8 3.2-2.7 1.4.1 2.1 1.1 2 2.4-.2 1.8-1.3 2.7-3 3z" class="st15"/><path d="M333.2 692.2c-15.3-.3-29.3-4.4-43-9.6-6.2-2.4-12.2-5.2-17.7-9.1-1-.7-1.9-1.4-2.8-2.2-.7-.6-1.6-1.3-.6-2.4.8-.8 1.5-.2 2.2.2 17.6 9.8 36.9 14.9 56.4 19 3 .6 6.1 1.2 9.2 1 1-.1 2 .2 2 1.4 0 1-.9 1.3-1.8 1.3-1.4.2-2.9.3-3.9.4z" class="st2"/><path d="M332.2 700.4c-14.5-.6-28.3-4.4-41.9-9.2-7.9-2.8-15.5-6.1-22.6-10.6-1.3-.8-2.5-1.8-3.7-2.8-.6-.5-1.7-1-.9-1.9.7-.9 1.5.1 2.2.5 19.8 11.4 41.5 17.4 63.8 21.3 2.6.4 5.2.6 7.8.7.9 0 2.3-.3 2.2 1-.1 1.2-1.4 1-2.3 1-1.5.1-3 0-4.6 0zm-4.3-22.9c-15.6-1.7-30.5-5.4-43.9-14-.5-.3-1-.6-1.4-1-.6-.6-1.5-1.2-.8-2.1.8-1 1.4.1 2.1.5 14.9 7.7 30.7 12.4 47.3 14.6.8.1 2.3-.5 2.2.9 0 1.1-1.3 1.1-2.3 1.2-1.1-.1-2.2-.1-3.2-.1zm-12.2-9.3c-6.3-.9-13.1-2.3-18.7-6.9-.8-.7-2.3-1.4-1.6-2.8.8-1.6 2.1-.4 3.1-.1 6.6 2 13.1 4 19.7 6.1 1.2.4 3.4 0 3.1 2-.2 1.7-2.1 1.5-3.5 1.7h-2.1z" class="st2"/><path d="M295.3 701.9c2.5.3 4.9 1.1 7.2 2.4.5.3 1.1.6 1 1.3-.2.9-1 1-1.7.9-2.7-.1-5.2-.7-7.4-2.2-.6-.4-1.6-.8-1.2-1.9.4-.7 1.2-.5 2.1-.5zm61.6 3.2c.3.2.6.3.8.5 1.3 1.6 1.1 3.3 0 4.9-1.2 1.7-2.9 2.8-5.2 2.3-.6-.1-1-.8-.4-1.4 1.8-1.7 3.6-3.4 4.2-5.9-.1-.2.3-.3.6-.4zm-86.6-9.4c1.7.4 3.4 1 4.8 2.1.6.5 1.4 1 1 2-.4.8-1.2.6-1.9.5-1.9-.3-3.6-1-5.1-2.2-.5-.4-1.2-1-.9-1.7.4-.9 1.2-.9 2.1-.7zm59.8 19.5c-1.7-.4-3.6-.1-4.9-1.5-.5-.5-.4-1.2.2-1.5 1.6-1 3.4-.6 5.1-.2 1.1.2 2.7.4 2.5 1.9-.2 1.4-1.9.9-2.9 1.3zm-73.6-28.7c0 1.2-.7 1.6-1.7 1.3-1.7-.4-3.2-1.1-3.4-3.1-.1-1.1.7-1.5 1.6-1.2 1.7.4 3.1 1.2 3.5 3zm-8-16.9c-.7 1.9-2.4 2.6-4.2 3.2-.8.3-1.5-.2-1.4-1 .1-2.3 1.8-3.1 3.7-3.5.9-.1 1.7.1 1.9 1.3zm97.8 47.4c-1-.1-2.2-.1-2.2-1.3 0-1.8 1.6-1.9 2.9-1.9 1 0 2.4.2 2.1 1.7-.2 1.3-1.5 1.5-2.8 1.5zm3.8-20.3c1.2.2 2 .9 1.9 2.1 0 1-.8 1.4-1.7 1.3-1.2-.1-1.9-.8-1.9-2.1 0-1.1.7-1.4 1.7-1.3zm-107-16.7c-1-.2-1.7-.8-1.7-1.9 0-1 .5-1.6 1.5-1.5 1.1.1 1.7.7 1.7 1.8 0 .9-.5 1.6-1.5 1.6zm72.8 25.8c1 .2 1.8.7 1.7 1.8-.1 1.1-1 1.5-2 1.4-.9-.1-1.5-.6-1.6-1.6.1-1.1.9-1.5 1.9-1.6zm-33.1-8.4c-.1.9-.6 1.5-1.6 1.6-1.2.1-1.8-.6-1.8-1.7 0-1 .9-1.4 1.7-1.4 1.1 0 1.6.5 1.7 1.5zm-17.3-4c-.3.9-.9 1.4-1.9 1.3-1.2-.2-1.6-1-1.4-2 .2-1 1.1-1.2 1.9-1 1 .1 1.4.8 1.4 1.7zm91.8 6.3c-.1.2-.4.4-.4.5.1 1.3-.2 2.4-1.8 2.3-.8 0-1.3-.5-1.1-1.4.4-1.4 1.4-1.7 2.7-1.3.1.2.4 0 .6-.1 0 .1 0 0 0 0zm-50.8 13c-1.3-.1-1.6-.8-1.4-1.7.1-.8.6-1.2 1.4-1.2 1 0 1.5.6 1.4 1.5-.1 1-.7 1.3-1.4 1.4zm35.7-1.2c0 1-.4 1.6-1.3 1.7-.8.1-1.2-.5-1.4-1.2-.2-.9.3-1.7 1.1-1.9.9-.3 1.4.5 1.6 1.4z" class="st4"/><path d="M209.1 399.3c-3.3.3-6.5-.4-9.7-.8-1.1-.1-2.7-.3-2.8-1.7-.1-1.6 1.5-1.5 2.6-1.7 6.7-1.1 13.5-1.1 20.2 0 1.2.2 2.7.2 2.6 1.8-.1 1.5-1.7 1.6-2.8 1.7-3.3.3-6.7 1-10.1.7zm1.1 20.8c-3.3.2-6.5-.1-9.7-.7-.9-.2-2-.3-2.1-1.5-.1-1.3 1-1.6 1.9-1.7 6.6-1.3 13.2-1.3 19.8 0 .9.2 2 .4 1.9 1.7-.1 1.2-1.1 1.4-2 1.6-3.3.5-6.6.8-9.8.6zm-.3-31.4c-3.2 0-6.4 0-9.5-.8-1-.2-2-.5-2-1.7 0-1.3 1.1-1.5 2-1.6 6.4-1.2 12.7-1.3 19.1.1.8.2 1.7.4 1.8 1.4.1 1.3-.9 1.5-1.8 1.8-3.2.8-6.4.8-9.6.8z" class="st15"/><path d="M209.6 404.9c3.7.1 7.3 0 10.8.9.8.2 1.7.3 1.7 1.4 0 1.1-.8 1.4-1.7 1.5-7.3 1.3-14.7 1.3-22 0-.9-.1-1.7-.4-1.8-1.4 0-1 .8-1.3 1.7-1.5 3.8-1 7.6-.8 11.3-.9z" class="st3"/><path d="M210.5 425.7c2.7 0 5.5.1 8.1.8.9.3 1.9.5 1.9 1.7 0 1-.9 1.3-1.7 1.5-5.5 1.3-11 1.3-16.5 0-.8-.2-1.7-.5-1.6-1.6.1-1 .9-1.3 1.7-1.5 2.7-.8 5.4-.9 8.1-.9zm-.9-47.2c-2.4-.9-6.8.2-6.9-2.5-.2-3.2 4.2-2.3 6.6-2.7 1.9-.3 4 .3 5.9.7.9.2 1.9.6 1.9 1.8.1 1.3-1 1.6-1.8 1.8-1.8.4-3.7.6-5.7.9zm1.3 62.5c-2 0-4 .1-5.9-.7-.7-.3-1.3-.6-1.4-1.4-.1-1.1.6-1.5 1.4-1.7 4.1-1.3 8.1-1.3 12.2.1.7.2 1.3.6 1.3 1.5 0 .8-.6 1.2-1.3 1.5-2 .8-4.2.6-6.3.7zm39 110.8c-1.3-.2-2.8.6-3.3-.9-.5-1.6 1.1-1.9 2.1-2.3 6.1-2.8 12.4-4.8 19.1-5.4 1.2-.1 2.9-.8 3.3 1 .4 1.5-1.3 1.8-2.3 2.3-6 2.6-12.4 4.5-18.9 5.3zm-3-10c-1.4-.1-2.8.4-3.2-1-.4-1.3.9-1.8 1.9-2.2 6.4-2.9 13-5.1 20.1-5.6 1-.1 2.4-.5 2.6 1 .2 1.2-1 1.5-1.8 1.9-6.3 3.3-13 5-19.6 5.9zm23.9 11.3c1.4.1 2.7-.5 3.2.9.6 1.6-1 1.9-2 2.4-5.6 2.9-11.7 4.4-17.9 5.2-1.1.2-2.6.4-3-1-.4-1.3.9-1.8 1.8-2.3 5.7-2.8 11.9-4.5 17.9-5.2zm-9.4-30.1c1.4.1 2.8-.4 3.2.9.5 1.6-1 1.9-2 2.4-5.5 2.9-11.5 4.2-17.7 5-1 .1-2.1.1-2.5-.9-.4-1.1.5-1.7 1.4-2.2 5.6-2.9 11.7-4.4 17.6-5.2zm-2 48c-1.2-.1-2.5.4-2.9-1-.5-1.5.9-2 1.9-2.6 4.5-2.3 9.2-3.6 14.2-4.1 1.1-.1 2.3-.2 2.6 1.1.3 1.1-.6 1.7-1.5 2.1-4.5 2.7-9.4 4-14.3 4.5zm6.1 9.3c-1.3-.3-3.1.6-3.6-1-.6-1.8 1.3-2.3 2.5-2.9 3-1.6 6.2-2.4 9.6-2.4 1 0 2 .2 2.3 1.3.3 1.2-.6 1.7-1.4 2.2-3 1.6-6.1 2.7-9.4 2.8zm-18.7-60c-1.2-.3-2.9.6-3.3-1.3-.3-1.5 1.1-2 2.1-2.5 3-1.6 6.2-2.5 9.6-2.5 1.1 0 2.3 0 2.6 1.4.2 1.2-.7 1.7-1.5 2.2-2.9 1.5-6.1 2.5-9.5 2.7z" class="st15"/><path d="M314 723.2c-15.8-1.4-30.8-5.4-44.4-13.8-.7-.4-1.3-1.1-1.9-1.6-.4-.4-.8-1-.5-1.6.6-.9 1.2-.2 1.8.1 15.2 8 31.4 12.7 48.3 14.9.7.1 1.6-.2 1.7.8 0 .9-.8 1.1-1.5 1.2H314zm-14.5 7.3c-8.2-.4-15.8-2.9-22.6-7.5-1-.7-2.9-1.5-1.9-3.2.9-1.6 2.3-.2 3.5.2 7.7 2.7 15.4 5.4 23.5 7.1 1.3.3 3.5.1 3.5 1.8 0 2-2.3 1.6-3.7 1.7-.9 0-1.6-.1-2.3-.1z" class="st2"/><path d="M460.1 492.4c-1.2-2.9-3.8-4.4-5.8-6.6-1.3-1.4-1.1-1.9.5-2.7 10.1-5 19.1-11.6 27-19.6 1.4-1.4 2.3-1.1 3.6-.1 2.4 1.9 5 3.6 7.5 5.4.9.7 1.8 1.7 3.2 1.2 2.3 1.7 1.8 3.5.1 5.3-3.7 4-8.2 7-12.3 10.5-1.6 1-3.2 2-4.9 3l-8.7 4.8c-5.4 2.9-5.4 2.9-10.2-1.2z" class="st9"/><path d="M608.9 317.4c-2.2-.7-2.4.7-2.9 2.2-2.7 9.4-6.7 18-13.6 25.2-.2.3-.5.5-.8.8-.8.6-1.5 2.2-2.5 1.3-1.2-.9.2-1.9.8-2.7 4-5.3 7.3-11.1 9.9-17.3 1.5-3.5 2.8-7.1 4.1-10.6.4-1 .7-2.2 2.2-1.8 1.7.5 4.1.5 4.7 2.1.7 1.5-1.2.7-1.9.8zm-4.3-21.8c1.6-.3 2.2-.3 2.5.3.4.7-.1 1.2-.5 1.5-2.2 2-4.7 3.2-7.6 3.7-.4.1-1-.1-1.3-.4-.5-.5-.2-1.1.3-1.6 2.1-1.9 4.7-3.1 6.6-3.5zm-1.1-5.8c-.3 2.5-6.7 6.9-8.2 6.3-.9-.3-.9-1.1-.5-1.7 1.9-2.6 4.5-4.1 7.4-5 .9-.3 1.3.3 1.3.4zM362.2 473.4c0 .7.2 1.5-.7 1.9-.7.4-1.5.2-2-.3-2.9-2.8-5.8-5.6-8.2-8.8-.5-.6-.8-1.3-.3-2 .4-.6 1.2-.6 1.9-.6 3.8.4 9.2 6 9.3 9.8zm-7.8 3.6c0 1.9-1 2.5-2.4 1.4-3.3-2.6-5.9-5.8-8.5-9-.4-.6-.7-1.3-.1-2 .4-.5.9-.6 1.6-.5 3.8.3 9.4 6.4 9.4 10.1zm-18.4-5.3c4.4-.2 11 7 10.5 10.5-.2 1.4-1.1 2.1-2.2 1.1-3.4-2.8-6.5-5.9-8.9-9.6-.8-1.2 0-2 .6-2zm-20.3-84.6c-.1.6-.2 1.4-.4 2.2-.2.8-.5 1.7-1.5 1.6-.8 0-1.3-.6-1.5-1.3-1.4-3.5-2.8-7.1-3.6-10.8-.2-.9-.5-2 .7-2.4 1-.4 1.8.3 2.5 1.1 2.4 2.6 3.5 5.8 3.8 9.6zm9.3-.9c-.2.7-.3 1.8-.7 2.8-.7 1.6-1.9 1.6-2.6.2-1.7-3.7-3.2-7.6-3.9-11.7-.1-.7-.2-1.5.5-1.9.9-.5 1.6 0 2.2.6 3 2.5 4.1 5.9 4.5 10zm8.4.3c-.1.5-.2 1.4-.4 2.3-.1.6-.5 1.1-1.1 1.2-.8.2-1.4-.2-1.7-.9-1.6-3.7-3-7.4-3.8-11.4-.1-.8-.3-1.7.8-2.1.9-.3 1.6.2 2.2.8 2.5 2.7 3.8 6 4 10.1z" class="st4"/><path d="M367.4 657.4c-.1 2.4-1.3 3.7-3.7 3.7-2.3 0-3.5-1.3-3.6-3.5 0-2.2 1-3.6 3.3-3.7 2.4-.1 3.8 1 4 3.5zm-5.5-11.5c-.2 1.4-.8 2.3-2.2 2.5-1.5.2-2.6-.6-2.8-2.1-.2-1.5.8-2.6 2.2-2.7 1.6-.1 2.4 1 2.8 2.3z" class="st15"/><path d="M500.1 386.3c-3.8 7.3-8.1 14.3-12.5 21.2-.9 1.4-1.8 1.6-3.3 1-10.3-4.2-19.8-9.9-28.6-16.6-1.4-1-1.1-1.7-.3-2.9 8-11 14.7-22.8 21.1-34.7.9-1.7 1.5-2.2 3.3-1 4.3 2.9 8.9 5.5 13.7 7.6 1.5.7 1.8 1.4 1.1 3-2.1 4.1-3.8 8.5-6.1 12.5-1.6 2.7-1 4 1.6 5.2 3.3 1.4 6.6 3.1 10 4.7zm-23.4 1.8c.1-3.7-2.9-6.8-6.7-6.9-3.8-.1-6.9 2.9-6.9 6.7-.1 3.8 2.8 6.8 6.7 6.9 3.7 0 6.8-2.9 6.9-6.7zm5.3-14.3c1-.1 2.1.1 2.5-1 .3-.9-.1-1.6-.7-2.2-1.8-1.8-3.9-3.1-6.5-3.3-2.1-.1-2.6 1.1-1.6 2.7 1.4 2.3 3.6 3.6 6.3 3.8zm-8.5.6c-1 0-1.8-.1-2.3.8-.5.9 0 1.6.5 2.3 1.1 1.7 2.6 2.7 4.5 3.2 1.3.3 3.1 1 3.9-.5 1-1.7-.7-2.8-1.9-3.7-1.4-1.2-3-1.9-4.7-2.1zm8.4-13.7c-.8 0-1.7-.2-2.2.7-.4.8-.1 1.6.4 2.3 1 1.4 2.2 2.4 3.9 3 1.6.5 3.5 1.3 4.5-.3 1.2-1.9-.9-2.9-2.1-3.8-1.3-1-2.8-1.8-4.5-1.9zm8.4 29.7c-.1-2-1.2-3.5-3.2-3.7-2.1-.1-3.7 1.3-3.7 3.5 0 2 1.4 3.2 3.4 3.3 2.1.2 3.2-1 3.5-3.1zm-9.1 5.4c-1.8-.1-2.9 1.4-3 3.5-.1 2.1 1.5 3.3 3.4 3.3 2 .1 3.4-1.4 3.4-3.4.1-1.9-.9-3.4-3.8-3.4z" class="st14"/><path d="M504.4 370.8c.1 1.9-2.9 7.4-4 7.3-2-.3-4.1-.6-4.8-2.9-.4-1.5 3.4-7.5 4.4-7.1 1.6.6 3.7.7 4.4 2.7z" class="st14"/><path d="M565.6 394.2c.9-4.2-1.3-6.7-5.1-9 3.7-1 6.4-2.1 6.6-5.8.1-1.1 1.3-1 1.8-.1 1.3 2.6 3.3 3.5 6.1 3 .9-.1 1.2.5.9 1.4-.1.3-.3.7-.6.9-3.4 1.9 1 7.1-1.8 7.2-2.9.3-5.3.4-7.9 2.4z" class="st13"/><path d="M560.4 311.4c-.1 4.2-3.5 8.1-7 8-2.5-.1-4.4-2.4-4.4-5.5 0-4 3.5-8.2 6.9-8.2 2.7 0 4.5 2.4 4.5 5.7z" class="st14"/><path d="M653.1 218.6c-.2 1.7-1.2 2.7-3 2.8-1.7 0-2.4-.9-2.2-2.5.2-1.8 1.3-2.7 3.1-2.6 1.5 0 2 .8 2.1 2.3zm10.2-3.1c-1 .1-1.5-.4-1.6-1.4 0-.9.4-1.6 1.3-1.8.9-.2 1.6.3 1.7 1.2.2 1.1-.3 1.8-1.4 2z" class="st13"/><path d="M476.7 388.1c-.1 3.8-3.2 6.7-6.9 6.6-3.8-.1-6.7-3.1-6.7-6.9.1-3.7 3.1-6.7 6.9-6.7 3.8.2 6.8 3.3 6.7 7zm-4.3-.3c-.1-2.3-1.4-3.7-3.5-3.7s-3.6 1.3-3.6 3.5c0 2.1 1.4 3.4 3.3 3.5 2.1.1 3.5-1.1 3.8-3.3zm9.6-14c-2.7-.2-4.9-1.5-6.3-3.8-1-1.6-.5-2.8 1.6-2.7 2.6.1 4.7 1.5 6.5 3.3.6.6 1 1.4.7 2.2-.4 1.1-1.5.9-2.5 1zm-8.5.6c1.6.3 3.3.9 4.7 2.1 1.1.9 2.9 2 1.9 3.7-.8 1.5-2.6.8-3.9.5-1.9-.5-3.4-1.6-4.5-3.2-.4-.7-1-1.4-.5-2.3.5-.9 1.4-.8 2.3-.8zm8.4-13.7c1.7.1 3.2.9 4.5 1.9 1.2 1 3.3 2 2.1 3.8-1 1.6-3 .8-4.5.3-1.6-.6-2.9-1.6-3.9-3-.5-.7-.8-1.5-.4-2.3.5-.9 1.4-.7 2.2-.7z" class="st4"/><path d="M490.3 390.4c-.2 2.1-1.3 3.3-3.5 3.2-2-.1-3.5-1.3-3.4-3.3 0-2.1 1.6-3.6 3.7-3.5 1.9.1 3 1.6 3.2 3.6zm-9.1 5.4c2.8.1 3.9 1.5 3.8 3.4-.1 2-1.4 3.4-3.4 3.4-1.9-.1-3.5-1.2-3.4-3.3.1-2.2 1.2-3.6 3-3.5z" class="st2"/><path d="M472.4 387.8c-.3 2.2-1.7 3.4-3.8 3.3-1.9-.1-3.3-1.4-3.3-3.5 0-2.2 1.5-3.6 3.6-3.5 2.1 0 3.4 1.4 3.5 3.7z" class="st13"/></svg>
