<svg width="503" height="210" viewBox="0 0 503 210" fill="none" xmlns="http://www.w3.org/2000/svg">
<path d="M46.6966 1.656V0.3H52.4566V1.656H46.6966ZM113.864 1.656V0.3H119.624V1.656H113.864ZM181.031 1.656V0.3H186.791V1.656H181.031ZM248.198 1.656V0.3H253.958V1.656H248.198ZM315.365 1.656V0.3H321.125V1.656H315.365ZM382.533 1.656V0.3H388.293V1.656H382.533ZM449.7 1.656V0.3H455.46V1.656H449.7ZM27.5059 17.656V16.3H33.2659V17.656H27.5059ZM42.2012 17.44C40.9852 17.12 40.0452 16.556 39.3812 15.748C38.7172 14.932 38.3852 13.94 38.3852 12.772V10.6C38.3852 9.832 38.5372 9.136 38.8412 8.512C39.1532 7.88 39.5932 7.344 40.1612 6.904C40.7372 6.456 41.4172 6.128 42.2012 5.92V7.396C41.7292 7.508 41.3172 7.712 40.9652 8.008C40.6212 8.304 40.3572 8.672 40.1732 9.112C39.9892 9.552 39.8972 10.048 39.8972 10.6V12.772C39.8972 13.308 39.9892 13.796 40.1732 14.236C40.3572 14.668 40.6212 15.032 40.9652 15.328C41.3172 15.616 41.7292 15.816 42.2012 15.928V17.44ZM56.9519 17.44V15.928C57.4319 15.816 57.8439 15.616 58.1879 15.328C58.5319 15.032 58.7959 14.668 58.9799 14.236C59.1639 13.796 59.2559 13.308 59.2559 12.772V10.6C59.2559 10.048 59.1639 9.552 58.9799 9.112C58.7959 8.672 58.5319 8.304 58.1879 8.008C57.8439 7.712 57.4319 7.508 56.9519 7.396V5.92C57.7439 6.128 58.4239 6.456 58.9919 6.904C59.5599 7.344 59.9959 7.88 60.2999 8.512C60.6119 9.136 60.7679 9.832 60.7679 10.6V12.772C60.7679 13.94 60.4359 14.932 59.7719 15.748C59.1079 16.556 58.1679 17.12 56.9519 17.44ZM68.2825 17.656V16.3H81.2425V17.656H68.2825ZM94.6731 17.656V16.3H100.433V17.656H94.6731ZM109.368 17.44C108.152 17.12 107.212 16.556 106.548 15.748C105.884 14.932 105.552 13.94 105.552 12.772V10.6C105.552 9.832 105.704 9.136 106.008 8.512C106.32 7.88 106.76 7.344 107.328 6.904C107.904 6.456 108.584 6.128 109.368 5.92V7.396C108.896 7.508 108.484 7.712 108.132 8.008C107.788 8.304 107.524 8.672 107.34 9.112C107.156 9.552 107.064 10.048 107.064 10.6V12.772C107.064 13.308 107.156 13.796 107.34 14.236C107.524 14.668 107.788 15.032 108.132 15.328C108.484 15.616 108.896 15.816 109.368 15.928V17.44ZM124.119 17.44V15.928C124.599 15.816 125.011 15.616 125.355 15.328C125.699 15.032 125.963 14.668 126.147 14.236C126.331 13.796 126.423 13.308 126.423 12.772V10.6C126.423 10.048 126.331 9.552 126.147 9.112C125.963 8.672 125.699 8.304 125.355 8.008C125.011 7.712 124.599 7.508 124.119 7.396V5.92C124.911 6.128 125.591 6.456 126.159 6.904C126.727 7.344 127.163 7.88 127.467 8.512C127.779 9.136 127.935 9.832 127.935 10.6V12.772C127.935 13.94 127.603 14.932 126.939 15.748C126.275 16.556 125.335 17.12 124.119 17.44ZM135.45 17.656V16.3H148.41V17.656H135.45ZM161.84 17.656V16.3H167.6V17.656H161.84ZM176.536 17.44C175.32 17.12 174.38 16.556 173.716 15.748C173.052 14.932 172.72 13.94 172.72 12.772V10.6C172.72 9.832 172.872 9.136 173.176 8.512C173.488 7.88 173.928 7.344 174.496 6.904C175.072 6.456 175.752 6.128 176.536 5.92V7.396C176.064 7.508 175.652 7.712 175.3 8.008C174.956 8.304 174.692 8.672 174.508 9.112C174.324 9.552 174.232 10.048 174.232 10.6V12.772C174.232 13.308 174.324 13.796 174.508 14.236C174.692 14.668 174.956 15.032 175.3 15.328C175.652 15.616 176.064 15.816 176.536 15.928V17.44ZM191.286 17.44V15.928C191.766 15.816 192.178 15.616 192.522 15.328C192.866 15.032 193.13 14.668 193.314 14.236C193.498 13.796 193.59 13.308 193.59 12.772V10.6C193.59 10.048 193.498 9.552 193.314 9.112C193.13 8.672 192.866 8.304 192.522 8.008C192.178 7.712 191.766 7.508 191.286 7.396V5.92C192.078 6.128 192.758 6.456 193.326 6.904C193.894 7.344 194.33 7.88 194.634 8.512C194.946 9.136 195.102 9.832 195.102 10.6V12.772C195.102 13.94 194.77 14.932 194.106 15.748C193.442 16.556 192.502 17.12 191.286 17.44ZM202.617 17.656V16.3H215.577V17.656H202.617ZM229.008 17.656V16.3H234.768V17.656H229.008ZM243.703 17.44C242.487 17.12 241.547 16.556 240.883 15.748C240.219 14.932 239.887 13.94 239.887 12.772V10.6C239.887 9.832 240.039 9.136 240.343 8.512C240.655 7.88 241.095 7.344 241.663 6.904C242.239 6.456 242.919 6.128 243.703 5.92V7.396C243.231 7.508 242.819 7.712 242.467 8.008C242.123 8.304 241.859 8.672 241.675 9.112C241.491 9.552 241.399 10.048 241.399 10.6V12.772C241.399 13.308 241.491 13.796 241.675 14.236C241.859 14.668 242.123 15.032 242.467 15.328C242.819 15.616 243.231 15.816 243.703 15.928V17.44ZM258.453 17.44V15.928C258.933 15.816 259.345 15.616 259.689 15.328C260.033 15.032 260.297 14.668 260.481 14.236C260.665 13.796 260.757 13.308 260.757 12.772V10.6C260.757 10.048 260.665 9.552 260.481 9.112C260.297 8.672 260.033 8.304 259.689 8.008C259.345 7.712 258.933 7.508 258.453 7.396V5.92C259.245 6.128 259.925 6.456 260.493 6.904C261.061 7.344 261.497 7.88 261.801 8.512C262.113 9.136 262.269 9.832 262.269 10.6V12.772C262.269 13.94 261.937 14.932 261.273 15.748C260.609 16.556 259.669 17.12 258.453 17.44ZM269.784 17.656V16.3H282.744V17.656H269.784ZM296.175 17.656V16.3H301.935V17.656H296.175ZM310.87 17.44C309.654 17.12 308.714 16.556 308.05 15.748C307.386 14.932 307.054 13.94 307.054 12.772V10.6C307.054 9.832 307.206 9.136 307.51 8.512C307.822 7.88 308.262 7.344 308.83 6.904C309.406 6.456 310.086 6.128 310.87 5.92V7.396C310.398 7.508 309.986 7.712 309.634 8.008C309.29 8.304 309.026 8.672 308.842 9.112C308.658 9.552 308.566 10.048 308.566 10.6V12.772C308.566 13.308 308.658 13.796 308.842 14.236C309.026 14.668 309.29 15.032 309.634 15.328C309.986 15.616 310.398 15.816 310.87 15.928V17.44ZM325.621 17.44V15.928C326.101 15.816 326.513 15.616 326.857 15.328C327.201 15.032 327.465 14.668 327.649 14.236C327.833 13.796 327.925 13.308 327.925 12.772V10.6C327.925 10.048 327.833 9.552 327.649 9.112C327.465 8.672 327.201 8.304 326.857 8.008C326.513 7.712 326.101 7.508 325.621 7.396V5.92C326.413 6.128 327.093 6.456 327.661 6.904C328.229 7.344 328.665 7.88 328.969 8.512C329.281 9.136 329.437 9.832 329.437 10.6V12.772C329.437 13.94 329.105 14.932 328.441 15.748C327.777 16.556 326.837 17.12 325.621 17.44ZM336.951 17.656V16.3H349.911V17.656H336.951ZM363.342 17.656V16.3H369.102V17.656H363.342ZM378.037 17.44C376.821 17.12 375.881 16.556 375.217 15.748C374.553 14.932 374.221 13.94 374.221 12.772V10.6C374.221 9.832 374.373 9.136 374.677 8.512C374.989 7.88 375.429 7.344 375.997 6.904C376.573 6.456 377.253 6.128 378.037 5.92V7.396C377.565 7.508 377.153 7.712 376.801 8.008C376.457 8.304 376.193 8.672 376.009 9.112C375.825 9.552 375.733 10.048 375.733 10.6V12.772C375.733 13.308 375.825 13.796 376.009 14.236C376.193 14.668 376.457 15.032 376.801 15.328C377.153 15.616 377.565 15.816 378.037 15.928V17.44ZM392.788 17.44V15.928C393.268 15.816 393.68 15.616 394.024 15.328C394.368 15.032 394.632 14.668 394.816 14.236C395 13.796 395.092 13.308 395.092 12.772V10.6C395.092 10.048 395 9.552 394.816 9.112C394.632 8.672 394.368 8.304 394.024 8.008C393.68 7.712 393.268 7.508 392.788 7.396V5.92C393.58 6.128 394.26 6.456 394.828 6.904C395.396 7.344 395.832 7.88 396.136 8.512C396.448 9.136 396.604 9.832 396.604 10.6V12.772C396.604 13.94 396.272 14.932 395.608 15.748C394.944 16.556 394.004 17.12 392.788 17.44ZM404.118 17.656V16.3H417.078V17.656H404.118ZM430.509 17.656V16.3H436.269V17.656H430.509ZM445.204 17.44C443.988 17.12 443.048 16.556 442.384 15.748C441.72 14.932 441.388 13.94 441.388 12.772V10.6C441.388 9.832 441.54 9.136 441.844 8.512C442.156 7.88 442.596 7.344 443.164 6.904C443.74 6.456 444.42 6.128 445.204 5.92V7.396C444.732 7.508 444.32 7.712 443.968 8.008C443.624 8.304 443.36 8.672 443.176 9.112C442.992 9.552 442.9 10.048 442.9 10.6V12.772C442.9 13.308 442.992 13.796 443.176 14.236C443.36 14.668 443.624 15.032 443.968 15.328C444.32 15.616 444.732 15.816 445.204 15.928V17.44ZM459.955 17.44V15.928C460.435 15.816 460.847 15.616 461.191 15.328C461.535 15.032 461.799 14.668 461.983 14.236C462.167 13.796 462.259 13.308 462.259 12.772V10.6C462.259 10.048 462.167 9.552 461.983 9.112C461.799 8.672 461.535 8.304 461.191 8.008C460.847 7.712 460.435 7.508 459.955 7.396V5.92C460.747 6.128 461.427 6.456 461.995 6.904C462.563 7.344 462.999 7.88 463.303 8.512C463.615 9.136 463.771 9.832 463.771 10.6V12.772C463.771 13.94 463.439 14.932 462.775 15.748C462.111 16.556 461.171 17.12 459.955 17.44ZM471.286 17.656V16.3H484.246V17.656H471.286ZM8.31531 33.656V32.3H14.0753V33.656H8.31531ZM20.0346 33.32V22.04H21.5466V33.32H20.0346ZM75.4825 33.656V32.3H81.2425V33.656H75.4825ZM87.2018 33.32V22.04H88.7138V33.32H87.2018ZM142.65 33.656V32.3H148.41V33.656H142.65ZM154.369 33.32V22.04H155.881V33.32H154.369ZM209.817 33.656V32.3H215.577V33.656H209.817ZM221.536 33.32V22.04H223.048V33.32H221.536ZM276.984 33.656V32.3H282.744V33.656H276.984ZM288.703 33.32V22.04H290.215V33.32H288.703ZM344.151 33.656V32.3H349.911V33.656H344.151ZM355.871 33.32V22.04H357.383V33.32H355.871ZM411.318 33.656V32.3H417.078V33.656H411.318ZM423.038 33.32V22.04H424.55V33.32H423.038ZM478.486 33.656V32.3H484.246V33.656H478.486ZM490.205 33.32V22.04H491.717V33.32H490.205ZM3.82 49.44C2.604 49.12 1.664 48.556 1 47.748C0.336 46.932 0.00400013 45.94 0.00400013 44.772V42.6C0.00400013 41.832 0.156 41.136 0.46 40.512C0.772 39.88 1.212 39.344 1.78 38.904C2.356 38.456 3.036 38.128 3.82 37.92V39.396C3.348 39.508 2.936 39.712 2.584 40.008C2.24 40.304 1.976 40.672 1.792 41.112C1.608 41.552 1.516 42.048 1.516 42.6V44.772C1.516 45.308 1.608 45.796 1.792 46.236C1.976 46.668 2.24 47.032 2.584 47.328C2.936 47.616 3.348 47.816 3.82 47.928V49.44ZM8.31531 49.656V48.3H14.0753V49.656H8.31531ZM46.6966 49.656V48.3H52.4566V49.656H46.6966ZM70.9872 49.44C69.7712 49.12 68.8312 48.556 68.1672 47.748C67.5032 46.932 67.1712 45.94 67.1712 44.772V42.6C67.1712 41.832 67.3232 41.136 67.6272 40.512C67.9392 39.88 68.3792 39.344 68.9472 38.904C69.5232 38.456 70.2032 38.128 70.9872 37.92V39.396C70.5152 39.508 70.1032 39.712 69.7512 40.008C69.4072 40.304 69.1432 40.672 68.9592 41.112C68.7752 41.552 68.6832 42.048 68.6832 42.6V44.772C68.6832 45.308 68.7752 45.796 68.9592 46.236C69.1432 46.668 69.4072 47.032 69.7512 47.328C70.1032 47.616 70.5152 47.816 70.9872 47.928V49.44ZM75.4825 49.656V48.3H81.2425V49.656H75.4825ZM113.864 49.656V48.3H119.624V49.656H113.864ZM138.154 49.44C136.938 49.12 135.998 48.556 135.334 47.748C134.67 46.932 134.338 45.94 134.338 44.772V42.6C134.338 41.832 134.49 41.136 134.794 40.512C135.106 39.88 135.546 39.344 136.114 38.904C136.69 38.456 137.37 38.128 138.154 37.92V39.396C137.682 39.508 137.27 39.712 136.918 40.008C136.574 40.304 136.31 40.672 136.126 41.112C135.942 41.552 135.85 42.048 135.85 42.6V44.772C135.85 45.308 135.942 45.796 136.126 46.236C136.31 46.668 136.574 47.032 136.918 47.328C137.27 47.616 137.682 47.816 138.154 47.928V49.44ZM142.65 49.656V48.3H148.41V49.656H142.65ZM181.031 49.656V48.3H186.791V49.656H181.031ZM205.322 49.44C204.106 49.12 203.166 48.556 202.502 47.748C201.838 46.932 201.506 45.94 201.506 44.772V42.6C201.506 41.832 201.658 41.136 201.962 40.512C202.274 39.88 202.714 39.344 203.282 38.904C203.858 38.456 204.538 38.128 205.322 37.92V39.396C204.85 39.508 204.438 39.712 204.086 40.008C203.742 40.304 203.478 40.672 203.294 41.112C203.11 41.552 203.018 42.048 203.018 42.6V44.772C203.018 45.308 203.11 45.796 203.294 46.236C203.478 46.668 203.742 47.032 204.086 47.328C204.438 47.616 204.85 47.816 205.322 47.928V49.44ZM209.817 49.656V48.3H215.577V49.656H209.817ZM248.198 49.656V48.3H253.958V49.656H248.198ZM272.489 49.44C271.273 49.12 270.333 48.556 269.669 47.748C269.005 46.932 268.673 45.94 268.673 44.772V42.6C268.673 41.832 268.825 41.136 269.129 40.512C269.441 39.88 269.881 39.344 270.449 38.904C271.025 38.456 271.705 38.128 272.489 37.92V39.396C272.017 39.508 271.605 39.712 271.253 40.008C270.909 40.304 270.645 40.672 270.461 41.112C270.277 41.552 270.185 42.048 270.185 42.6V44.772C270.185 45.308 270.277 45.796 270.461 46.236C270.645 46.668 270.909 47.032 271.253 47.328C271.605 47.616 272.017 47.816 272.489 47.928V49.44ZM276.984 49.656V48.3H282.744V49.656H276.984ZM315.365 49.656V48.3H321.125V49.656H315.365ZM339.656 49.44C338.44 49.12 337.5 48.556 336.836 47.748C336.172 46.932 335.84 45.94 335.84 44.772V42.6C335.84 41.832 335.992 41.136 336.296 40.512C336.608 39.88 337.048 39.344 337.616 38.904C338.192 38.456 338.872 38.128 339.656 37.92V39.396C339.184 39.508 338.772 39.712 338.42 40.008C338.076 40.304 337.812 40.672 337.628 41.112C337.444 41.552 337.352 42.048 337.352 42.6V44.772C337.352 45.308 337.444 45.796 337.628 46.236C337.812 46.668 338.076 47.032 338.42 47.328C338.772 47.616 339.184 47.816 339.656 47.928V49.44ZM344.151 49.656V48.3H349.911V49.656H344.151ZM382.533 49.656V48.3H388.293V49.656H382.533ZM406.823 49.44C405.607 49.12 404.667 48.556 404.003 47.748C403.339 46.932 403.007 45.94 403.007 44.772V42.6C403.007 41.832 403.159 41.136 403.463 40.512C403.775 39.88 404.215 39.344 404.783 38.904C405.359 38.456 406.039 38.128 406.823 37.92V39.396C406.351 39.508 405.939 39.712 405.587 40.008C405.243 40.304 404.979 40.672 404.795 41.112C404.611 41.552 404.519 42.048 404.519 42.6V44.772C404.519 45.308 404.611 45.796 404.795 46.236C404.979 46.668 405.243 47.032 405.587 47.328C405.939 47.616 406.351 47.816 406.823 47.928V49.44ZM411.318 49.656V48.3H417.078V49.656H411.318ZM449.7 49.656V48.3H455.46V49.656H449.7ZM473.99 49.44C472.774 49.12 471.834 48.556 471.17 47.748C470.506 46.932 470.174 45.94 470.174 44.772V42.6C470.174 41.832 470.326 41.136 470.63 40.512C470.942 39.88 471.382 39.344 471.95 38.904C472.526 38.456 473.206 38.128 473.99 37.92V39.396C473.518 39.508 473.106 39.712 472.754 40.008C472.41 40.304 472.146 40.672 471.962 41.112C471.778 41.552 471.686 42.048 471.686 42.6V44.772C471.686 45.308 471.778 45.796 471.962 46.236C472.146 46.668 472.41 47.032 472.754 47.328C473.106 47.616 473.518 47.816 473.99 47.928V49.44ZM478.486 49.656V48.3H484.246V49.656H478.486ZM10.4393 65.32V54.04H11.9513V65.32H10.4393ZM20.3059 65.656V64.3H33.2659V65.656H20.3059ZM42.2012 65.44C40.9852 65.12 40.0452 64.556 39.3812 63.748C38.7172 62.932 38.3852 61.94 38.3852 60.772V58.6C38.3852 57.832 38.5372 57.136 38.8412 56.512C39.1532 55.88 39.5932 55.344 40.1612 54.904C40.7372 54.456 41.4172 54.128 42.2012 53.92V55.396C41.7292 55.508 41.3172 55.712 40.9652 56.008C40.6212 56.304 40.3572 56.672 40.1732 57.112C39.9892 57.552 39.8972 58.048 39.8972 58.6V60.772C39.8972 61.308 39.9892 61.796 40.1732 62.236C40.3572 62.668 40.6212 63.032 40.9652 63.328C41.3172 63.616 41.7292 63.816 42.2012 63.928V65.44ZM56.9519 65.44V63.928C57.4319 63.816 57.8439 63.616 58.1879 63.328C58.5319 63.032 58.7959 62.668 58.9799 62.236C59.1639 61.796 59.2559 61.308 59.2559 60.772V58.6C59.2559 58.048 59.1639 57.552 58.9799 57.112C58.7959 56.672 58.5319 56.304 58.1879 56.008C57.8439 55.712 57.4319 55.508 56.9519 55.396V53.92C57.7439 54.128 58.4239 54.456 58.9919 54.904C59.5599 55.344 59.9959 55.88 60.2999 56.512C60.6119 57.136 60.7679 57.832 60.7679 58.6V60.772C60.7679 61.94 60.4359 62.932 59.7719 63.748C59.1079 64.556 58.1679 65.12 56.9519 65.44ZM65.8872 65.656V64.3H71.6472V65.656H65.8872ZM77.6065 65.32V54.04H79.1185V65.32H77.6065ZM87.4731 65.656V64.3H100.433V65.656H87.4731ZM109.368 65.44C108.152 65.12 107.212 64.556 106.548 63.748C105.884 62.932 105.552 61.94 105.552 60.772V58.6C105.552 57.832 105.704 57.136 106.008 56.512C106.32 55.88 106.76 55.344 107.328 54.904C107.904 54.456 108.584 54.128 109.368 53.92V55.396C108.896 55.508 108.484 55.712 108.132 56.008C107.788 56.304 107.524 56.672 107.34 57.112C107.156 57.552 107.064 58.048 107.064 58.6V60.772C107.064 61.308 107.156 61.796 107.34 62.236C107.524 62.668 107.788 63.032 108.132 63.328C108.484 63.616 108.896 63.816 109.368 63.928V65.44ZM124.119 65.44V63.928C124.599 63.816 125.011 63.616 125.355 63.328C125.699 63.032 125.963 62.668 126.147 62.236C126.331 61.796 126.423 61.308 126.423 60.772V58.6C126.423 58.048 126.331 57.552 126.147 57.112C125.963 56.672 125.699 56.304 125.355 56.008C125.011 55.712 124.599 55.508 124.119 55.396V53.92C124.911 54.128 125.591 54.456 126.159 54.904C126.727 55.344 127.163 55.88 127.467 56.512C127.779 57.136 127.935 57.832 127.935 58.6V60.772C127.935 61.94 127.603 62.932 126.939 63.748C126.275 64.556 125.335 65.12 124.119 65.44ZM133.054 65.656V64.3H138.814V65.656H133.054ZM144.774 65.32V54.04H146.286V65.32H144.774ZM154.64 65.656V64.3H167.6V65.656H154.64ZM176.536 65.44C175.32 65.12 174.38 64.556 173.716 63.748C173.052 62.932 172.72 61.94 172.72 60.772V58.6C172.72 57.832 172.872 57.136 173.176 56.512C173.488 55.88 173.928 55.344 174.496 54.904C175.072 54.456 175.752 54.128 176.536 53.92V55.396C176.064 55.508 175.652 55.712 175.3 56.008C174.956 56.304 174.692 56.672 174.508 57.112C174.324 57.552 174.232 58.048 174.232 58.6V60.772C174.232 61.308 174.324 61.796 174.508 62.236C174.692 62.668 174.956 63.032 175.3 63.328C175.652 63.616 176.064 63.816 176.536 63.928V65.44ZM191.286 65.44V63.928C191.766 63.816 192.178 63.616 192.522 63.328C192.866 63.032 193.13 62.668 193.314 62.236C193.498 61.796 193.59 61.308 193.59 60.772V58.6C193.59 58.048 193.498 57.552 193.314 57.112C193.13 56.672 192.866 56.304 192.522 56.008C192.178 55.712 191.766 55.508 191.286 55.396V53.92C192.078 54.128 192.758 54.456 193.326 54.904C193.894 55.344 194.33 55.88 194.634 56.512C194.946 57.136 195.102 57.832 195.102 58.6V60.772C195.102 61.94 194.77 62.932 194.106 63.748C193.442 64.556 192.502 65.12 191.286 65.44ZM200.222 65.656V64.3H205.982V65.656H200.222ZM211.941 65.32V54.04H213.453V65.32H211.941ZM221.808 65.656V64.3H234.768V65.656H221.808ZM243.703 65.44C242.487 65.12 241.547 64.556 240.883 63.748C240.219 62.932 239.887 61.94 239.887 60.772V58.6C239.887 57.832 240.039 57.136 240.343 56.512C240.655 55.88 241.095 55.344 241.663 54.904C242.239 54.456 242.919 54.128 243.703 53.92V55.396C243.231 55.508 242.819 55.712 242.467 56.008C242.123 56.304 241.859 56.672 241.675 57.112C241.491 57.552 241.399 58.048 241.399 58.6V60.772C241.399 61.308 241.491 61.796 241.675 62.236C241.859 62.668 242.123 63.032 242.467 63.328C242.819 63.616 243.231 63.816 243.703 63.928V65.44ZM258.453 65.44V63.928C258.933 63.816 259.345 63.616 259.689 63.328C260.033 63.032 260.297 62.668 260.481 62.236C260.665 61.796 260.757 61.308 260.757 60.772V58.6C260.757 58.048 260.665 57.552 260.481 57.112C260.297 56.672 260.033 56.304 259.689 56.008C259.345 55.712 258.933 55.508 258.453 55.396V53.92C259.245 54.128 259.925 54.456 260.493 54.904C261.061 55.344 261.497 55.88 261.801 56.512C262.113 57.136 262.269 57.832 262.269 58.6V60.772C262.269 61.94 261.937 62.932 261.273 63.748C260.609 64.556 259.669 65.12 258.453 65.44ZM267.389 65.656V64.3H273.149V65.656H267.389ZM279.108 65.32V54.04H280.62V65.32H279.108ZM288.975 65.656V64.3H301.935V65.656H288.975ZM310.87 65.44C309.654 65.12 308.714 64.556 308.05 63.748C307.386 62.932 307.054 61.94 307.054 60.772V58.6C307.054 57.832 307.206 57.136 307.51 56.512C307.822 55.88 308.262 55.344 308.83 54.904C309.406 54.456 310.086 54.128 310.87 53.92V55.396C310.398 55.508 309.986 55.712 309.634 56.008C309.29 56.304 309.026 56.672 308.842 57.112C308.658 57.552 308.566 58.048 308.566 58.6V60.772C308.566 61.308 308.658 61.796 308.842 62.236C309.026 62.668 309.29 63.032 309.634 63.328C309.986 63.616 310.398 63.816 310.87 63.928V65.44ZM325.621 65.44V63.928C326.101 63.816 326.513 63.616 326.857 63.328C327.201 63.032 327.465 62.668 327.649 62.236C327.833 61.796 327.925 61.308 327.925 60.772V58.6C327.925 58.048 327.833 57.552 327.649 57.112C327.465 56.672 327.201 56.304 326.857 56.008C326.513 55.712 326.101 55.508 325.621 55.396V53.92C326.413 54.128 327.093 54.456 327.661 54.904C328.229 55.344 328.665 55.88 328.969 56.512C329.281 57.136 329.437 57.832 329.437 58.6V60.772C329.437 61.94 329.105 62.932 328.441 63.748C327.777 64.556 326.837 65.12 325.621 65.44ZM334.556 65.656V64.3H340.316V65.656H334.556ZM346.275 65.32V54.04H347.787V65.32H346.275ZM356.142 65.656V64.3H369.102V65.656H356.142ZM378.037 65.44C376.821 65.12 375.881 64.556 375.217 63.748C374.553 62.932 374.221 61.94 374.221 60.772V58.6C374.221 57.832 374.373 57.136 374.677 56.512C374.989 55.88 375.429 55.344 375.997 54.904C376.573 54.456 377.253 54.128 378.037 53.92V55.396C377.565 55.508 377.153 55.712 376.801 56.008C376.457 56.304 376.193 56.672 376.009 57.112C375.825 57.552 375.733 58.048 375.733 58.6V60.772C375.733 61.308 375.825 61.796 376.009 62.236C376.193 62.668 376.457 63.032 376.801 63.328C377.153 63.616 377.565 63.816 378.037 63.928V65.44ZM392.788 65.44V63.928C393.268 63.816 393.68 63.616 394.024 63.328C394.368 63.032 394.632 62.668 394.816 62.236C395 61.796 395.092 61.308 395.092 60.772V58.6C395.092 58.048 395 57.552 394.816 57.112C394.632 56.672 394.368 56.304 394.024 56.008C393.68 55.712 393.268 55.508 392.788 55.396V53.92C393.58 54.128 394.26 54.456 394.828 54.904C395.396 55.344 395.832 55.88 396.136 56.512C396.448 57.136 396.604 57.832 396.604 58.6V60.772C396.604 61.94 396.272 62.932 395.608 63.748C394.944 64.556 394.004 65.12 392.788 65.44ZM401.723 65.656V64.3H407.483V65.656H401.723ZM413.442 65.32V54.04H414.954V65.32H413.442ZM423.309 65.656V64.3H436.269V65.656H423.309ZM445.204 65.44C443.988 65.12 443.048 64.556 442.384 63.748C441.72 62.932 441.388 61.94 441.388 60.772V58.6C441.388 57.832 441.54 57.136 441.844 56.512C442.156 55.88 442.596 55.344 443.164 54.904C443.74 54.456 444.42 54.128 445.204 53.92V55.396C444.732 55.508 444.32 55.712 443.968 56.008C443.624 56.304 443.36 56.672 443.176 57.112C442.992 57.552 442.9 58.048 442.9 58.6V60.772C442.9 61.308 442.992 61.796 443.176 62.236C443.36 62.668 443.624 63.032 443.968 63.328C444.32 63.616 444.732 63.816 445.204 63.928V65.44ZM459.955 65.44V63.928C460.435 63.816 460.847 63.616 461.191 63.328C461.535 63.032 461.799 62.668 461.983 62.236C462.167 61.796 462.259 61.308 462.259 60.772V58.6C462.259 58.048 462.167 57.552 461.983 57.112C461.799 56.672 461.535 56.304 461.191 56.008C460.847 55.712 460.435 55.508 459.955 55.396V53.92C460.747 54.128 461.427 54.456 461.995 54.904C462.563 55.344 462.999 55.88 463.303 56.512C463.615 57.136 463.771 57.832 463.771 58.6V60.772C463.771 61.94 463.439 62.932 462.775 63.748C462.111 64.556 461.171 65.12 459.955 65.44ZM468.89 65.656V64.3H474.65V65.656H468.89ZM480.61 65.32V54.04H482.122V65.32H480.61ZM10.4393 81.32V70.04H11.9513V81.32H10.4393ZM17.9106 81.656V80.3H23.6706V81.656H17.9106ZM77.6065 81.32V70.04H79.1185V81.32H77.6065ZM85.0778 81.656V80.3H90.8378V81.656H85.0778ZM144.774 81.32V70.04H146.286V81.32H144.774ZM152.245 81.656V80.3H158.005V81.656H152.245ZM211.941 81.32V70.04H213.453V81.32H211.941ZM219.412 81.656V80.3H225.172V81.656H219.412ZM279.108 81.32V70.04H280.62V81.32H279.108ZM286.579 81.656V80.3H292.339V81.656H286.579ZM346.275 81.32V70.04H347.787V81.32H346.275ZM353.747 81.656V80.3H359.507V81.656H353.747ZM413.442 81.32V70.04H414.954V81.32H413.442ZM420.914 81.656V80.3H426.674V81.656H420.914ZM480.61 81.32V70.04H482.122V81.32H480.61ZM488.081 81.656V80.3H493.841V81.656H488.081ZM17.9106 97.656V96.3H23.6706V97.656H17.9106ZM28.1659 97.44V95.928C28.6459 95.816 29.0579 95.616 29.4019 95.328C29.7459 95.032 30.0099 94.668 30.1939 94.236C30.3779 93.796 30.4699 93.308 30.4699 92.772V90.6C30.4699 90.048 30.3779 89.552 30.1939 89.112C30.0099 88.672 29.7459 88.304 29.4019 88.008C29.0579 87.712 28.6459 87.508 28.1659 87.396V85.92C28.9579 86.128 29.6379 86.456 30.2059 86.904C30.7739 87.344 31.2099 87.88 31.5139 88.512C31.8259 89.136 31.9819 89.832 31.9819 90.6V92.772C31.9819 93.94 31.6499 94.932 30.9859 95.748C30.3219 96.556 29.3819 97.12 28.1659 97.44ZM46.6966 97.656V96.3H52.4566V97.656H46.6966ZM85.0778 97.656V96.3H90.8378V97.656H85.0778ZM95.3331 97.44V95.928C95.8131 95.816 96.2251 95.616 96.5691 95.328C96.9131 95.032 97.1771 94.668 97.3611 94.236C97.5451 93.796 97.6371 93.308 97.6371 92.772V90.6C97.6371 90.048 97.5451 89.552 97.3611 89.112C97.1771 88.672 96.9131 88.304 96.5691 88.008C96.2251 87.712 95.8131 87.508 95.3331 87.396V85.92C96.1251 86.128 96.8051 86.456 97.3731 86.904C97.9411 87.344 98.3771 87.88 98.6811 88.512C98.9931 89.136 99.1491 89.832 99.1491 90.6V92.772C99.1491 93.94 98.8171 94.932 98.1531 95.748C97.4891 96.556 96.5491 97.12 95.3331 97.44ZM113.864 97.656V96.3H119.624V97.656H113.864ZM152.245 97.656V96.3H158.005V97.656H152.245ZM162.5 97.44V95.928C162.98 95.816 163.392 95.616 163.736 95.328C164.08 95.032 164.344 94.668 164.528 94.236C164.712 93.796 164.804 93.308 164.804 92.772V90.6C164.804 90.048 164.712 89.552 164.528 89.112C164.344 88.672 164.08 88.304 163.736 88.008C163.392 87.712 162.98 87.508 162.5 87.396V85.92C163.292 86.128 163.972 86.456 164.54 86.904C165.108 87.344 165.544 87.88 165.848 88.512C166.16 89.136 166.316 89.832 166.316 90.6V92.772C166.316 93.94 165.984 94.932 165.32 95.748C164.656 96.556 163.716 97.12 162.5 97.44ZM181.031 97.656V96.3H186.791V97.656H181.031ZM219.412 97.656V96.3H225.172V97.656H219.412ZM229.668 97.44V95.928C230.148 95.816 230.56 95.616 230.904 95.328C231.248 95.032 231.512 94.668 231.696 94.236C231.88 93.796 231.972 93.308 231.972 92.772V90.6C231.972 90.048 231.88 89.552 231.696 89.112C231.512 88.672 231.248 88.304 230.904 88.008C230.56 87.712 230.148 87.508 229.668 87.396V85.92C230.46 86.128 231.14 86.456 231.708 86.904C232.276 87.344 232.712 87.88 233.016 88.512C233.328 89.136 233.484 89.832 233.484 90.6V92.772C233.484 93.94 233.152 94.932 232.488 95.748C231.824 96.556 230.884 97.12 229.668 97.44ZM248.198 97.656V96.3H253.958V97.656H248.198ZM286.579 97.656V96.3H292.339V97.656H286.579ZM296.835 97.44V95.928C297.315 95.816 297.727 95.616 298.071 95.328C298.415 95.032 298.679 94.668 298.863 94.236C299.047 93.796 299.139 93.308 299.139 92.772V90.6C299.139 90.048 299.047 89.552 298.863 89.112C298.679 88.672 298.415 88.304 298.071 88.008C297.727 87.712 297.315 87.508 296.835 87.396V85.92C297.627 86.128 298.307 86.456 298.875 86.904C299.443 87.344 299.879 87.88 300.183 88.512C300.495 89.136 300.651 89.832 300.651 90.6V92.772C300.651 93.94 300.319 94.932 299.655 95.748C298.991 96.556 298.051 97.12 296.835 97.44ZM315.365 97.656V96.3H321.125V97.656H315.365ZM353.747 97.656V96.3H359.507V97.656H353.747ZM364.002 97.44V95.928C364.482 95.816 364.894 95.616 365.238 95.328C365.582 95.032 365.846 94.668 366.03 94.236C366.214 93.796 366.306 93.308 366.306 92.772V90.6C366.306 90.048 366.214 89.552 366.03 89.112C365.846 88.672 365.582 88.304 365.238 88.008C364.894 87.712 364.482 87.508 364.002 87.396V85.92C364.794 86.128 365.474 86.456 366.042 86.904C366.61 87.344 367.046 87.88 367.35 88.512C367.662 89.136 367.818 89.832 367.818 90.6V92.772C367.818 93.94 367.486 94.932 366.822 95.748C366.158 96.556 365.218 97.12 364.002 97.44ZM382.533 97.656V96.3H388.293V97.656H382.533ZM420.914 97.656V96.3H426.674V97.656H420.914ZM431.169 97.44V95.928C431.649 95.816 432.061 95.616 432.405 95.328C432.749 95.032 433.013 94.668 433.197 94.236C433.381 93.796 433.473 93.308 433.473 92.772V90.6C433.473 90.048 433.381 89.552 433.197 89.112C433.013 88.672 432.749 88.304 432.405 88.008C432.061 87.712 431.649 87.508 431.169 87.396V85.92C431.961 86.128 432.641 86.456 433.209 86.904C433.777 87.344 434.213 87.88 434.517 88.512C434.829 89.136 434.985 89.832 434.985 90.6V92.772C434.985 93.94 434.653 94.932 433.989 95.748C433.325 96.556 432.385 97.12 431.169 97.44ZM449.7 97.656V96.3H455.46V97.656H449.7ZM488.081 97.656V96.3H493.841V97.656H488.081ZM498.336 97.44V95.928C498.816 95.816 499.228 95.616 499.572 95.328C499.916 95.032 500.18 94.668 500.364 94.236C500.548 93.796 500.64 93.308 500.64 92.772V90.6C500.64 90.048 500.548 89.552 500.364 89.112C500.18 88.672 499.916 88.304 499.572 88.008C499.228 87.712 498.816 87.508 498.336 87.396V85.92C499.128 86.128 499.808 86.456 500.376 86.904C500.944 87.344 501.38 87.88 501.684 88.512C501.996 89.136 502.152 89.832 502.152 90.6V92.772C502.152 93.94 501.82 94.932 501.156 95.748C500.492 96.556 499.552 97.12 498.336 97.44ZM10.4393 113.32V102.04H11.9513V113.32H10.4393ZM20.3059 113.656V112.3H33.2659V113.656H20.3059ZM42.2012 113.44C40.9852 113.12 40.0452 112.556 39.3812 111.748C38.7172 110.932 38.3852 109.94 38.3852 108.772V106.6C38.3852 105.832 38.5372 105.136 38.8412 104.512C39.1532 103.88 39.5932 103.344 40.1612 102.904C40.7372 102.456 41.4172 102.128 42.2012 101.92V103.396C41.7292 103.508 41.3172 103.712 40.9652 104.008C40.6212 104.304 40.3572 104.672 40.1732 105.112C39.9892 105.552 39.8972 106.048 39.8972 106.6V108.772C39.8972 109.308 39.9892 109.796 40.1732 110.236C40.3572 110.668 40.6212 111.032 40.9652 111.328C41.3172 111.616 41.7292 111.816 42.2012 111.928V113.44ZM56.9519 113.44V111.928C57.4319 111.816 57.8439 111.616 58.1879 111.328C58.5319 111.032 58.7959 110.668 58.9799 110.236C59.1639 109.796 59.2559 109.308 59.2559 108.772V106.6C59.2559 106.048 59.1639 105.552 58.9799 105.112C58.7959 104.672 58.5319 104.304 58.1879 104.008C57.8439 103.712 57.4319 103.508 56.9519 103.396V101.92C57.7439 102.128 58.4239 102.456 58.9919 102.904C59.5599 103.344 59.9959 103.88 60.2999 104.512C60.6119 105.136 60.7679 105.832 60.7679 106.6V108.772C60.7679 109.94 60.4359 110.932 59.7719 111.748C59.1079 112.556 58.1679 113.12 56.9519 113.44ZM65.8872 113.656V112.3H71.6472V113.656H65.8872ZM77.6065 113.32V102.04H79.1185V113.32H77.6065ZM87.4731 113.656V112.3H100.433V113.656H87.4731ZM109.368 113.44C108.152 113.12 107.212 112.556 106.548 111.748C105.884 110.932 105.552 109.94 105.552 108.772V106.6C105.552 105.832 105.704 105.136 106.008 104.512C106.32 103.88 106.76 103.344 107.328 102.904C107.904 102.456 108.584 102.128 109.368 101.92V103.396C108.896 103.508 108.484 103.712 108.132 104.008C107.788 104.304 107.524 104.672 107.34 105.112C107.156 105.552 107.064 106.048 107.064 106.6V108.772C107.064 109.308 107.156 109.796 107.34 110.236C107.524 110.668 107.788 111.032 108.132 111.328C108.484 111.616 108.896 111.816 109.368 111.928V113.44ZM124.119 113.44V111.928C124.599 111.816 125.011 111.616 125.355 111.328C125.699 111.032 125.963 110.668 126.147 110.236C126.331 109.796 126.423 109.308 126.423 108.772V106.6C126.423 106.048 126.331 105.552 126.147 105.112C125.963 104.672 125.699 104.304 125.355 104.008C125.011 103.712 124.599 103.508 124.119 103.396V101.92C124.911 102.128 125.591 102.456 126.159 102.904C126.727 103.344 127.163 103.88 127.467 104.512C127.779 105.136 127.935 105.832 127.935 106.6V108.772C127.935 109.94 127.603 110.932 126.939 111.748C126.275 112.556 125.335 113.12 124.119 113.44ZM133.054 113.656V112.3H138.814V113.656H133.054ZM144.774 113.32V102.04H146.286V113.32H144.774ZM154.64 113.656V112.3H167.6V113.656H154.64ZM176.536 113.44C175.32 113.12 174.38 112.556 173.716 111.748C173.052 110.932 172.72 109.94 172.72 108.772V106.6C172.72 105.832 172.872 105.136 173.176 104.512C173.488 103.88 173.928 103.344 174.496 102.904C175.072 102.456 175.752 102.128 176.536 101.92V103.396C176.064 103.508 175.652 103.712 175.3 104.008C174.956 104.304 174.692 104.672 174.508 105.112C174.324 105.552 174.232 106.048 174.232 106.6V108.772C174.232 109.308 174.324 109.796 174.508 110.236C174.692 110.668 174.956 111.032 175.3 111.328C175.652 111.616 176.064 111.816 176.536 111.928V113.44ZM191.286 113.44V111.928C191.766 111.816 192.178 111.616 192.522 111.328C192.866 111.032 193.13 110.668 193.314 110.236C193.498 109.796 193.59 109.308 193.59 108.772V106.6C193.59 106.048 193.498 105.552 193.314 105.112C193.13 104.672 192.866 104.304 192.522 104.008C192.178 103.712 191.766 103.508 191.286 103.396V101.92C192.078 102.128 192.758 102.456 193.326 102.904C193.894 103.344 194.33 103.88 194.634 104.512C194.946 105.136 195.102 105.832 195.102 106.6V108.772C195.102 109.94 194.77 110.932 194.106 111.748C193.442 112.556 192.502 113.12 191.286 113.44ZM200.222 113.656V112.3H205.982V113.656H200.222ZM211.941 113.32V102.04H213.453V113.32H211.941ZM221.808 113.656V112.3H234.768V113.656H221.808ZM243.703 113.44C242.487 113.12 241.547 112.556 240.883 111.748C240.219 110.932 239.887 109.94 239.887 108.772V106.6C239.887 105.832 240.039 105.136 240.343 104.512C240.655 103.88 241.095 103.344 241.663 102.904C242.239 102.456 242.919 102.128 243.703 101.92V103.396C243.231 103.508 242.819 103.712 242.467 104.008C242.123 104.304 241.859 104.672 241.675 105.112C241.491 105.552 241.399 106.048 241.399 106.6V108.772C241.399 109.308 241.491 109.796 241.675 110.236C241.859 110.668 242.123 111.032 242.467 111.328C242.819 111.616 243.231 111.816 243.703 111.928V113.44ZM258.453 113.44V111.928C258.933 111.816 259.345 111.616 259.689 111.328C260.033 111.032 260.297 110.668 260.481 110.236C260.665 109.796 260.757 109.308 260.757 108.772V106.6C260.757 106.048 260.665 105.552 260.481 105.112C260.297 104.672 260.033 104.304 259.689 104.008C259.345 103.712 258.933 103.508 258.453 103.396V101.92C259.245 102.128 259.925 102.456 260.493 102.904C261.061 103.344 261.497 103.88 261.801 104.512C262.113 105.136 262.269 105.832 262.269 106.6V108.772C262.269 109.94 261.937 110.932 261.273 111.748C260.609 112.556 259.669 113.12 258.453 113.44ZM267.389 113.656V112.3H273.149V113.656H267.389ZM279.108 113.32V102.04H280.62V113.32H279.108ZM288.975 113.656V112.3H301.935V113.656H288.975ZM310.87 113.44C309.654 113.12 308.714 112.556 308.05 111.748C307.386 110.932 307.054 109.94 307.054 108.772V106.6C307.054 105.832 307.206 105.136 307.51 104.512C307.822 103.88 308.262 103.344 308.83 102.904C309.406 102.456 310.086 102.128 310.87 101.92V103.396C310.398 103.508 309.986 103.712 309.634 104.008C309.29 104.304 309.026 104.672 308.842 105.112C308.658 105.552 308.566 106.048 308.566 106.6V108.772C308.566 109.308 308.658 109.796 308.842 110.236C309.026 110.668 309.29 111.032 309.634 111.328C309.986 111.616 310.398 111.816 310.87 111.928V113.44ZM325.621 113.44V111.928C326.101 111.816 326.513 111.616 326.857 111.328C327.201 111.032 327.465 110.668 327.649 110.236C327.833 109.796 327.925 109.308 327.925 108.772V106.6C327.925 106.048 327.833 105.552 327.649 105.112C327.465 104.672 327.201 104.304 326.857 104.008C326.513 103.712 326.101 103.508 325.621 103.396V101.92C326.413 102.128 327.093 102.456 327.661 102.904C328.229 103.344 328.665 103.88 328.969 104.512C329.281 105.136 329.437 105.832 329.437 106.6V108.772C329.437 109.94 329.105 110.932 328.441 111.748C327.777 112.556 326.837 113.12 325.621 113.44ZM334.556 113.656V112.3H340.316V113.656H334.556ZM346.275 113.32V102.04H347.787V113.32H346.275ZM356.142 113.656V112.3H369.102V113.656H356.142ZM378.037 113.44C376.821 113.12 375.881 112.556 375.217 111.748C374.553 110.932 374.221 109.94 374.221 108.772V106.6C374.221 105.832 374.373 105.136 374.677 104.512C374.989 103.88 375.429 103.344 375.997 102.904C376.573 102.456 377.253 102.128 378.037 101.92V103.396C377.565 103.508 377.153 103.712 376.801 104.008C376.457 104.304 376.193 104.672 376.009 105.112C375.825 105.552 375.733 106.048 375.733 106.6V108.772C375.733 109.308 375.825 109.796 376.009 110.236C376.193 110.668 376.457 111.032 376.801 111.328C377.153 111.616 377.565 111.816 378.037 111.928V113.44ZM392.788 113.44V111.928C393.268 111.816 393.68 111.616 394.024 111.328C394.368 111.032 394.632 110.668 394.816 110.236C395 109.796 395.092 109.308 395.092 108.772V106.6C395.092 106.048 395 105.552 394.816 105.112C394.632 104.672 394.368 104.304 394.024 104.008C393.68 103.712 393.268 103.508 392.788 103.396V101.92C393.58 102.128 394.26 102.456 394.828 102.904C395.396 103.344 395.832 103.88 396.136 104.512C396.448 105.136 396.604 105.832 396.604 106.6V108.772C396.604 109.94 396.272 110.932 395.608 111.748C394.944 112.556 394.004 113.12 392.788 113.44ZM401.723 113.656V112.3H407.483V113.656H401.723ZM413.442 113.32V102.04H414.954V113.32H413.442ZM423.309 113.656V112.3H436.269V113.656H423.309ZM445.204 113.44C443.988 113.12 443.048 112.556 442.384 111.748C441.72 110.932 441.388 109.94 441.388 108.772V106.6C441.388 105.832 441.54 105.136 441.844 104.512C442.156 103.88 442.596 103.344 443.164 102.904C443.74 102.456 444.42 102.128 445.204 101.92V103.396C444.732 103.508 444.32 103.712 443.968 104.008C443.624 104.304 443.36 104.672 443.176 105.112C442.992 105.552 442.9 106.048 442.9 106.6V108.772C442.9 109.308 442.992 109.796 443.176 110.236C443.36 110.668 443.624 111.032 443.968 111.328C444.32 111.616 444.732 111.816 445.204 111.928V113.44ZM459.955 113.44V111.928C460.435 111.816 460.847 111.616 461.191 111.328C461.535 111.032 461.799 110.668 461.983 110.236C462.167 109.796 462.259 109.308 462.259 108.772V106.6C462.259 106.048 462.167 105.552 461.983 105.112C461.799 104.672 461.535 104.304 461.191 104.008C460.847 103.712 460.435 103.508 459.955 103.396V101.92C460.747 102.128 461.427 102.456 461.995 102.904C462.563 103.344 462.999 103.88 463.303 104.512C463.615 105.136 463.771 105.832 463.771 106.6V108.772C463.771 109.94 463.439 110.932 462.775 111.748C462.111 112.556 461.171 113.12 459.955 113.44ZM468.89 113.656V112.3H474.65V113.656H468.89ZM480.61 113.32V102.04H482.122V113.32H480.61ZM8.31531 129.656V128.3H14.0753V129.656H8.31531ZM20.0346 129.32V118.04H21.5466V129.32H20.0346ZM75.4825 129.656V128.3H81.2425V129.656H75.4825ZM87.2018 129.32V118.04H88.7138V129.32H87.2018ZM142.65 129.656V128.3H148.41V129.656H142.65ZM154.369 129.32V118.04H155.881V129.32H154.369ZM209.817 129.656V128.3H215.577V129.656H209.817ZM221.536 129.32V118.04H223.048V129.32H221.536ZM276.984 129.656V128.3H282.744V129.656H276.984ZM288.703 129.32V118.04H290.215V129.32H288.703ZM344.151 129.656V128.3H349.911V129.656H344.151ZM355.871 129.32V118.04H357.383V129.32H355.871ZM411.318 129.656V128.3H417.078V129.656H411.318ZM423.038 129.32V118.04H424.55V129.32H423.038ZM478.486 129.656V128.3H484.246V129.656H478.486ZM490.205 129.32V118.04H491.717V129.32H490.205ZM3.82 145.44C2.604 145.12 1.664 144.556 1 143.748C0.336 142.932 0.00400013 141.94 0.00400013 140.772V138.6C0.00400013 137.832 0.156 137.136 0.46 136.512C0.772 135.88 1.212 135.344 1.78 134.904C2.356 134.456 3.036 134.128 3.82 133.92V135.396C3.348 135.508 2.936 135.712 2.584 136.008C2.24 136.304 1.976 136.672 1.792 137.112C1.608 137.552 1.516 138.048 1.516 138.6V140.772C1.516 141.308 1.608 141.796 1.792 142.236C1.976 142.668 2.24 143.032 2.584 143.328C2.936 143.616 3.348 143.816 3.82 143.928V145.44ZM8.31531 145.656V144.3H14.0753V145.656H8.31531ZM46.6966 145.656V144.3H52.4566V145.656H46.6966ZM70.9872 145.44C69.7712 145.12 68.8312 144.556 68.1672 143.748C67.5032 142.932 67.1712 141.94 67.1712 140.772V138.6C67.1712 137.832 67.3232 137.136 67.6272 136.512C67.9392 135.88 68.3792 135.344 68.9472 134.904C69.5232 134.456 70.2032 134.128 70.9872 133.92V135.396C70.5152 135.508 70.1032 135.712 69.7512 136.008C69.4072 136.304 69.1432 136.672 68.9592 137.112C68.7752 137.552 68.6832 138.048 68.6832 138.6V140.772C68.6832 141.308 68.7752 141.796 68.9592 142.236C69.1432 142.668 69.4072 143.032 69.7512 143.328C70.1032 143.616 70.5152 143.816 70.9872 143.928V145.44ZM75.4825 145.656V144.3H81.2425V145.656H75.4825ZM113.864 145.656V144.3H119.624V145.656H113.864ZM138.154 145.44C136.938 145.12 135.998 144.556 135.334 143.748C134.67 142.932 134.338 141.94 134.338 140.772V138.6C134.338 137.832 134.49 137.136 134.794 136.512C135.106 135.88 135.546 135.344 136.114 134.904C136.69 134.456 137.37 134.128 138.154 133.92V135.396C137.682 135.508 137.27 135.712 136.918 136.008C136.574 136.304 136.31 136.672 136.126 137.112C135.942 137.552 135.85 138.048 135.85 138.6V140.772C135.85 141.308 135.942 141.796 136.126 142.236C136.31 142.668 136.574 143.032 136.918 143.328C137.27 143.616 137.682 143.816 138.154 143.928V145.44ZM142.65 145.656V144.3H148.41V145.656H142.65ZM181.031 145.656V144.3H186.791V145.656H181.031ZM205.322 145.44C204.106 145.12 203.166 144.556 202.502 143.748C201.838 142.932 201.506 141.94 201.506 140.772V138.6C201.506 137.832 201.658 137.136 201.962 136.512C202.274 135.88 202.714 135.344 203.282 134.904C203.858 134.456 204.538 134.128 205.322 133.92V135.396C204.85 135.508 204.438 135.712 204.086 136.008C203.742 136.304 203.478 136.672 203.294 137.112C203.11 137.552 203.018 138.048 203.018 138.6V140.772C203.018 141.308 203.11 141.796 203.294 142.236C203.478 142.668 203.742 143.032 204.086 143.328C204.438 143.616 204.85 143.816 205.322 143.928V145.44ZM209.817 145.656V144.3H215.577V145.656H209.817ZM248.198 145.656V144.3H253.958V145.656H248.198ZM272.489 145.44C271.273 145.12 270.333 144.556 269.669 143.748C269.005 142.932 268.673 141.94 268.673 140.772V138.6C268.673 137.832 268.825 137.136 269.129 136.512C269.441 135.88 269.881 135.344 270.449 134.904C271.025 134.456 271.705 134.128 272.489 133.92V135.396C272.017 135.508 271.605 135.712 271.253 136.008C270.909 136.304 270.645 136.672 270.461 137.112C270.277 137.552 270.185 138.048 270.185 138.6V140.772C270.185 141.308 270.277 141.796 270.461 142.236C270.645 142.668 270.909 143.032 271.253 143.328C271.605 143.616 272.017 143.816 272.489 143.928V145.44ZM276.984 145.656V144.3H282.744V145.656H276.984ZM315.365 145.656V144.3H321.125V145.656H315.365ZM339.656 145.44C338.44 145.12 337.5 144.556 336.836 143.748C336.172 142.932 335.84 141.94 335.84 140.772V138.6C335.84 137.832 335.992 137.136 336.296 136.512C336.608 135.88 337.048 135.344 337.616 134.904C338.192 134.456 338.872 134.128 339.656 133.92V135.396C339.184 135.508 338.772 135.712 338.42 136.008C338.076 136.304 337.812 136.672 337.628 137.112C337.444 137.552 337.352 138.048 337.352 138.6V140.772C337.352 141.308 337.444 141.796 337.628 142.236C337.812 142.668 338.076 143.032 338.42 143.328C338.772 143.616 339.184 143.816 339.656 143.928V145.44ZM344.151 145.656V144.3H349.911V145.656H344.151ZM382.533 145.656V144.3H388.293V145.656H382.533ZM406.823 145.44C405.607 145.12 404.667 144.556 404.003 143.748C403.339 142.932 403.007 141.94 403.007 140.772V138.6C403.007 137.832 403.159 137.136 403.463 136.512C403.775 135.88 404.215 135.344 404.783 134.904C405.359 134.456 406.039 134.128 406.823 133.92V135.396C406.351 135.508 405.939 135.712 405.587 136.008C405.243 136.304 404.979 136.672 404.795 137.112C404.611 137.552 404.519 138.048 404.519 138.6V140.772C404.519 141.308 404.611 141.796 404.795 142.236C404.979 142.668 405.243 143.032 405.587 143.328C405.939 143.616 406.351 143.816 406.823 143.928V145.44ZM411.318 145.656V144.3H417.078V145.656H411.318ZM449.7 145.656V144.3H455.46V145.656H449.7ZM473.99 145.44C472.774 145.12 471.834 144.556 471.17 143.748C470.506 142.932 470.174 141.94 470.174 140.772V138.6C470.174 137.832 470.326 137.136 470.63 136.512C470.942 135.88 471.382 135.344 471.95 134.904C472.526 134.456 473.206 134.128 473.99 133.92V135.396C473.518 135.508 473.106 135.712 472.754 136.008C472.41 136.304 472.146 136.672 471.962 137.112C471.778 137.552 471.686 138.048 471.686 138.6V140.772C471.686 141.308 471.778 141.796 471.962 142.236C472.146 142.668 472.41 143.032 472.754 143.328C473.106 143.616 473.518 143.816 473.99 143.928V145.44ZM478.486 145.656V144.3H484.246V145.656H478.486ZM10.4393 161.32V150.04H11.9513V161.32H10.4393ZM20.3059 161.656V160.3H33.2659V161.656H20.3059ZM42.2012 161.44C40.9852 161.12 40.0452 160.556 39.3812 159.748C38.7172 158.932 38.3852 157.94 38.3852 156.772V154.6C38.3852 153.832 38.5372 153.136 38.8412 152.512C39.1532 151.88 39.5932 151.344 40.1612 150.904C40.7372 150.456 41.4172 150.128 42.2012 149.92V151.396C41.7292 151.508 41.3172 151.712 40.9652 152.008C40.6212 152.304 40.3572 152.672 40.1732 153.112C39.9892 153.552 39.8972 154.048 39.8972 154.6V156.772C39.8972 157.308 39.9892 157.796 40.1732 158.236C40.3572 158.668 40.6212 159.032 40.9652 159.328C41.3172 159.616 41.7292 159.816 42.2012 159.928V161.44ZM56.9519 161.44V159.928C57.4319 159.816 57.8439 159.616 58.1879 159.328C58.5319 159.032 58.7959 158.668 58.9799 158.236C59.1639 157.796 59.2559 157.308 59.2559 156.772V154.6C59.2559 154.048 59.1639 153.552 58.9799 153.112C58.7959 152.672 58.5319 152.304 58.1879 152.008C57.8439 151.712 57.4319 151.508 56.9519 151.396V149.92C57.7439 150.128 58.4239 150.456 58.9919 150.904C59.5599 151.344 59.9959 151.88 60.2999 152.512C60.6119 153.136 60.7679 153.832 60.7679 154.6V156.772C60.7679 157.94 60.4359 158.932 59.7719 159.748C59.1079 160.556 58.1679 161.12 56.9519 161.44ZM65.8872 161.656V160.3H71.6472V161.656H65.8872ZM77.6065 161.32V150.04H79.1185V161.32H77.6065ZM87.4731 161.656V160.3H100.433V161.656H87.4731ZM109.368 161.44C108.152 161.12 107.212 160.556 106.548 159.748C105.884 158.932 105.552 157.94 105.552 156.772V154.6C105.552 153.832 105.704 153.136 106.008 152.512C106.32 151.88 106.76 151.344 107.328 150.904C107.904 150.456 108.584 150.128 109.368 149.92V151.396C108.896 151.508 108.484 151.712 108.132 152.008C107.788 152.304 107.524 152.672 107.34 153.112C107.156 153.552 107.064 154.048 107.064 154.6V156.772C107.064 157.308 107.156 157.796 107.34 158.236C107.524 158.668 107.788 159.032 108.132 159.328C108.484 159.616 108.896 159.816 109.368 159.928V161.44ZM124.119 161.44V159.928C124.599 159.816 125.011 159.616 125.355 159.328C125.699 159.032 125.963 158.668 126.147 158.236C126.331 157.796 126.423 157.308 126.423 156.772V154.6C126.423 154.048 126.331 153.552 126.147 153.112C125.963 152.672 125.699 152.304 125.355 152.008C125.011 151.712 124.599 151.508 124.119 151.396V149.92C124.911 150.128 125.591 150.456 126.159 150.904C126.727 151.344 127.163 151.88 127.467 152.512C127.779 153.136 127.935 153.832 127.935 154.6V156.772C127.935 157.94 127.603 158.932 126.939 159.748C126.275 160.556 125.335 161.12 124.119 161.44ZM133.054 161.656V160.3H138.814V161.656H133.054ZM144.774 161.32V150.04H146.286V161.32H144.774ZM154.64 161.656V160.3H167.6V161.656H154.64ZM176.536 161.44C175.32 161.12 174.38 160.556 173.716 159.748C173.052 158.932 172.72 157.94 172.72 156.772V154.6C172.72 153.832 172.872 153.136 173.176 152.512C173.488 151.88 173.928 151.344 174.496 150.904C175.072 150.456 175.752 150.128 176.536 149.92V151.396C176.064 151.508 175.652 151.712 175.3 152.008C174.956 152.304 174.692 152.672 174.508 153.112C174.324 153.552 174.232 154.048 174.232 154.6V156.772C174.232 157.308 174.324 157.796 174.508 158.236C174.692 158.668 174.956 159.032 175.3 159.328C175.652 159.616 176.064 159.816 176.536 159.928V161.44ZM191.286 161.44V159.928C191.766 159.816 192.178 159.616 192.522 159.328C192.866 159.032 193.13 158.668 193.314 158.236C193.498 157.796 193.59 157.308 193.59 156.772V154.6C193.59 154.048 193.498 153.552 193.314 153.112C193.13 152.672 192.866 152.304 192.522 152.008C192.178 151.712 191.766 151.508 191.286 151.396V149.92C192.078 150.128 192.758 150.456 193.326 150.904C193.894 151.344 194.33 151.88 194.634 152.512C194.946 153.136 195.102 153.832 195.102 154.6V156.772C195.102 157.94 194.77 158.932 194.106 159.748C193.442 160.556 192.502 161.12 191.286 161.44ZM200.222 161.656V160.3H205.982V161.656H200.222ZM211.941 161.32V150.04H213.453V161.32H211.941ZM221.808 161.656V160.3H234.768V161.656H221.808ZM243.703 161.44C242.487 161.12 241.547 160.556 240.883 159.748C240.219 158.932 239.887 157.94 239.887 156.772V154.6C239.887 153.832 240.039 153.136 240.343 152.512C240.655 151.88 241.095 151.344 241.663 150.904C242.239 150.456 242.919 150.128 243.703 149.92V151.396C243.231 151.508 242.819 151.712 242.467 152.008C242.123 152.304 241.859 152.672 241.675 153.112C241.491 153.552 241.399 154.048 241.399 154.6V156.772C241.399 157.308 241.491 157.796 241.675 158.236C241.859 158.668 242.123 159.032 242.467 159.328C242.819 159.616 243.231 159.816 243.703 159.928V161.44ZM258.453 161.44V159.928C258.933 159.816 259.345 159.616 259.689 159.328C260.033 159.032 260.297 158.668 260.481 158.236C260.665 157.796 260.757 157.308 260.757 156.772V154.6C260.757 154.048 260.665 153.552 260.481 153.112C260.297 152.672 260.033 152.304 259.689 152.008C259.345 151.712 258.933 151.508 258.453 151.396V149.92C259.245 150.128 259.925 150.456 260.493 150.904C261.061 151.344 261.497 151.88 261.801 152.512C262.113 153.136 262.269 153.832 262.269 154.6V156.772C262.269 157.94 261.937 158.932 261.273 159.748C260.609 160.556 259.669 161.12 258.453 161.44ZM267.389 161.656V160.3H273.149V161.656H267.389ZM279.108 161.32V150.04H280.62V161.32H279.108ZM288.975 161.656V160.3H301.935V161.656H288.975ZM310.87 161.44C309.654 161.12 308.714 160.556 308.05 159.748C307.386 158.932 307.054 157.94 307.054 156.772V154.6C307.054 153.832 307.206 153.136 307.51 152.512C307.822 151.88 308.262 151.344 308.83 150.904C309.406 150.456 310.086 150.128 310.87 149.92V151.396C310.398 151.508 309.986 151.712 309.634 152.008C309.29 152.304 309.026 152.672 308.842 153.112C308.658 153.552 308.566 154.048 308.566 154.6V156.772C308.566 157.308 308.658 157.796 308.842 158.236C309.026 158.668 309.29 159.032 309.634 159.328C309.986 159.616 310.398 159.816 310.87 159.928V161.44ZM325.621 161.44V159.928C326.101 159.816 326.513 159.616 326.857 159.328C327.201 159.032 327.465 158.668 327.649 158.236C327.833 157.796 327.925 157.308 327.925 156.772V154.6C327.925 154.048 327.833 153.552 327.649 153.112C327.465 152.672 327.201 152.304 326.857 152.008C326.513 151.712 326.101 151.508 325.621 151.396V149.92C326.413 150.128 327.093 150.456 327.661 150.904C328.229 151.344 328.665 151.88 328.969 152.512C329.281 153.136 329.437 153.832 329.437 154.6V156.772C329.437 157.94 329.105 158.932 328.441 159.748C327.777 160.556 326.837 161.12 325.621 161.44ZM334.556 161.656V160.3H340.316V161.656H334.556ZM346.275 161.32V150.04H347.787V161.32H346.275ZM356.142 161.656V160.3H369.102V161.656H356.142ZM378.037 161.44C376.821 161.12 375.881 160.556 375.217 159.748C374.553 158.932 374.221 157.94 374.221 156.772V154.6C374.221 153.832 374.373 153.136 374.677 152.512C374.989 151.88 375.429 151.344 375.997 150.904C376.573 150.456 377.253 150.128 378.037 149.92V151.396C377.565 151.508 377.153 151.712 376.801 152.008C376.457 152.304 376.193 152.672 376.009 153.112C375.825 153.552 375.733 154.048 375.733 154.6V156.772C375.733 157.308 375.825 157.796 376.009 158.236C376.193 158.668 376.457 159.032 376.801 159.328C377.153 159.616 377.565 159.816 378.037 159.928V161.44ZM392.788 161.44V159.928C393.268 159.816 393.68 159.616 394.024 159.328C394.368 159.032 394.632 158.668 394.816 158.236C395 157.796 395.092 157.308 395.092 156.772V154.6C395.092 154.048 395 153.552 394.816 153.112C394.632 152.672 394.368 152.304 394.024 152.008C393.68 151.712 393.268 151.508 392.788 151.396V149.92C393.58 150.128 394.26 150.456 394.828 150.904C395.396 151.344 395.832 151.88 396.136 152.512C396.448 153.136 396.604 153.832 396.604 154.6V156.772C396.604 157.94 396.272 158.932 395.608 159.748C394.944 160.556 394.004 161.12 392.788 161.44ZM401.723 161.656V160.3H407.483V161.656H401.723ZM413.442 161.32V150.04H414.954V161.32H413.442ZM423.309 161.656V160.3H436.269V161.656H423.309ZM445.204 161.44C443.988 161.12 443.048 160.556 442.384 159.748C441.72 158.932 441.388 157.94 441.388 156.772V154.6C441.388 153.832 441.54 153.136 441.844 152.512C442.156 151.88 442.596 151.344 443.164 150.904C443.74 150.456 444.42 150.128 445.204 149.92V151.396C444.732 151.508 444.32 151.712 443.968 152.008C443.624 152.304 443.36 152.672 443.176 153.112C442.992 153.552 442.9 154.048 442.9 154.6V156.772C442.9 157.308 442.992 157.796 443.176 158.236C443.36 158.668 443.624 159.032 443.968 159.328C444.32 159.616 444.732 159.816 445.204 159.928V161.44ZM459.955 161.44V159.928C460.435 159.816 460.847 159.616 461.191 159.328C461.535 159.032 461.799 158.668 461.983 158.236C462.167 157.796 462.259 157.308 462.259 156.772V154.6C462.259 154.048 462.167 153.552 461.983 153.112C461.799 152.672 461.535 152.304 461.191 152.008C460.847 151.712 460.435 151.508 459.955 151.396V149.92C460.747 150.128 461.427 150.456 461.995 150.904C462.563 151.344 462.999 151.88 463.303 152.512C463.615 153.136 463.771 153.832 463.771 154.6V156.772C463.771 157.94 463.439 158.932 462.775 159.748C462.111 160.556 461.171 161.12 459.955 161.44ZM468.89 161.656V160.3H474.65V161.656H468.89ZM480.61 161.32V150.04H482.122V161.32H480.61ZM10.4393 177.32V166.04H11.9513V177.32H10.4393ZM17.9106 177.656V176.3H23.6706V177.656H17.9106ZM77.6065 177.32V166.04H79.1185V177.32H77.6065ZM85.0778 177.656V176.3H90.8378V177.656H85.0778ZM144.774 177.32V166.04H146.286V177.32H144.774ZM152.245 177.656V176.3H158.005V177.656H152.245ZM211.941 177.32V166.04H213.453V177.32H211.941ZM219.412 177.656V176.3H225.172V177.656H219.412ZM279.108 177.32V166.04H280.62V177.32H279.108ZM286.579 177.656V176.3H292.339V177.656H286.579ZM346.275 177.32V166.04H347.787V177.32H346.275ZM353.747 177.656V176.3H359.507V177.656H353.747ZM413.442 177.32V166.04H414.954V177.32H413.442ZM420.914 177.656V176.3H426.674V177.656H420.914ZM480.61 177.32V166.04H482.122V177.32H480.61ZM488.081 177.656V176.3H493.841V177.656H488.081ZM17.9106 193.656V192.3H23.6706V193.656H17.9106ZM28.1659 193.44V191.928C28.6459 191.816 29.0579 191.616 29.4019 191.328C29.7459 191.032 30.0099 190.668 30.1939 190.236C30.3779 189.796 30.4699 189.308 30.4699 188.772V186.6C30.4699 186.048 30.3779 185.552 30.1939 185.112C30.0099 184.672 29.7459 184.304 29.4019 184.008C29.0579 183.712 28.6459 183.508 28.1659 183.396V181.92C28.9579 182.128 29.6379 182.456 30.2059 182.904C30.7739 183.344 31.2099 183.88 31.5139 184.512C31.8259 185.136 31.9819 185.832 31.9819 186.6V188.772C31.9819 189.94 31.6499 190.932 30.9859 191.748C30.3219 192.556 29.3819 193.12 28.1659 193.44ZM46.6966 193.656V192.3H52.4566V193.656H46.6966ZM85.0778 193.656V192.3H90.8378V193.656H85.0778ZM95.3331 193.44V191.928C95.8131 191.816 96.2251 191.616 96.5691 191.328C96.9131 191.032 97.1771 190.668 97.3611 190.236C97.5451 189.796 97.6371 189.308 97.6371 188.772V186.6C97.6371 186.048 97.5451 185.552 97.3611 185.112C97.1771 184.672 96.9131 184.304 96.5691 184.008C96.2251 183.712 95.8131 183.508 95.3331 183.396V181.92C96.1251 182.128 96.8051 182.456 97.3731 182.904C97.9411 183.344 98.3771 183.88 98.6811 184.512C98.9931 185.136 99.1491 185.832 99.1491 186.6V188.772C99.1491 189.94 98.8171 190.932 98.1531 191.748C97.4891 192.556 96.5491 193.12 95.3331 193.44ZM113.864 193.656V192.3H119.624V193.656H113.864ZM152.245 193.656V192.3H158.005V193.656H152.245ZM162.5 193.44V191.928C162.98 191.816 163.392 191.616 163.736 191.328C164.08 191.032 164.344 190.668 164.528 190.236C164.712 189.796 164.804 189.308 164.804 188.772V186.6C164.804 186.048 164.712 185.552 164.528 185.112C164.344 184.672 164.08 184.304 163.736 184.008C163.392 183.712 162.98 183.508 162.5 183.396V181.92C163.292 182.128 163.972 182.456 164.54 182.904C165.108 183.344 165.544 183.88 165.848 184.512C166.16 185.136 166.316 185.832 166.316 186.6V188.772C166.316 189.94 165.984 190.932 165.32 191.748C164.656 192.556 163.716 193.12 162.5 193.44ZM181.031 193.656V192.3H186.791V193.656H181.031ZM219.412 193.656V192.3H225.172V193.656H219.412ZM229.668 193.44V191.928C230.148 191.816 230.56 191.616 230.904 191.328C231.248 191.032 231.512 190.668 231.696 190.236C231.88 189.796 231.972 189.308 231.972 188.772V186.6C231.972 186.048 231.88 185.552 231.696 185.112C231.512 184.672 231.248 184.304 230.904 184.008C230.56 183.712 230.148 183.508 229.668 183.396V181.92C230.46 182.128 231.14 182.456 231.708 182.904C232.276 183.344 232.712 183.88 233.016 184.512C233.328 185.136 233.484 185.832 233.484 186.6V188.772C233.484 189.94 233.152 190.932 232.488 191.748C231.824 192.556 230.884 193.12 229.668 193.44ZM248.198 193.656V192.3H253.958V193.656H248.198ZM286.579 193.656V192.3H292.339V193.656H286.579ZM296.835 193.44V191.928C297.315 191.816 297.727 191.616 298.071 191.328C298.415 191.032 298.679 190.668 298.863 190.236C299.047 189.796 299.139 189.308 299.139 188.772V186.6C299.139 186.048 299.047 185.552 298.863 185.112C298.679 184.672 298.415 184.304 298.071 184.008C297.727 183.712 297.315 183.508 296.835 183.396V181.92C297.627 182.128 298.307 182.456 298.875 182.904C299.443 183.344 299.879 183.88 300.183 184.512C300.495 185.136 300.651 185.832 300.651 186.6V188.772C300.651 189.94 300.319 190.932 299.655 191.748C298.991 192.556 298.051 193.12 296.835 193.44ZM315.365 193.656V192.3H321.125V193.656H315.365ZM353.747 193.656V192.3H359.507V193.656H353.747ZM364.002 193.44V191.928C364.482 191.816 364.894 191.616 365.238 191.328C365.582 191.032 365.846 190.668 366.03 190.236C366.214 189.796 366.306 189.308 366.306 188.772V186.6C366.306 186.048 366.214 185.552 366.03 185.112C365.846 184.672 365.582 184.304 365.238 184.008C364.894 183.712 364.482 183.508 364.002 183.396V181.92C364.794 182.128 365.474 182.456 366.042 182.904C366.61 183.344 367.046 183.88 367.35 184.512C367.662 185.136 367.818 185.832 367.818 186.6V188.772C367.818 189.94 367.486 190.932 366.822 191.748C366.158 192.556 365.218 193.12 364.002 193.44ZM382.533 193.656V192.3H388.293V193.656H382.533ZM420.914 193.656V192.3H426.674V193.656H420.914ZM431.169 193.44V191.928C431.649 191.816 432.061 191.616 432.405 191.328C432.749 191.032 433.013 190.668 433.197 190.236C433.381 189.796 433.473 189.308 433.473 188.772V186.6C433.473 186.048 433.381 185.552 433.197 185.112C433.013 184.672 432.749 184.304 432.405 184.008C432.061 183.712 431.649 183.508 431.169 183.396V181.92C431.961 182.128 432.641 182.456 433.209 182.904C433.777 183.344 434.213 183.88 434.517 184.512C434.829 185.136 434.985 185.832 434.985 186.6V188.772C434.985 189.94 434.653 190.932 433.989 191.748C433.325 192.556 432.385 193.12 431.169 193.44ZM449.7 193.656V192.3H455.46V193.656H449.7ZM459.199 192V185.4H460.423V186.288H460.675L460.471 186.504C460.471 186.136 460.575 185.84 460.783 185.616C460.991 185.392 461.259 185.28 461.587 185.28C461.939 185.28 462.211 185.424 462.403 185.712C462.603 186 462.703 186.388 462.703 186.876L462.439 186.288H462.847L462.691 186.504C462.691 186.136 462.795 185.84 463.003 185.616C463.211 185.392 463.487 185.28 463.831 185.28C464.239 185.28 464.563 185.432 464.803 185.736C465.043 186.04 465.163 186.452 465.163 186.972V192H463.843V187.032C463.843 186.816 463.795 186.648 463.699 186.528C463.603 186.4 463.463 186.336 463.279 186.336C463.103 186.336 462.963 186.396 462.859 186.516C462.763 186.636 462.715 186.808 462.715 187.032V192H461.635V187.032C461.635 186.808 461.587 186.636 461.491 186.516C461.395 186.396 461.255 186.336 461.071 186.336C460.887 186.336 460.747 186.396 460.651 186.516C460.563 186.636 460.519 186.808 460.519 187.032V192H459.199ZM468.602 192L470.906 188.592L468.758 185.4H470.45L471.47 187.02C471.534 187.116 471.59 187.224 471.638 187.344C471.694 187.464 471.738 187.56 471.77 187.632C471.802 187.56 471.846 187.464 471.902 187.344C471.958 187.224 472.014 187.116 472.07 187.02L473.102 185.4H474.794L472.646 188.592L474.938 192H473.234L472.094 190.188C472.03 190.084 471.97 189.972 471.914 189.852C471.858 189.732 471.81 189.636 471.77 189.564C471.738 189.636 471.694 189.732 471.638 189.852C471.582 189.972 471.522 190.084 471.458 190.188L470.294 192H468.602ZM488.081 193.656V192.3H493.841V193.656H488.081ZM498.336 193.44V191.928C498.816 191.816 499.228 191.616 499.572 191.328C499.916 191.032 500.18 190.668 500.364 190.236C500.548 189.796 500.64 189.308 500.64 188.772V186.6C500.64 186.048 500.548 185.552 500.364 185.112C500.18 184.672 499.916 184.304 499.572 184.008C499.228 183.712 498.816 183.508 498.336 183.396V181.92C499.128 182.128 499.808 182.456 500.376 182.904C500.944 183.344 501.38 183.88 501.684 184.512C501.996 185.136 502.152 185.832 502.152 186.6V188.772C502.152 189.94 501.82 190.932 501.156 191.748C500.492 192.556 499.552 193.12 498.336 193.44ZM10.4393 209.32V198.04H11.9513V209.32H10.4393ZM20.3059 209.656V208.3H33.2659V209.656H20.3059ZM42.2012 209.44C40.9852 209.12 40.0452 208.556 39.3812 207.748C38.7172 206.932 38.3852 205.94 38.3852 204.772V202.6C38.3852 201.832 38.5372 201.136 38.8412 200.512C39.1532 199.88 39.5932 199.344 40.1612 198.904C40.7372 198.456 41.4172 198.128 42.2012 197.92V199.396C41.7292 199.508 41.3172 199.712 40.9652 200.008C40.6212 200.304 40.3572 200.672 40.1732 201.112C39.9892 201.552 39.8972 202.048 39.8972 202.6V204.772C39.8972 205.308 39.9892 205.796 40.1732 206.236C40.3572 206.668 40.6212 207.032 40.9652 207.328C41.3172 207.616 41.7292 207.816 42.2012 207.928V209.44ZM56.9519 209.44V207.928C57.4319 207.816 57.8439 207.616 58.1879 207.328C58.5319 207.032 58.7959 206.668 58.9799 206.236C59.1639 205.796 59.2559 205.308 59.2559 204.772V202.6C59.2559 202.048 59.1639 201.552 58.9799 201.112C58.7959 200.672 58.5319 200.304 58.1879 200.008C57.8439 199.712 57.4319 199.508 56.9519 199.396V197.92C57.7439 198.128 58.4239 198.456 58.9919 198.904C59.5599 199.344 59.9959 199.88 60.2999 200.512C60.6119 201.136 60.7679 201.832 60.7679 202.6V204.772C60.7679 205.94 60.4359 206.932 59.7719 207.748C59.1079 208.556 58.1679 209.12 56.9519 209.44ZM65.8872 209.656V208.3H71.6472V209.656H65.8872ZM77.6065 209.32V198.04H79.1185V209.32H77.6065ZM87.4731 209.656V208.3H100.433V209.656H87.4731ZM109.368 209.44C108.152 209.12 107.212 208.556 106.548 207.748C105.884 206.932 105.552 205.94 105.552 204.772V202.6C105.552 201.832 105.704 201.136 106.008 200.512C106.32 199.88 106.76 199.344 107.328 198.904C107.904 198.456 108.584 198.128 109.368 197.92V199.396C108.896 199.508 108.484 199.712 108.132 200.008C107.788 200.304 107.524 200.672 107.34 201.112C107.156 201.552 107.064 202.048 107.064 202.6V204.772C107.064 205.308 107.156 205.796 107.34 206.236C107.524 206.668 107.788 207.032 108.132 207.328C108.484 207.616 108.896 207.816 109.368 207.928V209.44ZM124.119 209.44V207.928C124.599 207.816 125.011 207.616 125.355 207.328C125.699 207.032 125.963 206.668 126.147 206.236C126.331 205.796 126.423 205.308 126.423 204.772V202.6C126.423 202.048 126.331 201.552 126.147 201.112C125.963 200.672 125.699 200.304 125.355 200.008C125.011 199.712 124.599 199.508 124.119 199.396V197.92C124.911 198.128 125.591 198.456 126.159 198.904C126.727 199.344 127.163 199.88 127.467 200.512C127.779 201.136 127.935 201.832 127.935 202.6V204.772C127.935 205.94 127.603 206.932 126.939 207.748C126.275 208.556 125.335 209.12 124.119 209.44ZM133.054 209.656V208.3H138.814V209.656H133.054ZM144.774 209.32V198.04H146.286V209.32H144.774ZM154.64 209.656V208.3H167.6V209.656H154.64ZM176.536 209.44C175.32 209.12 174.38 208.556 173.716 207.748C173.052 206.932 172.72 205.94 172.72 204.772V202.6C172.72 201.832 172.872 201.136 173.176 200.512C173.488 199.88 173.928 199.344 174.496 198.904C175.072 198.456 175.752 198.128 176.536 197.92V199.396C176.064 199.508 175.652 199.712 175.3 200.008C174.956 200.304 174.692 200.672 174.508 201.112C174.324 201.552 174.232 202.048 174.232 202.6V204.772C174.232 205.308 174.324 205.796 174.508 206.236C174.692 206.668 174.956 207.032 175.3 207.328C175.652 207.616 176.064 207.816 176.536 207.928V209.44ZM191.286 209.44V207.928C191.766 207.816 192.178 207.616 192.522 207.328C192.866 207.032 193.13 206.668 193.314 206.236C193.498 205.796 193.59 205.308 193.59 204.772V202.6C193.59 202.048 193.498 201.552 193.314 201.112C193.13 200.672 192.866 200.304 192.522 200.008C192.178 199.712 191.766 199.508 191.286 199.396V197.92C192.078 198.128 192.758 198.456 193.326 198.904C193.894 199.344 194.33 199.88 194.634 200.512C194.946 201.136 195.102 201.832 195.102 202.6V204.772C195.102 205.94 194.77 206.932 194.106 207.748C193.442 208.556 192.502 209.12 191.286 209.44ZM200.222 209.656V208.3H205.982V209.656H200.222ZM211.941 209.32V198.04H213.453V209.32H211.941ZM221.808 209.656V208.3H234.768V209.656H221.808ZM243.703 209.44C242.487 209.12 241.547 208.556 240.883 207.748C240.219 206.932 239.887 205.94 239.887 204.772V202.6C239.887 201.832 240.039 201.136 240.343 200.512C240.655 199.88 241.095 199.344 241.663 198.904C242.239 198.456 242.919 198.128 243.703 197.92V199.396C243.231 199.508 242.819 199.712 242.467 200.008C242.123 200.304 241.859 200.672 241.675 201.112C241.491 201.552 241.399 202.048 241.399 202.6V204.772C241.399 205.308 241.491 205.796 241.675 206.236C241.859 206.668 242.123 207.032 242.467 207.328C242.819 207.616 243.231 207.816 243.703 207.928V209.44ZM258.453 209.44V207.928C258.933 207.816 259.345 207.616 259.689 207.328C260.033 207.032 260.297 206.668 260.481 206.236C260.665 205.796 260.757 205.308 260.757 204.772V202.6C260.757 202.048 260.665 201.552 260.481 201.112C260.297 200.672 260.033 200.304 259.689 200.008C259.345 199.712 258.933 199.508 258.453 199.396V197.92C259.245 198.128 259.925 198.456 260.493 198.904C261.061 199.344 261.497 199.88 261.801 200.512C262.113 201.136 262.269 201.832 262.269 202.6V204.772C262.269 205.94 261.937 206.932 261.273 207.748C260.609 208.556 259.669 209.12 258.453 209.44ZM267.389 209.656V208.3H273.149V209.656H267.389ZM279.108 209.32V198.04H280.62V209.32H279.108ZM288.975 209.656V208.3H301.935V209.656H288.975ZM310.87 209.44C309.654 209.12 308.714 208.556 308.05 207.748C307.386 206.932 307.054 205.94 307.054 204.772V202.6C307.054 201.832 307.206 201.136 307.51 200.512C307.822 199.88 308.262 199.344 308.83 198.904C309.406 198.456 310.086 198.128 310.87 197.92V199.396C310.398 199.508 309.986 199.712 309.634 200.008C309.29 200.304 309.026 200.672 308.842 201.112C308.658 201.552 308.566 202.048 308.566 202.6V204.772C308.566 205.308 308.658 205.796 308.842 206.236C309.026 206.668 309.29 207.032 309.634 207.328C309.986 207.616 310.398 207.816 310.87 207.928V209.44ZM325.621 209.44V207.928C326.101 207.816 326.513 207.616 326.857 207.328C327.201 207.032 327.465 206.668 327.649 206.236C327.833 205.796 327.925 205.308 327.925 204.772V202.6C327.925 202.048 327.833 201.552 327.649 201.112C327.465 200.672 327.201 200.304 326.857 200.008C326.513 199.712 326.101 199.508 325.621 199.396V197.92C326.413 198.128 327.093 198.456 327.661 198.904C328.229 199.344 328.665 199.88 328.969 200.512C329.281 201.136 329.437 201.832 329.437 202.6V204.772C329.437 205.94 329.105 206.932 328.441 207.748C327.777 208.556 326.837 209.12 325.621 209.44ZM334.556 209.656V208.3H340.316V209.656H334.556ZM346.275 209.32V198.04H347.787V209.32H346.275ZM356.142 209.656V208.3H369.102V209.656H356.142ZM378.037 209.44C376.821 209.12 375.881 208.556 375.217 207.748C374.553 206.932 374.221 205.94 374.221 204.772V202.6C374.221 201.832 374.373 201.136 374.677 200.512C374.989 199.88 375.429 199.344 375.997 198.904C376.573 198.456 377.253 198.128 378.037 197.92V199.396C377.565 199.508 377.153 199.712 376.801 200.008C376.457 200.304 376.193 200.672 376.009 201.112C375.825 201.552 375.733 202.048 375.733 202.6V204.772C375.733 205.308 375.825 205.796 376.009 206.236C376.193 206.668 376.457 207.032 376.801 207.328C377.153 207.616 377.565 207.816 378.037 207.928V209.44ZM392.788 209.44V207.928C393.268 207.816 393.68 207.616 394.024 207.328C394.368 207.032 394.632 206.668 394.816 206.236C395 205.796 395.092 205.308 395.092 204.772V202.6C395.092 202.048 395 201.552 394.816 201.112C394.632 200.672 394.368 200.304 394.024 200.008C393.68 199.712 393.268 199.508 392.788 199.396V197.92C393.58 198.128 394.26 198.456 394.828 198.904C395.396 199.344 395.832 199.88 396.136 200.512C396.448 201.136 396.604 201.832 396.604 202.6V204.772C396.604 205.94 396.272 206.932 395.608 207.748C394.944 208.556 394.004 209.12 392.788 209.44ZM401.723 209.656V208.3H407.483V209.656H401.723ZM413.442 209.32V198.04H414.954V209.32H413.442ZM423.309 209.656V208.3H436.269V209.656H423.309ZM445.204 209.44C443.988 209.12 443.048 208.556 442.384 207.748C441.72 206.932 441.388 205.94 441.388 204.772V202.6C441.388 201.832 441.54 201.136 441.844 200.512C442.156 199.88 442.596 199.344 443.164 198.904C443.74 198.456 444.42 198.128 445.204 197.92V199.396C444.732 199.508 444.32 199.712 443.968 200.008C443.624 200.304 443.36 200.672 443.176 201.112C442.992 201.552 442.9 202.048 442.9 202.6V204.772C442.9 205.308 442.992 205.796 443.176 206.236C443.36 206.668 443.624 207.032 443.968 207.328C444.32 207.616 444.732 207.816 445.204 207.928V209.44ZM459.955 209.44V207.928C460.435 207.816 460.847 207.616 461.191 207.328C461.535 207.032 461.799 206.668 461.983 206.236C462.167 205.796 462.259 205.308 462.259 204.772V202.6C462.259 202.048 462.167 201.552 461.983 201.112C461.799 200.672 461.535 200.304 461.191 200.008C460.847 199.712 460.435 199.508 459.955 199.396V197.92C460.747 198.128 461.427 198.456 461.995 198.904C462.563 199.344 462.999 199.88 463.303 200.512C463.615 201.136 463.771 201.832 463.771 202.6V204.772C463.771 205.94 463.439 206.932 462.775 207.748C462.111 208.556 461.171 209.12 459.955 209.44ZM468.89 209.656V208.3H474.65V209.656H468.89ZM480.61 209.32V198.04H482.122V209.32H480.61Z" fill="#fdff9d"/>
</svg>
