<svg width="503" height="210" fill="none" xmlns="http://www.w3.org/2000/svg"><path d="M46.6966 1.656V.3h5.76v1.356h-5.76Zm67.1674 0V.3h5.76v1.356h-5.76Zm67.167 0V.3h5.76v1.356h-5.76Zm67.167 0V.3h5.76v1.356h-5.76Zm67.167 0V.3h5.76v1.356h-5.76Zm67.168 0V.3h5.76v1.356h-5.76Zm67.167 0V.3h5.76v1.356h-5.76Zm-422.1941 16V16.3h5.76v1.356h-5.76Zm14.6953-.216c-1.216-.32-2.156-.884-2.82-1.692-.664-.816-.996-1.808-.996-2.976V10.6c0-.768.152-1.464.456-2.088.312-.632.752-1.168 1.32-1.608.576-.448 1.256-.776 2.04-.984v1.476c-.472.112-.884.316-1.236.612-.344.296-.608.664-.792 1.104-.184.44-.276.936-.276 1.488v2.172c0 .536.092 1.024.276 1.464.184.432.448.796.792 1.092.352.288.764.488 1.236.6v1.512Zm14.7507 0v-1.512c.48-.112.892-.312 1.236-.6.344-.296.608-.66.792-1.092.184-.44.276-.928.276-1.464V10.6c0-.552-.092-1.048-.276-1.488-.184-.44-.448-.808-.792-1.104-.344-.296-.756-.5-1.236-.612V5.92c.792.208 1.472.536 2.04.984.568.44 1.004.976 1.308 1.608.312.624.468 1.32.468 2.088v2.172c0 1.168-.332 2.16-.996 2.976-.664.808-1.604 1.372-2.82 1.692Zm11.3306.216V16.3h12.96v1.356h-12.96Zm26.3906 0V16.3h5.7599v1.356h-5.7599Zm14.6949-.216c-1.216-.32-2.156-.884-2.82-1.692-.664-.816-.996-1.808-.996-2.976V10.6c0-.768.152-1.464.456-2.088.312-.632.752-1.168 1.32-1.608.576-.448 1.256-.776 2.04-.984v1.476c-.472.112-.884.316-1.236.612-.344.296-.608.664-.792 1.104-.184.44-.276.936-.276 1.488v2.172c0 .536.092 1.024.276 1.464.184.432.448.796.792 1.092.352.288.764.488 1.236.6v1.512Zm14.751 0v-1.512c.48-.112.892-.312 1.236-.6.344-.296.608-.66.792-1.092.184-.44.276-.928.276-1.464V10.6c0-.552-.092-1.048-.276-1.488-.184-.44-.448-.808-.792-1.104-.344-.296-.756-.5-1.236-.612V5.92c.792.208 1.472.536 2.04.984.568.44 1.004.976 1.308 1.608.312.624.468 1.32.468 2.088v2.172c0 1.168-.332 2.16-.996 2.976-.664.808-1.604 1.372-2.82 1.692Zm11.331.216V16.3h12.96v1.356h-12.96Zm26.39 0V16.3h5.76v1.356h-5.76Zm14.696-.216c-1.216-.32-2.156-.884-2.82-1.692-.664-.816-.996-1.808-.996-2.976V10.6c0-.768.152-1.464.456-2.088.312-.632.752-1.168 1.32-1.608.576-.448 1.256-.776 2.04-.984v1.476c-.472.112-.884.316-1.236.612-.344.296-.608.664-.792 1.104-.184.44-.276.936-.276 1.488v2.172c0 .536.092 1.024.276 1.464.184.432.448.796.792 1.092.352.288.764.488 1.236.6v1.512Zm14.75 0v-1.512c.48-.112.892-.312 1.236-.6.344-.296.608-.66.792-1.092.184-.44.276-.928.276-1.464V10.6c0-.552-.092-1.048-.276-1.488-.184-.44-.448-.808-.792-1.104-.344-.296-.756-.5-1.236-.612V5.92c.792.208 1.472.536 2.04.984.568.44 1.004.976 1.308 1.608.312.624.468 1.32.468 2.088v2.172c0 1.168-.332 2.16-.996 2.976-.664.808-1.604 1.372-2.82 1.692Zm11.331.216V16.3h12.96v1.356h-12.96Zm26.391 0V16.3h5.76v1.356h-5.76Zm14.695-.216c-1.216-.32-2.156-.884-2.82-1.692-.664-.816-.996-1.808-.996-2.976V10.6c0-.768.152-1.464.456-2.088.312-.632.752-1.168 1.32-1.608.576-.448 1.256-.776 2.04-.984v1.476c-.472.112-.884.316-1.236.612-.344.296-.608.664-.792 1.104-.184.44-.276.936-.276 1.488v2.172c0 .536.092 1.024.276 1.464.184.432.448.796.792 1.092.352.288.764.488 1.236.6v1.512Zm14.75 0v-1.512c.48-.112.892-.312 1.236-.6.344-.296.608-.66.792-1.092.184-.44.276-.928.276-1.464V10.6c0-.552-.092-1.048-.276-1.488-.184-.44-.448-.808-.792-1.104-.344-.296-.756-.5-1.236-.612V5.92c.792.208 1.472.536 2.04.984.568.44 1.004.976 1.308 1.608.312.624.468 1.32.468 2.088v2.172c0 1.168-.332 2.16-.996 2.976-.664.808-1.604 1.372-2.82 1.692Zm11.331.216V16.3h12.96v1.356h-12.96Zm26.391 0V16.3h5.76v1.356h-5.76Zm14.695-.216c-1.216-.32-2.156-.884-2.82-1.692-.664-.816-.996-1.808-.996-2.976V10.6c0-.768.152-1.464.456-2.088.312-.632.752-1.168 1.32-1.608.576-.448 1.256-.776 2.04-.984v1.476c-.472.112-.884.316-1.236.612-.344.296-.608.664-.792 1.104-.184.44-.276.936-.276 1.488v2.172c0 .536.092 1.024.276 1.464.184.432.448.796.792 1.092.352.288.764.488 1.236.6v1.512Zm14.751 0v-1.512c.48-.112.892-.312 1.236-.6.344-.296.608-.66.792-1.092.184-.44.276-.928.276-1.464V10.6c0-.552-.092-1.048-.276-1.488-.184-.44-.448-.808-.792-1.104-.344-.296-.756-.5-1.236-.612V5.92c.792.208 1.472.536 2.04.984.568.44 1.004.976 1.308 1.608.312.624.468 1.32.468 2.088v2.172c0 1.168-.332 2.16-.996 2.976-.664.808-1.604 1.372-2.82 1.692Zm11.33.216V16.3h12.96v1.356h-12.96Zm26.391 0V16.3h5.76v1.356h-5.76Zm14.695-.216c-1.216-.32-2.156-.884-2.82-1.692-.664-.816-.996-1.808-.996-2.976V10.6c0-.768.152-1.464.456-2.088.312-.632.752-1.168 1.32-1.608.576-.448 1.256-.776 2.04-.984v1.476c-.472.112-.884.316-1.236.612-.344.296-.608.664-.792 1.104-.184.44-.276.936-.276 1.488v2.172c0 .536.092 1.024.276 1.464.184.432.448.796.792 1.092.352.288.764.488 1.236.6v1.512Zm14.751 0v-1.512c.48-.112.892-.312 1.236-.6.344-.296.608-.66.792-1.092.184-.44.276-.928.276-1.464V10.6c0-.552-.092-1.048-.276-1.488-.184-.44-.448-.808-.792-1.104-.344-.296-.756-.5-1.236-.612V5.92c.792.208 1.472.536 2.04.984.568.44 1.004.976 1.308 1.608.312.624.468 1.32.468 2.088v2.172c0 1.168-.332 2.16-.996 2.976-.664.808-1.604 1.372-2.82 1.692Zm11.33.216V16.3h12.96v1.356h-12.96Zm26.391 0V16.3h5.76v1.356h-5.76Zm14.695-.216c-1.216-.32-2.156-.884-2.82-1.692-.664-.816-.996-1.808-.996-2.976V10.6c0-.768.152-1.464.456-2.088.312-.632.752-1.168 1.32-1.608.576-.448 1.256-.776 2.04-.984v1.476c-.472.112-.884.316-1.236.612-.344.296-.608.664-.792 1.104-.184.44-.276.936-.276 1.488v2.172c0 .536.092 1.024.276 1.464.184.432.448.796.792 1.092.352.288.764.488 1.236.6v1.512Zm14.751 0v-1.512c.48-.112.892-.312 1.236-.6.344-.296.608-.66.792-1.092.184-.44.276-.928.276-1.464V10.6c0-.552-.092-1.048-.276-1.488-.184-.44-.448-.808-.792-1.104-.344-.296-.756-.5-1.236-.612V5.92c.792.208 1.472.536 2.04.984.568.44 1.004.976 1.308 1.608.312.624.468 1.32.468 2.088v2.172c0 1.168-.332 2.16-.996 2.976-.664.808-1.604 1.372-2.82 1.692Zm11.331.216V16.3h12.96v1.356h-12.96Zm-462.97069 16V32.3h5.75999v1.356H8.31531Zm11.71929-.336V22.04h1.512v11.28h-1.512Zm55.4479.336V32.3h5.76v1.356h-5.76Zm11.7193-.336V22.04h1.512v11.28h-1.512Zm55.4482.336V32.3h5.76v1.356h-5.76Zm11.719-.336V22.04h1.512v11.28h-1.512Zm55.448.336V32.3h5.76v1.356h-5.76Zm11.719-.336V22.04h1.512v11.28h-1.512Zm55.448.336V32.3h5.76v1.356h-5.76Zm11.719-.336V22.04h1.512v11.28h-1.512Zm55.448.336V32.3h5.76v1.356h-5.76Zm11.72-.336V22.04h1.512v11.28h-1.512Zm55.447.336V32.3h5.76v1.356h-5.76Zm11.72-.336V22.04h1.512v11.28h-1.512Zm55.448.336V32.3h5.76v1.356h-5.76Zm11.719-.336V22.04h1.512v11.28h-1.512ZM3.82 49.44c-1.216-.32-2.156-.884-2.82-1.692-.664-.816-.99599987-1.808-.99599987-2.976V42.6c0-.768.15199987-1.464.45599987-2.088.312-.632.752-1.168 1.32-1.608.576-.448 1.256-.776 2.04-.984v1.476c-.472.112-.884.316-1.236.612-.344.296-.608.664-.792 1.104-.184.44-.276.936-.276 1.488v2.172c0 .536.092 1.024.276 1.464.184.432.448.796.792 1.092.352.288.764.488 1.236.6v1.512Zm4.49531.216V48.3h5.75999v1.356H8.31531Zm38.38129 0V48.3h5.76v1.356h-5.76Zm24.2906-.216c-1.216-.32-2.156-.884-2.82-1.692-.664-.816-.996-1.808-.996-2.976V42.6c0-.768.152-1.464.456-2.088.312-.632.752-1.168 1.32-1.608.576-.448 1.256-.776 2.04-.984v1.476c-.472.112-.884.316-1.236.612-.344.296-.608.664-.792 1.104-.184.44-.276.936-.276 1.488v2.172c0 .536.092 1.024.276 1.464.184.432.448.796.792 1.092.352.288.764.488 1.236.6v1.512Zm4.4953.216V48.3h5.76v1.356h-5.76Zm38.3815 0V48.3h5.76v1.356h-5.76Zm24.29-.216c-1.216-.32-2.156-.884-2.82-1.692-.664-.816-.996-1.808-.996-2.976V42.6c0-.768.152-1.464.456-2.088.312-.632.752-1.168 1.32-1.608.576-.448 1.256-.776 2.04-.984v1.476c-.472.112-.884.316-1.236.612-.344.296-.608.664-.792 1.104-.184.44-.276.936-.276 1.488v2.172c0 .536.092 1.024.276 1.464.184.432.448.796.792 1.092.352.288.764.488 1.236.6v1.512Zm4.496.216V48.3h5.76v1.356h-5.76Zm38.381 0V48.3h5.76v1.356h-5.76Zm24.291-.216c-1.216-.32-2.156-.884-2.82-1.692-.664-.816-.996-1.808-.996-2.976V42.6c0-.768.152-1.464.456-2.088.312-.632.752-1.168 1.32-1.608.576-.448 1.256-.776 2.04-.984v1.476c-.472.112-.884.316-1.236.612-.344.296-.608.664-.792 1.104-.184.44-.276.936-.276 1.488v2.172c0 .536.092 1.024.276 1.464.184.432.448.796.792 1.092.352.288.764.488 1.236.6v1.512Zm4.495.216V48.3h5.76v1.356h-5.76Zm38.381 0V48.3h5.76v1.356h-5.76Zm24.291-.216c-1.216-.32-2.156-.884-2.82-1.692-.664-.816-.996-1.808-.996-2.976V42.6c0-.768.152-1.464.456-2.088.312-.632.752-1.168 1.32-1.608.576-.448 1.256-.776 2.04-.984v1.476c-.472.112-.884.316-1.236.612-.344.296-.608.664-.792 1.104-.184.44-.276.936-.276 1.488v2.172c0 .536.092 1.024.276 1.464.184.432.448.796.792 1.092.352.288.764.488 1.236.6v1.512Zm4.495.216V48.3h5.76v1.356h-5.76Zm38.381 0V48.3h5.76v1.356h-5.76Zm24.291-.216c-1.216-.32-2.156-.884-2.82-1.692-.664-.816-.996-1.808-.996-2.976V42.6c0-.768.152-1.464.456-2.088.312-.632.752-1.168 1.32-1.608.576-.448 1.256-.776 2.04-.984v1.476c-.472.112-.884.316-1.236.612-.344.296-.608.664-.792 1.104-.184.44-.276.936-.276 1.488v2.172c0 .536.092 1.024.276 1.464.184.432.448.796.792 1.092.352.288.764.488 1.236.6v1.512Zm4.495.216V48.3h5.76v1.356h-5.76Zm38.382 0V48.3h5.76v1.356h-5.76Zm24.29-.216c-1.216-.32-2.156-.884-2.82-1.692-.664-.816-.996-1.808-.996-2.976V42.6c0-.768.152-1.464.456-2.088.312-.632.752-1.168 1.32-1.608.576-.448 1.256-.776 2.04-.984v1.476c-.472.112-.884.316-1.236.612-.344.296-.608.664-.792 1.104-.184.44-.276.936-.276 1.488v2.172c0 .536.092 1.024.276 1.464.184.432.448.796.792 1.092.352.288.764.488 1.236.6v1.512Zm4.495.216V48.3h5.76v1.356h-5.76Zm38.382 0V48.3h5.76v1.356h-5.76Zm24.29-.216c-1.216-.32-2.156-.884-2.82-1.692-.664-.816-.996-1.808-.996-2.976V42.6c0-.768.152-1.464.456-2.088.312-.632.752-1.168 1.32-1.608.576-.448 1.256-.776 2.04-.984v1.476c-.472.112-.884.316-1.236.612-.344.296-.608.664-.792 1.104-.184.44-.276.936-.276 1.488v2.172c0 .536.092 1.024.276 1.464.184.432.448.796.792 1.092.352.288.764.488 1.236.6v1.512Zm4.496.216V48.3h5.76v1.356h-5.76ZM10.4393 65.32V54.04h1.512v11.28h-1.512Zm9.8666.336V64.3h12.96v1.356h-12.96Zm21.8953-.216c-1.216-.32-2.156-.884-2.82-1.692-.664-.816-.996-1.808-.996-2.976V58.6c0-.768.152-1.464.456-2.088.312-.632.752-1.168 1.32-1.608.576-.448 1.256-.776 2.04-.984v1.476c-.472.112-.884.316-1.236.612-.344.296-.608.664-.792 1.104-.184.44-.276.936-.276 1.488v2.172c0 .536.092 1.024.276 1.464.184.432.448.796.792 1.092.352.288.764.488 1.236.6v1.512Zm14.7507 0v-1.512c.48-.112.892-.312 1.236-.6.344-.296.608-.66.792-1.092.184-.44.276-.928.276-1.464V58.6c0-.552-.092-1.048-.276-1.488-.184-.44-.448-.808-.792-1.104-.344-.296-.756-.5-1.236-.612V53.92c.792.208 1.472.536 2.04.984.568.44 1.004.976 1.308 1.608.312.624.468 1.32.468 2.088v2.172c0 1.168-.332 2.16-.996 2.976-.664.808-1.604 1.372-2.82 1.692Zm8.9353.216V64.3h5.76v1.356h-5.76Zm11.7193-.336V54.04h1.512v11.28h-1.512Zm9.8666.336V64.3h12.9599v1.356H87.4731Zm21.8949-.216c-1.216-.32-2.156-.884-2.82-1.692-.664-.816-.996-1.808-.996-2.976V58.6c0-.768.152-1.464.456-2.088.312-.632.752-1.168 1.32-1.608.576-.448 1.256-.776 2.04-.984v1.476c-.472.112-.884.316-1.236.612-.344.296-.608.664-.792 1.104-.184.44-.276.936-.276 1.488v2.172c0 .536.092 1.024.276 1.464.184.432.448.796.792 1.092.352.288.764.488 1.236.6v1.512Zm14.751 0v-1.512c.48-.112.892-.312 1.236-.6.344-.296.608-.66.792-1.092.184-.44.276-.928.276-1.464V58.6c0-.552-.092-1.048-.276-1.488-.184-.44-.448-.808-.792-1.104-.344-.296-.756-.5-1.236-.612V53.92c.792.208 1.472.536 2.04.984.568.44 1.004.976 1.308 1.608.312.624.468 1.32.468 2.088v2.172c0 1.168-.332 2.16-.996 2.976-.664.808-1.604 1.372-2.82 1.692Zm8.935.216V64.3h5.76v1.356h-5.76Zm11.72-.336V54.04h1.512v11.28h-1.512Zm9.866.336V64.3h12.96v1.356h-12.96Zm21.896-.216c-1.216-.32-2.156-.884-2.82-1.692-.664-.816-.996-1.808-.996-2.976V58.6c0-.768.152-1.464.456-2.088.312-.632.752-1.168 1.32-1.608.576-.448 1.256-.776 2.04-.984v1.476c-.472.112-.884.316-1.236.612-.344.296-.608.664-.792 1.104-.184.44-.276.936-.276 1.488v2.172c0 .536.092 1.024.276 1.464.184.432.448.796.792 1.092.352.288.764.488 1.236.6v1.512Zm14.75 0v-1.512c.48-.112.892-.312 1.236-.6.344-.296.608-.66.792-1.092.184-.44.276-.928.276-1.464V58.6c0-.552-.092-1.048-.276-1.488-.184-.44-.448-.808-.792-1.104-.344-.296-.756-.5-1.236-.612V53.92c.792.208 1.472.536 2.04.984.568.44 1.004.976 1.308 1.608.312.624.468 1.32.468 2.088v2.172c0 1.168-.332 2.16-.996 2.976-.664.808-1.604 1.372-2.82 1.692Zm8.936.216V64.3h5.76v1.356h-5.76Zm11.719-.336V54.04h1.512v11.28h-1.512Zm9.867.336V64.3h12.96v1.356h-12.96Zm21.895-.216c-1.216-.32-2.156-.884-2.82-1.692-.664-.816-.996-1.808-.996-2.976V58.6c0-.768.152-1.464.456-2.088.312-.632.752-1.168 1.32-1.608.576-.448 1.256-.776 2.04-.984v1.476c-.472.112-.884.316-1.236.612-.344.296-.608.664-.792 1.104-.184.44-.276.936-.276 1.488v2.172c0 .536.092 1.024.276 1.464.184.432.448.796.792 1.092.352.288.764.488 1.236.6v1.512Zm14.75 0v-1.512c.48-.112.892-.312 1.236-.6.344-.296.608-.66.792-1.092.184-.44.276-.928.276-1.464V58.6c0-.552-.092-1.048-.276-1.488-.184-.44-.448-.808-.792-1.104-.344-.296-.756-.5-1.236-.612V53.92c.792.208 1.472.536 2.04.984.568.44 1.004.976 1.308 1.608.312.624.468 1.32.468 2.088v2.172c0 1.168-.332 2.16-.996 2.976-.664.808-1.604 1.372-2.82 1.692Zm8.936.216V64.3h5.76v1.356h-5.76Zm11.719-.336V54.04h1.512v11.28h-1.512Zm9.867.336V64.3h12.96v1.356h-12.96Zm21.895-.216c-1.216-.32-2.156-.884-2.82-1.692-.664-.816-.996-1.808-.996-2.976V58.6c0-.768.152-1.464.456-2.088.312-.632.752-1.168 1.32-1.608.576-.448 1.256-.776 2.04-.984v1.476c-.472.112-.884.316-1.236.612-.344.296-.608.664-.792 1.104-.184.44-.276.936-.276 1.488v2.172c0 .536.092 1.024.276 1.464.184.432.448.796.792 1.092.352.288.764.488 1.236.6v1.512Zm14.751 0v-1.512c.48-.112.892-.312 1.236-.6.344-.296.608-.66.792-1.092.184-.44.276-.928.276-1.464V58.6c0-.552-.092-1.048-.276-1.488-.184-.44-.448-.808-.792-1.104-.344-.296-.756-.5-1.236-.612V53.92c.792.208 1.472.536 2.04.984.568.44 1.004.976 1.308 1.608.312.624.468 1.32.468 2.088v2.172c0 1.168-.332 2.16-.996 2.976-.664.808-1.604 1.372-2.82 1.692Zm8.935.216V64.3h5.76v1.356h-5.76Zm11.719-.336V54.04h1.512v11.28h-1.512Zm9.867.336V64.3h12.96v1.356h-12.96Zm21.895-.216c-1.216-.32-2.156-.884-2.82-1.692-.664-.816-.996-1.808-.996-2.976V58.6c0-.768.152-1.464.456-2.088.312-.632.752-1.168 1.32-1.608.576-.448 1.256-.776 2.04-.984v1.476c-.472.112-.884.316-1.236.612-.344.296-.608.664-.792 1.104-.184.44-.276.936-.276 1.488v2.172c0 .536.092 1.024.276 1.464.184.432.448.796.792 1.092.352.288.764.488 1.236.6v1.512Zm14.751 0v-1.512c.48-.112.892-.312 1.236-.6.344-.296.608-.66.792-1.092.184-.44.276-.928.276-1.464V58.6c0-.552-.092-1.048-.276-1.488-.184-.44-.448-.808-.792-1.104-.344-.296-.756-.5-1.236-.612V53.92c.792.208 1.472.536 2.04.984.568.44 1.004.976 1.308 1.608.312.624.468 1.32.468 2.088v2.172c0 1.168-.332 2.16-.996 2.976-.664.808-1.604 1.372-2.82 1.692Zm8.935.216V64.3h5.76v1.356h-5.76Zm11.719-.336V54.04h1.512v11.28h-1.512Zm9.867.336V64.3h12.96v1.356h-12.96Zm21.895-.216c-1.216-.32-2.156-.884-2.82-1.692-.664-.816-.996-1.808-.996-2.976V58.6c0-.768.152-1.464.456-2.088.312-.632.752-1.168 1.32-1.608.576-.448 1.256-.776 2.04-.984v1.476c-.472.112-.884.316-1.236.612-.344.296-.608.664-.792 1.104-.184.44-.276.936-.276 1.488v2.172c0 .536.092 1.024.276 1.464.184.432.448.796.792 1.092.352.288.764.488 1.236.6v1.512Zm14.751 0v-1.512c.48-.112.892-.312 1.236-.6.344-.296.608-.66.792-1.092.184-.44.276-.928.276-1.464V58.6c0-.552-.092-1.048-.276-1.488-.184-.44-.448-.808-.792-1.104-.344-.296-.756-.5-1.236-.612V53.92c.792.208 1.472.536 2.04.984.568.44 1.004.976 1.308 1.608.312.624.468 1.32.468 2.088v2.172c0 1.168-.332 2.16-.996 2.976-.664.808-1.604 1.372-2.82 1.692Zm8.935.216V64.3h5.76v1.356h-5.76Zm11.72-.336V54.04h1.512v11.28h-1.512Zm-470.1707 16V70.04h1.512v11.28h-1.512Zm7.4713.336V80.3h5.76v1.356h-5.76Zm59.6959-.336V70.04h1.512v11.28h-1.512Zm7.4713.336V80.3h5.76v1.356h-5.76Zm59.6962-.336V70.04h1.512v11.28h-1.512Zm7.471.336V80.3h5.76v1.356h-5.76Zm59.696-.336V70.04h1.512v11.28h-1.512Zm7.471.336V80.3h5.76v1.356h-5.76Zm59.696-.336V70.04h1.512v11.28h-1.512Zm7.471.336V80.3h5.76v1.356h-5.76Zm59.696-.336V70.04h1.512v11.28h-1.512Zm7.472.336V80.3h5.76v1.356h-5.76Zm59.695-.336V70.04h1.512v11.28h-1.512Zm7.472.336V80.3h5.76v1.356h-5.76Zm59.696-.336V70.04h1.512v11.28h-1.512Zm7.471.336V80.3h5.76v1.356h-5.76Zm-470.1704 16V96.3h5.76v1.356h-5.76Zm10.2553-.216v-1.512c.48-.112.892-.312 1.236-.6.344-.296.608-.66.792-1.092.184-.44.276-.928.276-1.464V90.6c0-.552-.092-1.048-.276-1.488-.184-.44-.448-.808-.792-1.104-.344-.296-.756-.5-1.236-.612V85.92c.792.208 1.472.536 2.04.984.568.44 1.004.976 1.308 1.608.312.624.468 1.32.468 2.088v2.172c0 1.168-.332 2.16-.996 2.976-.664.808-1.604 1.372-2.82 1.692Zm18.5307.216V96.3h5.76v1.356h-5.76Zm38.3812 0V96.3h5.76v1.356h-5.76Zm10.2553-.216v-1.512c.48-.112.892-.312 1.236-.6.344-.296.608-.66.792-1.092.184-.44.276-.928.276-1.464V90.6c0-.552-.092-1.048-.276-1.488-.184-.44-.448-.808-.792-1.104-.344-.296-.756-.5-1.236-.612V85.92c.792.208 1.472.536 2.04.984.568.44 1.004.976 1.308 1.608.312.624.468 1.32.468 2.088v2.172c0 1.168-.332 2.16-.996 2.976-.664.808-1.604 1.372-2.82 1.692Zm18.5309.216V96.3h5.76v1.356h-5.76Zm38.381 0V96.3h5.76v1.356h-5.76Zm10.255-.216v-1.512c.48-.112.892-.312 1.236-.6.344-.296.608-.66.792-1.092.184-.44.276-.928.276-1.464V90.6c0-.552-.092-1.048-.276-1.488-.184-.44-.448-.808-.792-1.104-.344-.296-.756-.5-1.236-.612V85.92c.792.208 1.472.536 2.04.984.568.44 1.004.976 1.308 1.608.312.624.468 1.32.468 2.088v2.172c0 1.168-.332 2.16-.996 2.976-.664.808-1.604 1.372-2.82 1.692Zm18.531.216V96.3h5.76v1.356h-5.76Zm38.381 0V96.3h5.76v1.356h-5.76Zm10.256-.216v-1.512c.48-.112.892-.312 1.236-.6.344-.296.608-.66.792-1.092.184-.44.276-.928.276-1.464V90.6c0-.552-.092-1.048-.276-1.488-.184-.44-.448-.808-.792-1.104-.344-.296-.756-.5-1.236-.612V85.92c.792.208 1.472.536 2.04.984.568.44 1.004.976 1.308 1.608.312.624.468 1.32.468 2.088v2.172c0 1.168-.332 2.16-.996 2.976-.664.808-1.604 1.372-2.82 1.692Zm18.53.216V96.3h5.76v1.356h-5.76Zm38.381 0V96.3h5.76v1.356h-5.76Zm10.256-.216v-1.512c.48-.112.892-.312 1.236-.6.344-.296.608-.66.792-1.092.184-.44.276-.928.276-1.464V90.6c0-.552-.092-1.048-.276-1.488-.184-.44-.448-.808-.792-1.104-.344-.296-.756-.5-1.236-.612V85.92c.792.208 1.472.536 2.04.984.568.44 1.004.976 1.308 1.608.312.624.468 1.32.468 2.088v2.172c0 1.168-.332 2.16-.996 2.976-.664.808-1.604 1.372-2.82 1.692Zm18.53.216V96.3h5.76v1.356h-5.76Zm38.382 0V96.3h5.76v1.356h-5.76Zm10.255-.216v-1.512c.48-.112.892-.312 1.236-.6.344-.296.608-.66.792-1.092.184-.44.276-.928.276-1.464V90.6c0-.552-.092-1.048-.276-1.488-.184-.44-.448-.808-.792-1.104-.344-.296-.756-.5-1.236-.612V85.92c.792.208 1.472.536 2.04.984.568.44 1.004.976 1.308 1.608.312.624.468 1.32.468 2.088v2.172c0 1.168-.332 2.16-.996 2.976-.664.808-1.604 1.372-2.82 1.692Zm18.531.216V96.3h5.76v1.356h-5.76Zm38.381 0V96.3h5.76v1.356h-5.76Zm10.255-.216v-1.512c.48-.112.892-.312 1.236-.6.344-.296.608-.66.792-1.092.184-.44.276-.928.276-1.464V90.6c0-.552-.092-1.048-.276-1.488-.184-.44-.448-.808-.792-1.104-.344-.296-.756-.5-1.236-.612V85.92c.792.208 1.472.536 2.04.984.568.44 1.004.976 1.308 1.608.312.624.468 1.32.468 2.088v2.172c0 1.168-.332 2.16-.996 2.976-.664.808-1.604 1.372-2.82 1.692Zm18.531.216V96.3h5.76v1.356h-5.76Zm38.381 0V96.3h5.76v1.356h-5.76Zm10.255-.216v-1.512c.48-.112.892-.312 1.236-.6.344-.296.608-.66.792-1.092.184-.44.276-.928.276-1.464V90.6c0-.552-.092-1.048-.276-1.488-.184-.44-.448-.808-.792-1.104-.344-.296-.756-.5-1.236-.612V85.92c.792.208 1.472.536 2.04.984.568.44 1.004.976 1.308 1.608.312.624.468 1.32.468 2.088v2.172c0 1.168-.332 2.16-.996 2.976-.664.808-1.604 1.372-2.82 1.692ZM10.4393 113.32v-11.28h1.512v11.28h-1.512Zm9.8666.336V112.3h12.96v1.356h-12.96Zm21.8953-.216c-1.216-.32-2.156-.884-2.82-1.692-.664-.816-.996-1.808-.996-2.976V106.6c0-.768.152-1.464.456-2.088.312-.632.752-1.168 1.32-1.608.576-.448 1.256-.776 2.04-.984v1.476c-.472.112-.884.316-1.236.612-.344.296-.608.664-.792 1.104-.184.44-.276.936-.276 1.488v2.172c0 .536.092 1.024.276 1.464.184.432.448.796.792 1.092.352.288.764.488 1.236.6v1.512Zm14.7507 0v-1.512c.48-.112.892-.312 1.236-.6.344-.296.608-.66.792-1.092.184-.44.276-.928.276-1.464V106.6c0-.552-.092-1.048-.276-1.488-.184-.44-.448-.808-.792-1.104-.344-.296-.756-.5-1.236-.612v-1.476c.792.208 1.472.536 2.04.984.568.44 1.004.976 1.308 1.608.312.624.468 1.32.468 2.088v2.172c0 1.168-.332 2.16-.996 2.976-.664.808-1.604 1.372-2.82 1.692Zm8.9353.216V112.3h5.76v1.356h-5.76Zm11.7193-.336v-11.28h1.512v11.28h-1.512Zm9.8666.336V112.3h12.9599v1.356H87.4731Zm21.8949-.216c-1.216-.32-2.156-.884-2.82-1.692-.664-.816-.996-1.808-.996-2.976V106.6c0-.768.152-1.464.456-2.088.312-.632.752-1.168 1.32-1.608.576-.448 1.256-.776 2.04-.984v1.476c-.472.112-.884.316-1.236.612-.344.296-.608.664-.792 1.104-.184.44-.276.936-.276 1.488v2.172c0 .536.092 1.024.276 1.464.184.432.448.796.792 1.092.352.288.764.488 1.236.6v1.512Zm14.751 0v-1.512c.48-.112.892-.312 1.236-.6.344-.296.608-.66.792-1.092.184-.44.276-.928.276-1.464V106.6c0-.552-.092-1.048-.276-1.488-.184-.44-.448-.808-.792-1.104-.344-.296-.756-.5-1.236-.612v-1.476c.792.208 1.472.536 2.04.984.568.44 1.004.976 1.308 1.608.312.624.468 1.32.468 2.088v2.172c0 1.168-.332 2.16-.996 2.976-.664.808-1.604 1.372-2.82 1.692Zm8.935.216V112.3h5.76v1.356h-5.76Zm11.72-.336v-11.28h1.512v11.28h-1.512Zm9.866.336V112.3h12.96v1.356h-12.96Zm21.896-.216c-1.216-.32-2.156-.884-2.82-1.692-.664-.816-.996-1.808-.996-2.976V106.6c0-.768.152-1.464.456-2.088.312-.632.752-1.168 1.32-1.608.576-.448 1.256-.776 2.04-.984v1.476c-.472.112-.884.316-1.236.612-.344.296-.608.664-.792 1.104-.184.44-.276.936-.276 1.488v2.172c0 .536.092 1.024.276 1.464.184.432.448.796.792 1.092.352.288.764.488 1.236.6v1.512Zm14.75 0v-1.512c.48-.112.892-.312 1.236-.6.344-.296.608-.66.792-1.092.184-.44.276-.928.276-1.464V106.6c0-.552-.092-1.048-.276-1.488-.184-.44-.448-.808-.792-1.104-.344-.296-.756-.5-1.236-.612v-1.476c.792.208 1.472.536 2.04.984.568.44 1.004.976 1.308 1.608.312.624.468 1.32.468 2.088v2.172c0 1.168-.332 2.16-.996 2.976-.664.808-1.604 1.372-2.82 1.692Zm8.936.216V112.3h5.76v1.356h-5.76Zm11.719-.336v-11.28h1.512v11.28h-1.512Zm9.867.336V112.3h12.96v1.356h-12.96Zm21.895-.216c-1.216-.32-2.156-.884-2.82-1.692-.664-.816-.996-1.808-.996-2.976V106.6c0-.768.152-1.464.456-2.088.312-.632.752-1.168 1.32-1.608.576-.448 1.256-.776 2.04-.984v1.476c-.472.112-.884.316-1.236.612-.344.296-.608.664-.792 1.104-.184.44-.276.936-.276 1.488v2.172c0 .536.092 1.024.276 1.464.184.432.448.796.792 1.092.352.288.764.488 1.236.6v1.512Zm14.75 0v-1.512c.48-.112.892-.312 1.236-.6.344-.296.608-.66.792-1.092.184-.44.276-.928.276-1.464V106.6c0-.552-.092-1.048-.276-1.488-.184-.44-.448-.808-.792-1.104-.344-.296-.756-.5-1.236-.612v-1.476c.792.208 1.472.536 2.04.984.568.44 1.004.976 1.308 1.608.312.624.468 1.32.468 2.088v2.172c0 1.168-.332 2.16-.996 2.976-.664.808-1.604 1.372-2.82 1.692Zm8.936.216V112.3h5.76v1.356h-5.76Zm11.719-.336v-11.28h1.512v11.28h-1.512Zm9.867.336V112.3h12.96v1.356h-12.96Zm21.895-.216c-1.216-.32-2.156-.884-2.82-1.692-.664-.816-.996-1.808-.996-2.976V106.6c0-.768.152-1.464.456-2.088.312-.632.752-1.168 1.32-1.608.576-.448 1.256-.776 2.04-.984v1.476c-.472.112-.884.316-1.236.612-.344.296-.608.664-.792 1.104-.184.44-.276.936-.276 1.488v2.172c0 .536.092 1.024.276 1.464.184.432.448.796.792 1.092.352.288.764.488 1.236.6v1.512Zm14.751 0v-1.512c.48-.112.892-.312 1.236-.6.344-.296.608-.66.792-1.092.184-.44.276-.928.276-1.464V106.6c0-.552-.092-1.048-.276-1.488-.184-.44-.448-.808-.792-1.104-.344-.296-.756-.5-1.236-.612v-1.476c.792.208 1.472.536 2.04.984.568.44 1.004.976 1.308 1.608.312.624.468 1.32.468 2.088v2.172c0 1.168-.332 2.16-.996 2.976-.664.808-1.604 1.372-2.82 1.692Zm8.935.216V112.3h5.76v1.356h-5.76Zm11.719-.336v-11.28h1.512v11.28h-1.512Zm9.867.336V112.3h12.96v1.356h-12.96Zm21.895-.216c-1.216-.32-2.156-.884-2.82-1.692-.664-.816-.996-1.808-.996-2.976V106.6c0-.768.152-1.464.456-2.088.312-.632.752-1.168 1.32-1.608.576-.448 1.256-.776 2.04-.984v1.476c-.472.112-.884.316-1.236.612-.344.296-.608.664-.792 1.104-.184.44-.276.936-.276 1.488v2.172c0 .536.092 1.024.276 1.464.184.432.448.796.792 1.092.352.288.764.488 1.236.6v1.512Zm14.751 0v-1.512c.48-.112.892-.312 1.236-.6.344-.296.608-.66.792-1.092.184-.44.276-.928.276-1.464V106.6c0-.552-.092-1.048-.276-1.488-.184-.44-.448-.808-.792-1.104-.344-.296-.756-.5-1.236-.612v-1.476c.792.208 1.472.536 2.04.984.568.44 1.004.976 1.308 1.608.312.624.468 1.32.468 2.088v2.172c0 1.168-.332 2.16-.996 2.976-.664.808-1.604 1.372-2.82 1.692Zm8.935.216V112.3h5.76v1.356h-5.76Zm11.719-.336v-11.28h1.512v11.28h-1.512Zm9.867.336V112.3h12.96v1.356h-12.96Zm21.895-.216c-1.216-.32-2.156-.884-2.82-1.692-.664-.816-.996-1.808-.996-2.976V106.6c0-.768.152-1.464.456-2.088.312-.632.752-1.168 1.32-1.608.576-.448 1.256-.776 2.04-.984v1.476c-.472.112-.884.316-1.236.612-.344.296-.608.664-.792 1.104-.184.44-.276.936-.276 1.488v2.172c0 .536.092 1.024.276 1.464.184.432.448.796.792 1.092.352.288.764.488 1.236.6v1.512Zm14.751 0v-1.512c.48-.112.892-.312 1.236-.6.344-.296.608-.66.792-1.092.184-.44.276-.928.276-1.464V106.6c0-.552-.092-1.048-.276-1.488-.184-.44-.448-.808-.792-1.104-.344-.296-.756-.5-1.236-.612v-1.476c.792.208 1.472.536 2.04.984.568.44 1.004.976 1.308 1.608.312.624.468 1.32.468 2.088v2.172c0 1.168-.332 2.16-.996 2.976-.664.808-1.604 1.372-2.82 1.692Zm8.935.216V112.3h5.76v1.356h-5.76Zm11.72-.336v-11.28h1.512v11.28h-1.512ZM8.31531 129.656V128.3h5.75999v1.356H8.31531Zm11.71929-.336v-11.28h1.512v11.28h-1.512Zm55.4479.336V128.3h5.76v1.356h-5.76Zm11.7193-.336v-11.28h1.512v11.28h-1.512Zm55.4482.336V128.3h5.76v1.356h-5.76Zm11.719-.336v-11.28h1.512v11.28h-1.512Zm55.448.336V128.3h5.76v1.356h-5.76Zm11.719-.336v-11.28h1.512v11.28h-1.512Zm55.448.336V128.3h5.76v1.356h-5.76Zm11.719-.336v-11.28h1.512v11.28h-1.512Zm55.448.336V128.3h5.76v1.356h-5.76Zm11.72-.336v-11.28h1.512v11.28h-1.512Zm55.447.336V128.3h5.76v1.356h-5.76Zm11.72-.336v-11.28h1.512v11.28h-1.512Zm55.448.336V128.3h5.76v1.356h-5.76Zm11.719-.336v-11.28h1.512v11.28h-1.512ZM3.82 145.44c-1.216-.32-2.156-.884-2.82-1.692-.664-.816-.99599987-1.808-.99599987-2.976V138.6c0-.768.15199987-1.464.45599987-2.088.312-.632.752-1.168 1.32-1.608.576-.448 1.256-.776 2.04-.984v1.476c-.472.112-.884.316-1.236.612-.344.296-.608.664-.792 1.104-.184.44-.276.936-.276 1.488v2.172c0 .536.092 1.024.276 1.464.184.432.448.796.792 1.092.352.288.764.488 1.236.6v1.512Zm4.49531.216V144.3h5.75999v1.356H8.31531Zm38.38129 0V144.3h5.76v1.356h-5.76Zm24.2906-.216c-1.216-.32-2.156-.884-2.82-1.692-.664-.816-.996-1.808-.996-2.976V138.6c0-.768.152-1.464.456-2.088.312-.632.752-1.168 1.32-1.608.576-.448 1.256-.776 2.04-.984v1.476c-.472.112-.884.316-1.236.612-.344.296-.608.664-.792 1.104-.184.44-.276.936-.276 1.488v2.172c0 .536.092 1.024.276 1.464.184.432.448.796.792 1.092.352.288.764.488 1.236.6v1.512Zm4.4953.216V144.3h5.76v1.356h-5.76Zm38.3815 0V144.3h5.76v1.356h-5.76Zm24.29-.216c-1.216-.32-2.156-.884-2.82-1.692-.664-.816-.996-1.808-.996-2.976V138.6c0-.768.152-1.464.456-2.088.312-.632.752-1.168 1.32-1.608.576-.448 1.256-.776 2.04-.984v1.476c-.472.112-.884.316-1.236.612-.344.296-.608.664-.792 1.104-.184.44-.276.936-.276 1.488v2.172c0 .536.092 1.024.276 1.464.184.432.448.796.792 1.092.352.288.764.488 1.236.6v1.512Zm4.496.216V144.3h5.76v1.356h-5.76Zm38.381 0V144.3h5.76v1.356h-5.76Zm24.291-.216c-1.216-.32-2.156-.884-2.82-1.692-.664-.816-.996-1.808-.996-2.976V138.6c0-.768.152-1.464.456-2.088.312-.632.752-1.168 1.32-1.608.576-.448 1.256-.776 2.04-.984v1.476c-.472.112-.884.316-1.236.612-.344.296-.608.664-.792 1.104-.184.44-.276.936-.276 1.488v2.172c0 .536.092 1.024.276 1.464.184.432.448.796.792 1.092.352.288.764.488 1.236.6v1.512Zm4.495.216V144.3h5.76v1.356h-5.76Zm38.381 0V144.3h5.76v1.356h-5.76Zm24.291-.216c-1.216-.32-2.156-.884-2.82-1.692-.664-.816-.996-1.808-.996-2.976V138.6c0-.768.152-1.464.456-2.088.312-.632.752-1.168 1.32-1.608.576-.448 1.256-.776 2.04-.984v1.476c-.472.112-.884.316-1.236.612-.344.296-.608.664-.792 1.104-.184.44-.276.936-.276 1.488v2.172c0 .536.092 1.024.276 1.464.184.432.448.796.792 1.092.352.288.764.488 1.236.6v1.512Zm4.495.216V144.3h5.76v1.356h-5.76Zm38.381 0V144.3h5.76v1.356h-5.76Zm24.291-.216c-1.216-.32-2.156-.884-2.82-1.692-.664-.816-.996-1.808-.996-2.976V138.6c0-.768.152-1.464.456-2.088.312-.632.752-1.168 1.32-1.608.576-.448 1.256-.776 2.04-.984v1.476c-.472.112-.884.316-1.236.612-.344.296-.608.664-.792 1.104-.184.44-.276.936-.276 1.488v2.172c0 .536.092 1.024.276 1.464.184.432.448.796.792 1.092.352.288.764.488 1.236.6v1.512Zm4.495.216V144.3h5.76v1.356h-5.76Zm38.382 0V144.3h5.76v1.356h-5.76Zm24.29-.216c-1.216-.32-2.156-.884-2.82-1.692-.664-.816-.996-1.808-.996-2.976V138.6c0-.768.152-1.464.456-2.088.312-.632.752-1.168 1.32-1.608.576-.448 1.256-.776 2.04-.984v1.476c-.472.112-.884.316-1.236.612-.344.296-.608.664-.792 1.104-.184.44-.276.936-.276 1.488v2.172c0 .536.092 1.024.276 1.464.184.432.448.796.792 1.092.352.288.764.488 1.236.6v1.512Zm4.495.216V144.3h5.76v1.356h-5.76Zm38.382 0V144.3h5.76v1.356h-5.76Zm24.29-.216c-1.216-.32-2.156-.884-2.82-1.692-.664-.816-.996-1.808-.996-2.976V138.6c0-.768.152-1.464.456-2.088.312-.632.752-1.168 1.32-1.608.576-.448 1.256-.776 2.04-.984v1.476c-.472.112-.884.316-1.236.612-.344.296-.608.664-.792 1.104-.184.44-.276.936-.276 1.488v2.172c0 .536.092 1.024.276 1.464.184.432.448.796.792 1.092.352.288.764.488 1.236.6v1.512Zm4.496.216V144.3h5.76v1.356h-5.76ZM10.4393 161.32v-11.28h1.512v11.28h-1.512Zm9.8666.336V160.3h12.96v1.356h-12.96Zm21.8953-.216c-1.216-.32-2.156-.884-2.82-1.692-.664-.816-.996-1.808-.996-2.976V154.6c0-.768.152-1.464.456-2.088.312-.632.752-1.168 1.32-1.608.576-.448 1.256-.776 2.04-.984v1.476c-.472.112-.884.316-1.236.612-.344.296-.608.664-.792 1.104-.184.44-.276.936-.276 1.488v2.172c0 .536.092 1.024.276 1.464.184.432.448.796.792 1.092.352.288.764.488 1.236.6v1.512Zm14.7507 0v-1.512c.48-.112.892-.312 1.236-.6.344-.296.608-.66.792-1.092.184-.44.276-.928.276-1.464V154.6c0-.552-.092-1.048-.276-1.488-.184-.44-.448-.808-.792-1.104-.344-.296-.756-.5-1.236-.612v-1.476c.792.208 1.472.536 2.04.984.568.44 1.004.976 1.308 1.608.312.624.468 1.32.468 2.088v2.172c0 1.168-.332 2.16-.996 2.976-.664.808-1.604 1.372-2.82 1.692Zm8.9353.216V160.3h5.76v1.356h-5.76Zm11.7193-.336v-11.28h1.512v11.28h-1.512Zm9.8666.336V160.3h12.9599v1.356H87.4731Zm21.8949-.216c-1.216-.32-2.156-.884-2.82-1.692-.664-.816-.996-1.808-.996-2.976V154.6c0-.768.152-1.464.456-2.088.312-.632.752-1.168 1.32-1.608.576-.448 1.256-.776 2.04-.984v1.476c-.472.112-.884.316-1.236.612-.344.296-.608.664-.792 1.104-.184.44-.276.936-.276 1.488v2.172c0 .536.092 1.024.276 1.464.184.432.448.796.792 1.092.352.288.764.488 1.236.6v1.512Zm14.751 0v-1.512c.48-.112.892-.312 1.236-.6.344-.296.608-.66.792-1.092.184-.44.276-.928.276-1.464V154.6c0-.552-.092-1.048-.276-1.488-.184-.44-.448-.808-.792-1.104-.344-.296-.756-.5-1.236-.612v-1.476c.792.208 1.472.536 2.04.984.568.44 1.004.976 1.308 1.608.312.624.468 1.32.468 2.088v2.172c0 1.168-.332 2.16-.996 2.976-.664.808-1.604 1.372-2.82 1.692Zm8.935.216V160.3h5.76v1.356h-5.76Zm11.72-.336v-11.28h1.512v11.28h-1.512Zm9.866.336V160.3h12.96v1.356h-12.96Zm21.896-.216c-1.216-.32-2.156-.884-2.82-1.692-.664-.816-.996-1.808-.996-2.976V154.6c0-.768.152-1.464.456-2.088.312-.632.752-1.168 1.32-1.608.576-.448 1.256-.776 2.04-.984v1.476c-.472.112-.884.316-1.236.612-.344.296-.608.664-.792 1.104-.184.44-.276.936-.276 1.488v2.172c0 .536.092 1.024.276 1.464.184.432.448.796.792 1.092.352.288.764.488 1.236.6v1.512Zm14.75 0v-1.512c.48-.112.892-.312 1.236-.6.344-.296.608-.66.792-1.092.184-.44.276-.928.276-1.464V154.6c0-.552-.092-1.048-.276-1.488-.184-.44-.448-.808-.792-1.104-.344-.296-.756-.5-1.236-.612v-1.476c.792.208 1.472.536 2.04.984.568.44 1.004.976 1.308 1.608.312.624.468 1.32.468 2.088v2.172c0 1.168-.332 2.16-.996 2.976-.664.808-1.604 1.372-2.82 1.692Zm8.936.216V160.3h5.76v1.356h-5.76Zm11.719-.336v-11.28h1.512v11.28h-1.512Zm9.867.336V160.3h12.96v1.356h-12.96Zm21.895-.216c-1.216-.32-2.156-.884-2.82-1.692-.664-.816-.996-1.808-.996-2.976V154.6c0-.768.152-1.464.456-2.088.312-.632.752-1.168 1.32-1.608.576-.448 1.256-.776 2.04-.984v1.476c-.472.112-.884.316-1.236.612-.344.296-.608.664-.792 1.104-.184.44-.276.936-.276 1.488v2.172c0 .536.092 1.024.276 1.464.184.432.448.796.792 1.092.352.288.764.488 1.236.6v1.512Zm14.75 0v-1.512c.48-.112.892-.312 1.236-.6.344-.296.608-.66.792-1.092.184-.44.276-.928.276-1.464V154.6c0-.552-.092-1.048-.276-1.488-.184-.44-.448-.808-.792-1.104-.344-.296-.756-.5-1.236-.612v-1.476c.792.208 1.472.536 2.04.984.568.44 1.004.976 1.308 1.608.312.624.468 1.32.468 2.088v2.172c0 1.168-.332 2.16-.996 2.976-.664.808-1.604 1.372-2.82 1.692Zm8.936.216V160.3h5.76v1.356h-5.76Zm11.719-.336v-11.28h1.512v11.28h-1.512Zm9.867.336V160.3h12.96v1.356h-12.96Zm21.895-.216c-1.216-.32-2.156-.884-2.82-1.692-.664-.816-.996-1.808-.996-2.976V154.6c0-.768.152-1.464.456-2.088.312-.632.752-1.168 1.32-1.608.576-.448 1.256-.776 2.04-.984v1.476c-.472.112-.884.316-1.236.612-.344.296-.608.664-.792 1.104-.184.44-.276.936-.276 1.488v2.172c0 .536.092 1.024.276 1.464.184.432.448.796.792 1.092.352.288.764.488 1.236.6v1.512Zm14.751 0v-1.512c.48-.112.892-.312 1.236-.6.344-.296.608-.66.792-1.092.184-.44.276-.928.276-1.464V154.6c0-.552-.092-1.048-.276-1.488-.184-.44-.448-.808-.792-1.104-.344-.296-.756-.5-1.236-.612v-1.476c.792.208 1.472.536 2.04.984.568.44 1.004.976 1.308 1.608.312.624.468 1.32.468 2.088v2.172c0 1.168-.332 2.16-.996 2.976-.664.808-1.604 1.372-2.82 1.692Zm8.935.216V160.3h5.76v1.356h-5.76Zm11.719-.336v-11.28h1.512v11.28h-1.512Zm9.867.336V160.3h12.96v1.356h-12.96Zm21.895-.216c-1.216-.32-2.156-.884-2.82-1.692-.664-.816-.996-1.808-.996-2.976V154.6c0-.768.152-1.464.456-2.088.312-.632.752-1.168 1.32-1.608.576-.448 1.256-.776 2.04-.984v1.476c-.472.112-.884.316-1.236.612-.344.296-.608.664-.792 1.104-.184.44-.276.936-.276 1.488v2.172c0 .536.092 1.024.276 1.464.184.432.448.796.792 1.092.352.288.764.488 1.236.6v1.512Zm14.751 0v-1.512c.48-.112.892-.312 1.236-.6.344-.296.608-.66.792-1.092.184-.44.276-.928.276-1.464V154.6c0-.552-.092-1.048-.276-1.488-.184-.44-.448-.808-.792-1.104-.344-.296-.756-.5-1.236-.612v-1.476c.792.208 1.472.536 2.04.984.568.44 1.004.976 1.308 1.608.312.624.468 1.32.468 2.088v2.172c0 1.168-.332 2.16-.996 2.976-.664.808-1.604 1.372-2.82 1.692Zm8.935.216V160.3h5.76v1.356h-5.76Zm11.719-.336v-11.28h1.512v11.28h-1.512Zm9.867.336V160.3h12.96v1.356h-12.96Zm21.895-.216c-1.216-.32-2.156-.884-2.82-1.692-.664-.816-.996-1.808-.996-2.976V154.6c0-.768.152-1.464.456-2.088.312-.632.752-1.168 1.32-1.608.576-.448 1.256-.776 2.04-.984v1.476c-.472.112-.884.316-1.236.612-.344.296-.608.664-.792 1.104-.184.44-.276.936-.276 1.488v2.172c0 .536.092 1.024.276 1.464.184.432.448.796.792 1.092.352.288.764.488 1.236.6v1.512Zm14.751 0v-1.512c.48-.112.892-.312 1.236-.6.344-.296.608-.66.792-1.092.184-.44.276-.928.276-1.464V154.6c0-.552-.092-1.048-.276-1.488-.184-.44-.448-.808-.792-1.104-.344-.296-.756-.5-1.236-.612v-1.476c.792.208 1.472.536 2.04.984.568.44 1.004.976 1.308 1.608.312.624.468 1.32.468 2.088v2.172c0 1.168-.332 2.16-.996 2.976-.664.808-1.604 1.372-2.82 1.692Zm8.935.216V160.3h5.76v1.356h-5.76Zm11.72-.336v-11.28h1.512v11.28h-1.512Zm-470.1707 16v-11.28h1.512v11.28h-1.512Zm7.4713.336V176.3h5.76v1.356h-5.76Zm59.6959-.336v-11.28h1.512v11.28h-1.512Zm7.4713.336V176.3h5.76v1.356h-5.76Zm59.6962-.336v-11.28h1.512v11.28h-1.512Zm7.471.336V176.3h5.76v1.356h-5.76Zm59.696-.336v-11.28h1.512v11.28h-1.512Zm7.471.336V176.3h5.76v1.356h-5.76Zm59.696-.336v-11.28h1.512v11.28h-1.512Zm7.471.336V176.3h5.76v1.356h-5.76Zm59.696-.336v-11.28h1.512v11.28h-1.512Zm7.472.336V176.3h5.76v1.356h-5.76Zm59.695-.336v-11.28h1.512v11.28h-1.512Zm7.472.336V176.3h5.76v1.356h-5.76Zm59.696-.336v-11.28h1.512v11.28h-1.512Zm7.471.336V176.3h5.76v1.356h-5.76Zm-470.1704 16V192.3h5.76v1.356h-5.76Zm10.2553-.216v-1.512c.48-.112.892-.312 1.236-.6.344-.296.608-.66.792-1.092.184-.44.276-.928.276-1.464V186.6c0-.552-.092-1.048-.276-1.488-.184-.44-.448-.808-.792-1.104-.344-.296-.756-.5-1.236-.612v-1.476c.792.208 1.472.536 2.04.984.568.44 1.004.976 1.308 1.608.312.624.468 1.32.468 2.088v2.172c0 1.168-.332 2.16-.996 2.976-.664.808-1.604 1.372-2.82 1.692Zm18.5307.216V192.3h5.76v1.356h-5.76Zm38.3812 0V192.3h5.76v1.356h-5.76Zm10.2553-.216v-1.512c.48-.112.892-.312 1.236-.6.344-.296.608-.66.792-1.092.184-.44.276-.928.276-1.464V186.6c0-.552-.092-1.048-.276-1.488-.184-.44-.448-.808-.792-1.104-.344-.296-.756-.5-1.236-.612v-1.476c.792.208 1.472.536 2.04.984.568.44 1.004.976 1.308 1.608.312.624.468 1.32.468 2.088v2.172c0 1.168-.332 2.16-.996 2.976-.664.808-1.604 1.372-2.82 1.692Zm18.5309.216V192.3h5.76v1.356h-5.76Zm38.381 0V192.3h5.76v1.356h-5.76Zm10.255-.216v-1.512c.48-.112.892-.312 1.236-.6.344-.296.608-.66.792-1.092.184-.44.276-.928.276-1.464V186.6c0-.552-.092-1.048-.276-1.488-.184-.44-.448-.808-.792-1.104-.344-.296-.756-.5-1.236-.612v-1.476c.792.208 1.472.536 2.04.984.568.44 1.004.976 1.308 1.608.312.624.468 1.32.468 2.088v2.172c0 1.168-.332 2.16-.996 2.976-.664.808-1.604 1.372-2.82 1.692Zm18.531.216V192.3h5.76v1.356h-5.76Zm38.381 0V192.3h5.76v1.356h-5.76Zm10.256-.216v-1.512c.48-.112.892-.312 1.236-.6.344-.296.608-.66.792-1.092.184-.44.276-.928.276-1.464V186.6c0-.552-.092-1.048-.276-1.488-.184-.44-.448-.808-.792-1.104-.344-.296-.756-.5-1.236-.612v-1.476c.792.208 1.472.536 2.04.984.568.44 1.004.976 1.308 1.608.312.624.468 1.32.468 2.088v2.172c0 1.168-.332 2.16-.996 2.976-.664.808-1.604 1.372-2.82 1.692Zm18.53.216V192.3h5.76v1.356h-5.76Zm38.381 0V192.3h5.76v1.356h-5.76Zm10.256-.216v-1.512c.48-.112.892-.312 1.236-.6.344-.296.608-.66.792-1.092.184-.44.276-.928.276-1.464V186.6c0-.552-.092-1.048-.276-1.488-.184-.44-.448-.808-.792-1.104-.344-.296-.756-.5-1.236-.612v-1.476c.792.208 1.472.536 2.04.984.568.44 1.004.976 1.308 1.608.312.624.468 1.32.468 2.088v2.172c0 1.168-.332 2.16-.996 2.976-.664.808-1.604 1.372-2.82 1.692Zm18.53.216V192.3h5.76v1.356h-5.76Zm38.382 0V192.3h5.76v1.356h-5.76Zm10.255-.216v-1.512c.48-.112.892-.312 1.236-.6.344-.296.608-.66.792-1.092.184-.44.276-.928.276-1.464V186.6c0-.552-.092-1.048-.276-1.488-.184-.44-.448-.808-.792-1.104-.344-.296-.756-.5-1.236-.612v-1.476c.792.208 1.472.536 2.04.984.568.44 1.004.976 1.308 1.608.312.624.468 1.32.468 2.088v2.172c0 1.168-.332 2.16-.996 2.976-.664.808-1.604 1.372-2.82 1.692Zm18.531.216V192.3h5.76v1.356h-5.76Zm38.381 0V192.3h5.76v1.356h-5.76Zm10.255-.216v-1.512c.48-.112.892-.312 1.236-.6.344-.296.608-.66.792-1.092.184-.44.276-.928.276-1.464V186.6c0-.552-.092-1.048-.276-1.488-.184-.44-.448-.808-.792-1.104-.344-.296-.756-.5-1.236-.612v-1.476c.792.208 1.472.536 2.04.984.568.44 1.004.976 1.308 1.608.312.624.468 1.32.468 2.088v2.172c0 1.168-.332 2.16-.996 2.976-.664.808-1.604 1.372-2.82 1.692Zm18.531.216V192.3h5.76v1.356h-5.76Zm9.499-1.656v-6.6h1.224v.888h.252l-.204.216c0-.368.104-.664.312-.888.208-.224.476-.336.804-.336.352 0 .624.144.816.432.2.288.3.676.3 1.164l-.264-.588h.408l-.156.216c0-.368.104-.664.312-.888.208-.224.484-.336.828-.336.408 0 .732.152.972.456.24.304.36.716.36 1.236V192h-1.32v-4.968c0-.216-.048-.384-.144-.504-.096-.128-.236-.192-.42-.192-.176 0-.316.06-.42.18-.096.12-.144.292-.144.516V192h-1.08v-4.968c0-.224-.048-.396-.144-.516-.096-.12-.236-.18-.42-.18s-.324.06-.42.18c-.088.12-.132.292-.132.516V192h-1.32Zm9.403 0 2.304-3.408-2.148-3.192h1.692l1.02 1.62c.064.096.12.204.168.324.056.12.1.216.132.288.032-.072.076-.168.132-.288.056-.12.112-.228.168-.324l1.032-1.62h1.692l-2.148 3.192 2.292 3.408h-1.704l-1.14-1.812c-.064-.104-.124-.216-.18-.336-.056-.12-.104-.216-.144-.288-.032.072-.076.168-.132.288-.056.12-.116.232-.18.336L470.294 192h-1.692Zm19.479 1.656V192.3h5.76v1.356h-5.76Zm10.255-.216v-1.512c.48-.112.892-.312 1.236-.6.344-.296.608-.66.792-1.092.184-.44.276-.928.276-1.464V186.6c0-.552-.092-1.048-.276-1.488-.184-.44-.448-.808-.792-1.104-.344-.296-.756-.5-1.236-.612v-1.476c.792.208 1.472.536 2.04.984.568.44 1.004.976 1.308 1.608.312.624.468 1.32.468 2.088v2.172c0 1.168-.332 2.16-.996 2.976-.664.808-1.604 1.372-2.82 1.692ZM10.4393 209.32v-11.28h1.512v11.28h-1.512Zm9.8666.336V208.3h12.96v1.356h-12.96Zm21.8953-.216c-1.216-.32-2.156-.884-2.82-1.692-.664-.816-.996-1.808-.996-2.976V202.6c0-.768.152-1.464.456-2.088.312-.632.752-1.168 1.32-1.608.576-.448 1.256-.776 2.04-.984v1.476c-.472.112-.884.316-1.236.612-.344.296-.608.664-.792 1.104-.184.44-.276.936-.276 1.488v2.172c0 .536.092 1.024.276 1.464.184.432.448.796.792 1.092.352.288.764.488 1.236.6v1.512Zm14.7507 0v-1.512c.48-.112.892-.312 1.236-.6.344-.296.608-.66.792-1.092.184-.44.276-.928.276-1.464V202.6c0-.552-.092-1.048-.276-1.488-.184-.44-.448-.808-.792-1.104-.344-.296-.756-.5-1.236-.612v-1.476c.792.208 1.472.536 2.04.984.568.44 1.004.976 1.308 1.608.312.624.468 1.32.468 2.088v2.172c0 1.168-.332 2.16-.996 2.976-.664.808-1.604 1.372-2.82 1.692Zm8.9353.216V208.3h5.76v1.356h-5.76Zm11.7193-.336v-11.28h1.512v11.28h-1.512Zm9.8666.336V208.3h12.9599v1.356H87.4731Zm21.8949-.216c-1.216-.32-2.156-.884-2.82-1.692-.664-.816-.996-1.808-.996-2.976V202.6c0-.768.152-1.464.456-2.088.312-.632.752-1.168 1.32-1.608.576-.448 1.256-.776 2.04-.984v1.476c-.472.112-.884.316-1.236.612-.344.296-.608.664-.792 1.104-.184.44-.276.936-.276 1.488v2.172c0 .536.092 1.024.276 1.464.184.432.448.796.792 1.092.352.288.764.488 1.236.6v1.512Zm14.751 0v-1.512c.48-.112.892-.312 1.236-.6.344-.296.608-.66.792-1.092.184-.44.276-.928.276-1.464V202.6c0-.552-.092-1.048-.276-1.488-.184-.44-.448-.808-.792-1.104-.344-.296-.756-.5-1.236-.612v-1.476c.792.208 1.472.536 2.04.984.568.44 1.004.976 1.308 1.608.312.624.468 1.32.468 2.088v2.172c0 1.168-.332 2.16-.996 2.976-.664.808-1.604 1.372-2.82 1.692Zm8.935.216V208.3h5.76v1.356h-5.76Zm11.72-.336v-11.28h1.512v11.28h-1.512Zm9.866.336V208.3h12.96v1.356h-12.96Zm21.896-.216c-1.216-.32-2.156-.884-2.82-1.692-.664-.816-.996-1.808-.996-2.976V202.6c0-.768.152-1.464.456-2.088.312-.632.752-1.168 1.32-1.608.576-.448 1.256-.776 2.04-.984v1.476c-.472.112-.884.316-1.236.612-.344.296-.608.664-.792 1.104-.184.44-.276.936-.276 1.488v2.172c0 .536.092 1.024.276 1.464.184.432.448.796.792 1.092.352.288.764.488 1.236.6v1.512Zm14.75 0v-1.512c.48-.112.892-.312 1.236-.6.344-.296.608-.66.792-1.092.184-.44.276-.928.276-1.464V202.6c0-.552-.092-1.048-.276-1.488-.184-.44-.448-.808-.792-1.104-.344-.296-.756-.5-1.236-.612v-1.476c.792.208 1.472.536 2.04.984.568.44 1.004.976 1.308 1.608.312.624.468 1.32.468 2.088v2.172c0 1.168-.332 2.16-.996 2.976-.664.808-1.604 1.372-2.82 1.692Zm8.936.216V208.3h5.76v1.356h-5.76Zm11.719-.336v-11.28h1.512v11.28h-1.512Zm9.867.336V208.3h12.96v1.356h-12.96Zm21.895-.216c-1.216-.32-2.156-.884-2.82-1.692-.664-.816-.996-1.808-.996-2.976V202.6c0-.768.152-1.464.456-2.088.312-.632.752-1.168 1.32-1.608.576-.448 1.256-.776 2.04-.984v1.476c-.472.112-.884.316-1.236.612-.344.296-.608.664-.792 1.104-.184.44-.276.936-.276 1.488v2.172c0 .536.092 1.024.276 1.464.184.432.448.796.792 1.092.352.288.764.488 1.236.6v1.512Zm14.75 0v-1.512c.48-.112.892-.312 1.236-.6.344-.296.608-.66.792-1.092.184-.44.276-.928.276-1.464V202.6c0-.552-.092-1.048-.276-1.488-.184-.44-.448-.808-.792-1.104-.344-.296-.756-.5-1.236-.612v-1.476c.792.208 1.472.536 2.04.984.568.44 1.004.976 1.308 1.608.312.624.468 1.32.468 2.088v2.172c0 1.168-.332 2.16-.996 2.976-.664.808-1.604 1.372-2.82 1.692Zm8.936.216V208.3h5.76v1.356h-5.76Zm11.719-.336v-11.28h1.512v11.28h-1.512Zm9.867.336V208.3h12.96v1.356h-12.96Zm21.895-.216c-1.216-.32-2.156-.884-2.82-1.692-.664-.816-.996-1.808-.996-2.976V202.6c0-.768.152-1.464.456-2.088.312-.632.752-1.168 1.32-1.608.576-.448 1.256-.776 2.04-.984v1.476c-.472.112-.884.316-1.236.612-.344.296-.608.664-.792 1.104-.184.44-.276.936-.276 1.488v2.172c0 .536.092 1.024.276 1.464.184.432.448.796.792 1.092.352.288.764.488 1.236.6v1.512Zm14.751 0v-1.512c.48-.112.892-.312 1.236-.6.344-.296.608-.66.792-1.092.184-.44.276-.928.276-1.464V202.6c0-.552-.092-1.048-.276-1.488-.184-.44-.448-.808-.792-1.104-.344-.296-.756-.5-1.236-.612v-1.476c.792.208 1.472.536 2.04.984.568.44 1.004.976 1.308 1.608.312.624.468 1.32.468 2.088v2.172c0 1.168-.332 2.16-.996 2.976-.664.808-1.604 1.372-2.82 1.692Zm8.935.216V208.3h5.76v1.356h-5.76Zm11.719-.336v-11.28h1.512v11.28h-1.512Zm9.867.336V208.3h12.96v1.356h-12.96Zm21.895-.216c-1.216-.32-2.156-.884-2.82-1.692-.664-.816-.996-1.808-.996-2.976V202.6c0-.768.152-1.464.456-2.088.312-.632.752-1.168 1.32-1.608.576-.448 1.256-.776 2.04-.984v1.476c-.472.112-.884.316-1.236.612-.344.296-.608.664-.792 1.104-.184.44-.276.936-.276 1.488v2.172c0 .536.092 1.024.276 1.464.184.432.448.796.792 1.092.352.288.764.488 1.236.6v1.512Zm14.751 0v-1.512c.48-.112.892-.312 1.236-.6.344-.296.608-.66.792-1.092.184-.44.276-.928.276-1.464V202.6c0-.552-.092-1.048-.276-1.488-.184-.44-.448-.808-.792-1.104-.344-.296-.756-.5-1.236-.612v-1.476c.792.208 1.472.536 2.04.984.568.44 1.004.976 1.308 1.608.312.624.468 1.32.468 2.088v2.172c0 1.168-.332 2.16-.996 2.976-.664.808-1.604 1.372-2.82 1.692Zm8.935.216V208.3h5.76v1.356h-5.76Zm11.719-.336v-11.28h1.512v11.28h-1.512Zm9.867.336V208.3h12.96v1.356h-12.96Zm21.895-.216c-1.216-.32-2.156-.884-2.82-1.692-.664-.816-.996-1.808-.996-2.976V202.6c0-.768.152-1.464.456-2.088.312-.632.752-1.168 1.32-1.608.576-.448 1.256-.776 2.04-.984v1.476c-.472.112-.884.316-1.236.612-.344.296-.608.664-.792 1.104-.184.44-.276.936-.276 1.488v2.172c0 .536.092 1.024.276 1.464.184.432.448.796.792 1.092.352.288.764.488 1.236.6v1.512Zm14.751 0v-1.512c.48-.112.892-.312 1.236-.6.344-.296.608-.66.792-1.092.184-.44.276-.928.276-1.464V202.6c0-.552-.092-1.048-.276-1.488-.184-.44-.448-.808-.792-1.104-.344-.296-.756-.5-1.236-.612v-1.476c.792.208 1.472.536 2.04.984.568.44 1.004.976 1.308 1.608.312.624.468 1.32.468 2.088v2.172c0 1.168-.332 2.16-.996 2.976-.664.808-1.604 1.372-2.82 1.692Zm8.935.216V208.3h5.76v1.356h-5.76Zm11.72-.336v-11.28h1.512v11.28h-1.512Z" fill="#fff"/></svg>