<svg width="602" height="294" fill="none" xmlns="http://www.w3.org/2000/svg"><mask id="a" style="mask-type:alpha" maskUnits="userSpaceOnUse" x="0" y="0" width="603" height="294"><path d="M1 0v293.792M10.1059.00002878V293.792M19.2124.00002878V293.792M28.3182.00002878V293.792M37.4241.00002878V293.792M46.5306.00002878V293.792M55.6365.00002878V293.792M64.7423.00002878V293.792M73.8482.00002878V293.792M82.9547.00002878V293.792M92.0606.00002878V293.792M101.166.00002878V293.792M110.273.00002878V293.792M119.379.00002878V293.792M128.485.00002878V293.792M137.591.00002878V293.792M146.697.00002878V293.792M155.803.00002878V293.792M164.909.00002878V293.792M174.015.00002878V293.792M183.121.00002878V293.792M192.227.00002878V293.792M201.334.00002878V293.792M210.439.00002878V293.792M219.545.00002878V293.792M228.652.00002878V293.792M237.758.00002878V293.792M246.864.00002878V293.792M255.969.00002878V293.792M265.076.00002878V293.792M274.182.00002878V293.792M283.288.00002878V293.792M292.394.00002878V293.792M301.5.00002878V293.792M310.606.00002878V293.792M319.712.00002878V293.792M328.818.00002878V293.792M337.924.00002878V293.792M347.031.00002878V293.792M356.137 0v293.792M365.242.00002878V293.792M374.348.00002878V293.792M383.455.00002878V293.792M392.561.00002878V293.792M401.666.00002878V293.792M410.773.00002878V293.792M419.879.00002878V293.792M428.985.00002878V293.792M438.091.00002878V293.792M447.197.00002878V293.792M456.303.00002878V293.792M465.409.00002878V293.792M474.515.00002878V293.792M483.621.00002878V293.792M492.727.00002878V293.792M501.834.00002878V293.792M510.939.00002878V293.792M520.045.00002878V293.792M529.152.00002878V293.792M538.258.00002878V293.792M547.363 0v293.792M556.469.00002878V293.792M565.576 0v293.792M574.682.00002878V293.792M583.788.00002878V293.792M592.894.00002878V293.792M602" stroke="#fff" stroke-width="1.5"/></mask><g mask="url(#a)"><path d="M581.315 295.777H-6.65135c-.66764 1.327-1.29996 2.575-1.89459 3.736-1.18927 2.323-4.33006 1.462-4.33006-1.147 0-1.43 1.1589-2.589 2.5885-2.589h3.63615C10.6646 261.366 51.7431 173.979 75.4407 173.979c34.2563 0 63.0173 49.958 99.0083 49.958 35.99 0 105.556-154.2701 146.75-154.2701s65.724 78.2691 103.45 78.2691c37.725 0 66.096-141.03585 106.423-141.03585 30.404 0 51.64 64.59225 67.413 93.72185 1.771 3.271 2.83 6.888 2.83 10.608v164.547c0 11.046-8.954 20-20 20Z" fill="#fff"/></g></svg>
