<?xml version="1.0" encoding="UTF-8"?>
<svg id="Layer_1" data-name="Layer 1" xmlns="http://www.w3.org/2000/svg" version="1.1" viewBox="0 0 322 322">
  <defs>
    <style>
      .cls-1 {
        fill: #fdff9d;
      }

      .cls-1, .cls-2 {
        stroke-width: 0px;
      }

      .cls-2 {
        fill: #000;
      }
    </style>
  </defs>
  <rect class="cls-1" width="322" height="322"/>
  <path class="cls-2" d="M82.7,95.5v-.2c0-12.3-6.4-18.8-18.6-18.8h-19.4c-.9,0-1.6.7-1.6,1.6v58.8c0,.9.7,1.6,1.6,1.6h4.3c.9,0,1.6-.7,1.6-1.6v-22.7h8.2l14.6,23.5c.3.5.8.8,1.4.8h4.8c.6,0,1.1-.3,1.4-.8.3-.5.3-1.1,0-1.6l-13.7-22c10.1-1.1,15.4-7.5,15.4-18.6ZM50.7,83.6h13.4c7.1,0,11.1,1.9,11.1,11.9s-4.1,11.6-11.1,11.6h-13.4v-23.5ZM145.9,76.5h-35.9c-.9,0-1.6.7-1.6,1.6v3.9c0,.9.7,1.6,1.6,1.6h14.2v47.9h-14.2c-.9,0-1.6.7-1.6,1.6v3.9c0,.9.7,1.6,1.6,1.6h35.9c.9,0,1.6-.7,1.6-1.6v-3.9c0-.9-.7-1.6-1.6-1.6h-14.3v-47.9h14.3c.9,0,1.6-.7,1.6-1.6v-3.9c0-.9-.7-1.6-1.6-1.6ZM195.5,103.8l-2.8-.9c-6.5-2-12.6-4-12.6-11.1s3.8-9.2,11.4-9.2h.5c8.8,0,12.8,3.9,13,12.6,0,.9.7,1.6,1.6,1.6h4.2c.4,0,.8-.2,1.1-.5.3-.3.5-.7.5-1.1-.2-12.6-7.5-19.5-20.4-19.5h-.5c-11.6,0-18.8,6.2-18.9,16.1,0,12.2,10.7,15.7,17.7,17.9l.8.3c.7.2,1.4.4,2.2.7,6.7,2.1,13.1,4,13.1,11.7s-4.4,10-13.2,10h-.4c-9.9,0-14-3.7-14.1-12.7,0-.9-.7-1.6-1.6-1.6h-4.2c-.4,0-.8.2-1.1.5-.3.3-.5.7-.5,1.1.2,12.7,7.9,19.7,21.6,19.7h.4c12.7,0,20.6-6.5,20.6-17s-11-16.3-18.3-18.6c0,0,0,0,0,0ZM258.1,82.6h.3c9,0,12.9,4.4,13.1,14.6,0,.9.7,1.6,1.6,1.6h4.2c.4,0,.8-.2,1.1-.5.3-.3.5-.7.5-1.1-.2-17.9-11.3-21.6-20.5-21.6h-.3c-9.4,0-20.5,3.8-20.5,22.2v19.2c0,18.4,11.2,22.3,20.5,22.3h.3c9.2,0,20.3-3.8,20.5-21.7,0-.4-.2-.8-.5-1.1-.3-.3-.7-.5-1.1-.5h-4.2c-.9,0-1.6.7-1.6,1.6-.1,10.3-4,14.7-13.1,14.7h-.3c-9.3,0-13.1-4.4-13.1-15.2v-19.3c0-10.7,3.8-15.1,13.1-15.1h0s0,0,0,0ZM83.1,238.5h-31.5l32.5-47.9c.2-.3.3-.6.3-.9v-4.5c0-.9-.7-1.6-1.6-1.6h-36.4c-.9,0-1.6.7-1.6,1.6v3.9c0,.9.7,1.6,1.6,1.6h29.5l-32.5,48c-.2.3-.3.6-.3.9v4.4c0,.9.7,1.6,1.6,1.6h38.5c.9,0,1.6-.7,1.6-1.6v-3.9c0-.9-.7-1.6-1.6-1.6,0,0,0,0,0,0ZM145.5,183.5h-35.2c-.9,0-1.6.7-1.6,1.6v58.8c0,.9.7,1.6,1.6,1.6h35.2c.9,0,1.6-.7,1.6-1.6v-3.9c0-.9-.7-1.6-1.6-1.6h-29.4v-20.6h22.4c.9,0,1.6-.7,1.6-1.6v-3.9c0-.9-.7-1.6-1.6-1.6h-22.4v-20.3h29.4c.9,0,1.6-.7,1.6-1.6v-3.9c0-.9-.7-1.6-1.6-1.6h0ZM212.1,202.3c0-12.3-6.4-18.8-18.6-18.8h-19.4c-.9,0-1.6.7-1.6,1.6v58.8c0,.9.7,1.6,1.6,1.6h4.3c.9,0,1.6-.7,1.6-1.6v-22.7h8.2l14.6,23.5c.3.5.8.8,1.4.8h4.8c.6,0,1.1-.3,1.4-.8.3-.5.3-1.1,0-1.6l-13.7-22c10.1-1.1,15.4-7.5,15.4-18.8ZM204.7,202.3v.2c0,9.7-4.1,11.6-11.1,11.6h-13.4v-23.5h13.4c7.1,0,11.1,1.9,11.1,11.7ZM258.5,182.7h-.3c-9.4,0-20.5,3.8-20.5,22.2v19.3c0,18.4,11.2,22.3,20.5,22.3h.3c9.4,0,20.5-3.9,20.5-22.3v-19.3c0-18.4-11.2-22.2-20.5-22.2ZM271.6,204.8v19.3c0,10.7-3.9,15.2-13.1,15.2h-.3c-9.3,0-13.1-4.4-13.1-15.2v-19.3c0-10.7,3.8-15.1,13.1-15.1h.3c9.2,0,13.1,4.5,13.1,15.1Z"/>
</svg>