<svg id="Layer_1" data-name="Layer 1" xmlns="http://www.w3.org/2000/svg" viewBox="0 0 490 342"><path d="M.51,102.64V61.4H3.68c41.29,0,82.59-.08,123.88.05,14.28,0,28.28,1.94,41.33,8.35,19.17,9.43,30.2,25.08,34.3,45.66a83.19,83.19,0,0,1-5.53,51.32c-8.07,18-21.78,29.68-40.37,35.85-.79.27-1.59.52-2.7.87l55,94.68c-1.07.08-1.86.19-2.64.19-13.48,0-27,0-40.44.05a4,4,0,0,1-4-2.33c-17-28.89-34-57.72-51-86.63a5,5,0,0,0-5.14-2.85c-19.37.1-38.73,0-58.1,0-4.69,0-6.08,1.24-6.56,5.86a29.48,29.48,0,0,0-.08,3.12v82.51H.47v-3.08c0-30.1-.07-60.19.08-90.28a73.41,73.41,0,0,1,1.67-14.91c2.71-12.76,11.34-20.44,24.27-21.94a115.42,115.42,0,0,1,12.75-.77c29.61-.06,59.23.07,88.85-.13a50.6,50.6,0,0,0,15.06-2.14c11.84-3.83,17.71-12.86,19.66-24.8a37.11,37.11,0,0,0-1.08-16.56c-3.64-12.5-14.09-20.05-26.78-20.41-21-.61-42.13-.42-63.2-.48-22.4-.06-44.81,0-67.21,0Z" style="fill:#000"/><path d="M292.22,342.24c1.57-5.7,3.08-11.41,4.73-17.09,2.41-8.31,4.93-16.59,7.36-24.9a7.8,7.8,0,0,0,0-2.21h0c8.11,1.15,16.2,2.85,24.35,3.36,25.76,1.6,50.59-1.76,72.73-16.31C420.61,272.42,432,254,438.61,232.33c5.39-17.67,7.05-35.81,6.92-54.2-.14-19.76-2.47-39.16-9.41-57.76C425.44,91.76,406,72.24,376.5,63.16l-1.44-.47L392.48,3.87h98V342.24Z" style="fill:#000"/><path d="M304.3,298c-2-.71-4-1.48-6-2.14-30.33-10-49.23-31-59.1-60.85a130.8,130.8,0,0,1-6.81-35.2c-.52-11.54-1.07-23.15-.44-34.66,1.3-23.68,6.48-46.42,19.89-66.53,13.21-19.8,31.92-31.75,54.87-37a139.55,139.55,0,0,1,67.17,1,7.45,7.45,0,0,1,.92.41c-3.9,13.11-7.79,26.21-11.53,38.76-7.85-.8-15.41-1.95-23-2.28-11.53-.49-22.87.91-33.59,5.54-16.6,7.19-25.72,20.55-30.37,37.41-4.19,15.21-5,30.75-4.21,46.45.51,10,1.59,19.8,4.46,29.35,5.79,19.29,16.45,33.66,40.17,40q-5.7,19.11-11.42,38.22a6.58,6.58,0,0,1-1.06,1.57Z" style="fill:#fff"/><path d="M363.13,102.75a49.52,49.52,0,0,1,24.16,15c8.25,9.42,12.53,20.72,14.62,32.8,3.9,22.58,3.93,45.14-2.08,67.4-4.69,17.37-14.43,30.8-31.77,37.53-12.56,4.87-25.68,5.46-38.93,4.45-3.94-.3-7.84-1-12.25-1.67C332.37,206.17,347.72,154.56,363.13,102.75Z" style="fill:#000"/></svg>