<svg xmlns="http://www.w3.org/2000/svg" fill="none" viewBox="0 0 29 32"><g fill="#000" clip-path="url(#a)"><path d="m16.93 18.432-1.586 4.248a.5.5 0 0 0 0 .366l2.724 7.311 3.153-1.78-3.782-10.145a.271.271 0 0 0-.509 0m3.173-7.148a.271.271 0 0 0-.509 0l-1.586 4.248a.5.5 0 0 0 0 .367l4.465 11.971 3.153-1.78z"/><path d="M14.5 1.983q.119 0 .228.06L26.75 8.83c.14.078.227.222.227.38v13.574a.44.44 0 0 1-.227.38l-12.023 6.794a.47.47 0 0 1-.455 0L2.255 23.17a.44.44 0 0 1-.228-.38V9.21c0-.158.087-.302.228-.38l12.023-6.788a.45.45 0 0 1 .221-.059M14.5 0c-.428 0-.857.111-1.238.327L1.238 7.115A2.42 2.42 0 0 0 0 9.209v13.575c0 .864.475 1.67 1.238 2.101l12.024 6.788a2.52 2.52 0 0 0 2.477 0l12.022-6.788a2.4 2.4 0 0 0 1.239-2.1V9.208c0-.864-.475-1.669-1.238-2.1L15.745.326A2.56 2.56 0 0 0 14.5 0"/><path d="m6.555 27.883 1.104-2.958 2.223 1.806-2.075 1.859zM13.489 8.24h-3.046a.535.535 0 0 0-.509.347L3.4 26.103l3.153 1.78 7.197-19.29a.268.268 0 0 0-.261-.353"/><path d="M18.824 8.24h-3.046a.535.535 0 0 0-.51.347L7.806 28.59l3.153 1.78 8.12-21.77a.267.267 0 0 0-.254-.36"/></g><defs><clipPath id="a"><path fill="#000" d="M0 0h29v32H0z"/></clipPath></defs></svg>