<svg xmlns="http://www.w3.org/2000/svg" fill="none" class="text-black h-6 md:h-7 lg:h-8" viewBox="0 0 115 28"><path fill="currentColor" d="M20.793 3.587 17.538 9.2c-.925 1.594-3.237 1.594-4.162 0l-3.255-5.612L8.118 0h14.708zm-11.358.347 3.244 5.619c.918 1.598-.235 3.582-2.078 3.586H.005L7.374.364zm12.023 0-3.244 5.619c-.919 1.598.235 3.582 2.078 3.586h10.595L23.52.364zM10.1 23.487l3.255-5.612c.925-1.594 3.237-1.594 4.162 0l3.255 5.612 2.003 3.587H8.067zm11.358-.347-3.244-5.62c-.919-1.597.235-3.582 2.078-3.585h10.595L23.52 26.71zm-12.023 0 3.244-5.62c.918-1.597-.235-3.582-2.078-3.585H.005L7.374 26.71zm35.082 1.226q-2.183 0-4.046-.786a9.7 9.7 0 0 1-3.173-2.241q-1.311-1.456-2.067-3.406-.728-1.98-.728-4.338 0-2.3.699-4.28.698-2.007 1.98-3.464a9 9 0 0 1 3.143-2.3q1.863-.843 4.163-.844 1.922 0 3.435.554 1.514.524 2.591 1.484a6.9 6.9 0 0 1 1.747 2.213 8.3 8.3 0 0 1 .815 2.765h-4.192q-.292-1.572-1.426-2.503-1.136-.96-2.97-.961-1.455 0-2.532.582a4.9 4.9 0 0 0-1.747 1.543q-.699.99-1.048 2.329t-.35 2.882q0 1.601.379 2.94.408 1.34 1.135 2.33a5.6 5.6 0 0 0 1.805 1.513q1.077.525 2.387.524 1.863 0 3.057-.99 1.222-1.019 1.427-2.678h4.133a7.6 7.6 0 0 1-.67 2.678 7.3 7.3 0 0 1-1.63 2.242q-1.076 1.02-2.62 1.63-1.513.582-3.697.582M54.549 8.995h3.96V23.93h-3.96zm0-5.88h3.96v3.552h-3.96zm5.201 5.88h2.066V4.338h3.872v4.657h2.562v2.62h-2.562v7.919q0 .844.407 1.164.408.32 1.078.32h.757q.203 0 .407-.029v2.912a7 7 0 0 1-.64.029q-.321.029-.786.029h-1.048q-.728 0-1.456-.146a3.8 3.8 0 0 1-1.28-.582 3.15 3.15 0 0 1-.962-1.106q-.349-.699-.349-1.747v-8.762H59.75zm13.915 2.388h.088q.669-1.281 1.513-1.922.844-.64 2.155-.64.611 0 .931.116v3.465h-.087q-1.95-.204-3.202.844-1.252 1.047-1.252 3.406v7.278h-3.96V8.995h3.814zM86.21 24.366q-1.862 0-3.318-.611a7.15 7.15 0 0 1-2.416-1.66 7.4 7.4 0 0 1-1.514-2.532 9.6 9.6 0 0 1-.495-3.115q0-1.66.524-3.086.553-1.456 1.514-2.503a7.4 7.4 0 0 1 2.329-1.66q1.368-.61 2.998-.611 1.805 0 3.173.67a6.2 6.2 0 0 1 2.3 1.834q.932 1.193 1.397 2.852.495 1.63.495 3.64h-10.83q.234 1.746 1.165 2.736.96.99 2.65.99 1.164 0 1.863-.495.698-.495 1.019-1.34h3.9a5.9 5.9 0 0 1-.756 1.893 5.5 5.5 0 0 1-1.398 1.543q-.844.669-2.008 1.048-1.165.407-2.591.407m-.32-12.721q-1.572 0-2.387.873-.815.845-1.077 2.329h6.638q-.088-1.427-.961-2.3-.844-.902-2.213-.902m18.105 12.285q-.174-.234-.291-.7a8 8 0 0 1-.175-.96h-.058a5.4 5.4 0 0 1-.669.815 3.3 3.3 0 0 1-.874.612 4.5 4.5 0 0 1-1.193.407q-.7.175-1.66.175-2.3 0-3.755-1.165-1.456-1.164-1.456-3.405 0-1.224.466-2.067a4 4 0 0 1 1.281-1.398 6.2 6.2 0 0 1 1.892-.844 17 17 0 0 1 2.358-.495q1.864-.262 2.737-.553t.873-1.135q0-.815-.64-1.281-.612-.495-1.863-.495-1.397 0-2.096.524-.699.495-.787 1.572h-3.522q.03-.99.437-1.863a4.46 4.46 0 0 1 1.193-1.572q.786-.67 1.98-1.077 1.193-.408 2.824-.408 3.347 0 4.803 1.456 1.485 1.426 1.485 4.046v7.598q0 1.689.524 2.067v.146zm-3.959-2.417q.845 0 1.485-.233a3.8 3.8 0 0 0 1.106-.64q.465-.408.699-.902a2.6 2.6 0 0 0 .232-1.078v-2.24a5 5 0 0 1-1.28.524q-.729.174-1.485.35-1.572.349-2.33.814-.756.466-.756 1.514t.64 1.485q.64.407 1.689.407"/></svg>