<svg xmlns="http://www.w3.org/2000/svg" viewBox="0 0 36.5 36.5"><path d="M7.5 12.8 2 10c-.4.9-.8 1.7-1.1 2.7l5.9 1.9c.2-.6.4-1.2.7-1.7zm4.7-5 3.1 5.3c.4-.3.9-.5 1.4-.6l-1.6-5.9 1.2-.3-.9-6.1c-.9.1-1.9.4-2.8.7l1.9 5.8c-.6.2-1.2.4-1.8.7L9.9 2c-.8.4-1.7.9-2.4 1.5l3.7 5c.3-.2.7-.5 1.1-.7zm16.5 4.4-5.3 3.1c.3.4.5.9.6 1.4l5.9-1.6.3 1.2 6.1-1c-.2-.9-.4-1.9-.7-2.8l-5.8 1.9c-.2-.6-.4-1.2-.7-1.8l5.4-2.8c-.4-.8-.9-1.7-1.5-2.4l-5 3.7c.2.3.5.7.7 1.1M26.5 2c-.9-.4-1.7-.8-2.7-1.1l-1.9 5.9c.6.2 1.2.4 1.7.7L26.4 2zm-2.2 5.7-3.1 5.4c.4.3.9.6 1.2.9l8.7-8.7c-.7-.7-1.4-1.3-2.2-1.9l-3.6 4.9c-.3-.2-.7-.5-1.1-.7zM7.7 12.2l5.4 3.1c.3-.4.6-.9.9-1.2L5.3 5.4c-.7.7-1.3 1.4-1.9 2.2l4.9 3.6c-.2.3-.5.7-.7 1.1zm12.4-5.9.9-6c-.9-.1-1.9-.2-2.8-.2v12.3c.5 0 1 0 1.5.2l1.6-6zm-7.6 10.4-6-1.6-.3 1.2-6-.9c-.1.9-.2 1.9-.2 2.8h12.3c0-.5 0-1 .2-1.5m16.5 7 5.5 2.8c.4-.9.8-1.7 1.1-2.7l-5.9-1.9c-.2.6-.4 1.2-.7 1.7zm-4.7 5-3.1-5.3c-.4.3-.9.5-1.4.6l1.6 5.9-1.2.3 1 6.1c.9-.1 1.9-.4 2.8-.7l-1.9-5.8c.6-.2 1.2-.4 1.8-.7l2.8 5.4c.8-.4 1.7-.9 2.4-1.5l-3.7-5c-.3.2-.7.5-1.1.7M7.8 24.3l5.3-3.1c-.3-.4-.5-.9-.6-1.4l-5.9 1.6-.3-1.2-6.1 1c.2.9.4 1.9.7 2.8l5.8-1.9c.2.6.4 1.2.7 1.8L2 26.7c.4.8.9 1.7 1.5 2.4l5-3.7c-.2-.3-.5-.7-.7-1.1M10 34.5c.9.4 1.7.8 2.7 1.1l1.9-5.9c-.6-.2-1.2-.4-1.7-.7l-2.8 5.5zm2.2-5.7 3.1-5.4c-.4-.3-.9-.6-1.2-.9l-8.7 8.7c.7.7 1.4 1.3 2.2 1.9l3.6-4.9c.3.2.7.5 1.1.7zm16.6-4.5-5.4-3.1c-.3.4-.6.9-.9 1.2l8.7 8.7c.7-.7 1.3-1.4 1.9-2.2l-4.9-3.6c.2-.3.5-.7.7-1.1zM16.7 24l-1.6 6 1.2.3-.9 6c.9.1 1.9.2 2.8.2V24.2c-.5 0-1 0-1.5-.2m7.5-5.7c0 .5 0 1-.2 1.5l6 1.6.3-1.2 6 .9c.1-.9.2-1.9.2-2.8z"/></svg>