<svg xmlns="http://www.w3.org/2000/svg" viewBox="0 0 39.9 20"><path d="M7.6 20c-2.2 0-4-.5-5.5-1.6Q0 16.75 0 13.9c0-2.85 0-.9.1-1.5.2-1.3.6-2.9 1-4.8C2.4 2.5 5.7 0 11 0s2.7.2 3.9.7q1.65.75 2.7 2.1c1.05 1.35 1 2 1 3.3s0 .9-.1 1.5c-.3 1.6-.6 3.3-1 4.8-.7 2.5-1.8 4.4-3.4 5.7-1.6 1.2-3.8 1.9-6.5 1.9m.4-4q1.5 0 2.7-.9c.7-.6 1.3-1.5 1.6-2.8.4-1.7.8-3.3 1-4.6 0-.4.1-.8.1-1.2 0-1.7-.9-2.5-2.7-2.5s-1.9.3-2.7.9c-.7.6-1.3 1.5-1.6 2.8-.3 1.2-.7 2.8-1 4.6 0 .4-.1.8-.1 1.2 0 1.7.9 2.6 2.7 2.6zm13.4 3.7c-.2 0-.4 0-.5-.2 0-.1-.1-.3 0-.5l3.8-18c0-.2.1-.4.3-.5s.3-.2.5-.2H33c2.1 0 3.7.4 5 1.3s1.9 2.1 1.9 3.7 0 .9-.2 1.4c-.5 2.1-1.4 3.7-2.8 4.7s-3.3 1.5-5.8 1.5h-3.8L26 19c0 .2-.1.4-.3.5s-.3.2-.5.2zm9.9-10.6c.8 0 1.5-.2 2-.6q.9-.6 1.2-1.8v-.8c0-.5-.2-.9-.5-1.2s-.9-.4-1.6-.4H29l-1.1 5h3.2z"/></svg>