<svg xmlns="http://www.w3.org/2000/svg" fill="none" viewBox="0 0 163 118"><path fill="#000" d="M27.386 13.742v-.127C27.386 5.127 22.952.65 14.564.65H1.19C.58.65.085 1.144.085 1.75v40.62c0 .607.496 1.102 1.105 1.102h2.99c.609 0 1.105-.495 1.105-1.102V26.707h5.652L21.026 42.95c.198.325.553.523.935.523h3.344c.396 0 .765-.212.963-.566a1.09 1.09 0 0 0-.028-1.115l-9.464-15.225c6.942-.734 10.611-5.155 10.611-12.824M5.285 5.522h9.28c4.873 0 7.693 1.328 7.693 8.22s-2.82 8.036-7.694 8.036h-9.28zM71.037.65H46.243c-.609 0-1.105.494-1.105 1.101v2.67c0 .607.496 1.101 1.106 1.101h9.804V38.6h-9.805c-.609 0-1.105.494-1.105 1.102v2.669c0 .607.496 1.102 1.106 1.102h24.793c.61 0 1.105-.495 1.105-1.102V39.7c0-.607-.496-1.101-1.105-1.101h-9.86V5.522h9.86c.61 0 1.105-.494 1.105-1.101V1.75c0-.607-.496-1.101-1.105-1.101m34.314 18.826-1.941-.607c-4.462-1.413-8.684-2.74-8.684-7.67 0-4.208 2.649-6.34 7.877-6.34h.312c6.092 0 8.854 2.683 8.968 8.7 0 .592.51 1.087 1.091 1.087h2.932c.298 0 .581-.113.794-.325a1.04 1.04 0 0 0 .311-.79C116.856 4.843 111.854.07 102.915.07h-.312c-8.005 0-13.006 4.265-13.077 11.143 0 8.46 7.367 10.832 12.241 12.386l.553.184c.495.155.991.31 1.501.466 4.647 1.44 9.025 2.796 9.025 8.078 0 4.562-3.06 6.878-9.096 6.878h-.297c-6.829 0-9.648-2.542-9.762-8.756 0-.593-.51-1.088-1.09-1.088h-2.933a1.18 1.18 0 0 0-.794.325 1.06 1.06 0 0 0-.311.791c.155 8.757 5.44 13.587 14.89 13.587h.297c8.77 0 14.225-4.506 14.225-11.75 0-8.941-7.608-11.285-12.638-12.839zm43.24-14.603h.241c6.234 0 8.94 3.008 9.039 10.084 0 .593.496 1.087 1.091 1.087h2.933c.297 0 .581-.113.779-.325.213-.212.326-.494.326-.79C162.83 2.598 155.208 0 148.832 0h-.241c-6.46 0-14.167 2.655-14.167 15.338v13.29c0 12.725 7.707 15.394 14.167 15.394h.241c6.376 0 13.998-2.598 14.168-14.985 0-.296-.113-.579-.326-.79a1.08 1.08 0 0 0-.779-.325h-2.933c-.595 0-1.091.494-1.091 1.087-.099 7.104-2.791 10.14-9.039 10.14h-.241c-6.418 0-9.039-3.05-9.039-10.521v-13.36c0-7.387 2.621-10.41 9.039-10.41zM27.67 112.52H5.922l22.414-33.105c.127-.183.184-.395.184-.621v-3.136c0-.607-.496-1.101-1.105-1.101H2.253c-.61 0-1.105.494-1.105 1.101v2.684c0 .607.495 1.102 1.105 1.102h20.401L.184 112.605a1.07 1.07 0 0 0-.184.621v3.065c0 .607.496 1.102 1.105 1.102H27.67c.609 0 1.105-.495 1.105-1.102v-2.683c0-.608-.496-1.102-1.105-1.102zm43.126-37.95H46.484c-.609 0-1.105.495-1.105 1.103v40.618c0 .607.496 1.102 1.105 1.102h24.312c.61 0 1.105-.495 1.105-1.102v-2.683c0-.608-.495-1.102-1.105-1.102H50.522V98.312h15.471c.61 0 1.105-.494 1.105-1.101v-2.684c0-.607-.495-1.101-1.105-1.101h-15.47v-14.01h20.273c.61 0 1.105-.495 1.105-1.102V75.63c0-.607-.495-1.102-1.105-1.102zm46.031 12.98c0-8.488-4.434-12.965-12.822-12.965H90.631c-.61 0-1.105.494-1.105 1.102v40.618c0 .608.496 1.102 1.105 1.102h2.99c.609 0 1.105-.494 1.105-1.102v-15.663h5.653l10.087 16.242c.198.325.552.523.935.523h3.344c.396 0 .765-.212.963-.565a1.09 1.09 0 0 0-.028-1.116l-9.464-15.225c6.942-.734 10.611-5.155 10.611-12.95m-5.128 0v.127c0 6.723-2.82 8.036-7.694 8.036h-9.28V79.458h9.28c4.874 0 7.694 1.327 7.694 8.092m37.133-13.586h-.241c-6.46 0-14.167 2.655-14.167 15.337v13.305c0 12.725 7.707 15.394 14.167 15.394h.241c6.461 0 14.168-2.669 14.168-15.394V89.302c0-12.683-7.707-15.338-14.168-15.338m9.039 15.281v13.361c0 7.372-2.706 10.521-9.039 10.521h-.241c-6.418 0-9.039-3.05-9.039-10.521V89.245c0-7.386 2.621-10.409 9.039-10.409h.241c6.333 0 9.039 3.107 9.039 10.409"/></svg>