<svg xmlns="http://www.w3.org/2000/svg" viewBox="0 0 64 64"><path fill="#0c0c0c" d="M32 0c17.7 0 32 14.3 32 32S49.7 64 32 64 0 49.7 0 32 14.3 0 32 0"/><path fill="none" stroke="#6094c1" stroke-opacity=".2" d="M32 .5C49.4.5 63.5 14.6 63.5 32S49.4 63.5 32 63.5.5 49.4.5 32 14.6.5 32 .5z"/><path fill="#fff" d="m52 31.5-1.7-1.1v-.5l1.5-1.4c0-.1.2-.3.2-.5s-.2-.4-.4-.4l-1.9-.7v-.4l1.2-1.7v-.6c0-.2-.2-.3-.4-.4l-2-.3c0-.1 0-.3-.2-.4l.8-1.9v-.6c0-.2-.3-.3-.5-.3h-2l-.3-.3.5-2c0-.2 0-.4-.2-.5 0-.1-.3-.2-.5-.2l-2 .5-.3-.3v-2c0-.2 0-.4-.2-.5s-.4-.1-.6 0l-1.9.8s-.3-.1-.4-.2l-.3-2c0-.2-.2-.4-.4-.4h-.6l-1.7 1.2s-.3 0-.4-.1l-.7-1.9c0-.2-.2-.3-.4-.4-.2 0-.4 0-.5.2l-1.4 1.5h-.5L32.7 12c0-.2-.3-.3-.5-.3s-.4.1-.5.3l-1.1 1.7h-.5l-1.4-1.5c-.1-.1-.3-.2-.5-.2s-.4.2-.4.4l-.7 1.9c-.1 0-.3 0-.4.1L25 13.2q-.3-.15-.6 0c-.2 0-.3.2-.4.4l-.3 2c-.1 0-.3.1-.4.2l-1.9-.8h-.6c-.2.1-.3.3-.3.5v2l-.3.3-2-.5c-.2 0-.4 0-.5.2-.1.1-.2.3-.2.5l.5 2c0 .1-.2.2-.3.4h-2c-.2 0-.4 0-.5.2s-.1.4 0 .6l.8 1.9c0 .1-.1.3-.2.4l-2 .3c-.2 0-.4.2-.4.4v.6l1.2 1.7c0 .1 0 .3-.1.4l-1.9.7c-.2 0-.3.2-.4.4 0 .2 0 .4.2.5l1.5 1.4v.5l-1.7 1.1c-.2.1-.3.3-.3.5s.1.4.3.5l1.7 1.1v.5l-1.5 1.4c-.1 0-.2.3-.2.5s.2.4.4.4l1.9.7s0 .3.1.4l-1.2 1.7q-.15.3 0 .6c0 .2.2.3.4.4l2 .3s.1.3.2.4l-.8 1.9v.6c.1.2.3.3.5.3h2l.3.3-.5 2c0 .2 0 .4.2.5.1 0 .4.2.5.2l2-.5c.1 0 .2.2.3.3v2c0 .2 0 .4.2.5s.4 0 .6 0l1.9-.8c.1 0 .3 0 .4.2l.3 2c0 .2.2.4.4.4h.6l1.7-1.2h.4l.7 1.9c0 .2.2.3.4.4.2 0 .4 0 .5-.2l1.4-1.5h.5l1.1 1.7c.1.2.3.3.5.3s.4 0 .5-.3l1.1-1.7h.5l1.4 1.5s.3.2.5.2.4-.2.4-.4l.7-1.9h.4l1.7 1.2h.6c.2 0 .3-.2.4-.4l.3-2s.3 0 .4-.2l1.9.8h.6c.2 0 .3-.3.3-.5v-2l.3-.3 2 .5c.2 0 .4 0 .5-.2 0 0 .2-.3.2-.5l-.5-2 .3-.3h2c.2 0 .4 0 .5-.2s0-.4 0-.6l-.8-1.9s0-.3.2-.4l2-.3c.2 0 .4-.2.4-.4v-.6l-1.2-1.7v-.4l1.9-.7c.2 0 .3-.2.4-.4 0-.2 0-.4-.2-.5l-1.5-1.4v-.5l1.7-1.1c.2 0 .3-.3.3-.5s0-.4-.3-.5zM40.1 41.7c-.6 0-1.2.3-1.3.8l-.6 2.8c-3.9 1.8-8.5 1.8-12.4 0l-.6-2.8c-.1-.6-.7-1-1.3-.8l-2.5.5c-.5-.5-.9-1-1.3-1.5h12.2s.2 0 .2-.2v-4.3s0-.2-.2-.2h-3.6v-2.7h3.8c.3 0 1.9 0 2.4 2.1.2.6.5 2.5.7 3.2s1.2 2.1 2.1 2.1H44c-.4.6-.9 1.1-1.4 1.6l-2.6-.5zm2 2.8c0 .7-.5 1.2-1.2 1.2s-1.2-.5-1.2-1.2.5-1.2 1.2-1.2 1.2.6 1.2 1.2M23 45.6c-.7 0-1.2-.5-1.2-1.2s.5-1.2 1.2-1.2 1.2.6 1.2 1.2-.5 1.2-1.2 1.2m-5.5-19.4c.7 0 1.2.6 1.2 1.2s-.5 1.2-1.2 1.2-1.2-.5-1.2-1.2.5-1.2 1.2-1.2m-.3 4.1 2.6-1.2c.6-.2.8-.9.6-1.5l-.5-1.2H22v9.5h-4.3c-.5-1.8-.7-3.8-.5-5.7zm11.4-1v-2.8h5c.3 0 1.8.3 1.8 1.5s-1.2 1.3-2.2 1.3h-4.7zm16.5 3.9v.7c0 1.6-.9 2-1.7 2.1-.8 0-1.6-.3-1.7-.8-.5-2.6-1.2-3.1-2.4-4.1 1.5-.9 3.1-2.4 3.1-4.2S41 23.6 40.1 23c-1.3-.9-2.8-1-3.2-1H21.1c2.2-2.4 5.1-4.1 8.3-4.7l1.9 2c.4.4 1.1.5 1.6 0l2.1-2c4.3.8 8 3.5 10.2 7.3l-1.4 3.2c-.2.6 0 1.2.6 1.5l2.7 1.2v2.6h-1.5c-.2 0-.2 0-.2.2h-.3zM30.7 16.5c0-.7.5-1.2 1.2-1.2s1.2.6 1.2 1.2-.5 1.2-1.2 1.2-1.2-.5-1.2-1.2m15.6 12.2c-.7 0-1.2-.5-1.2-1.2s.5-1.2 1.2-1.2 1.2.6 1.2 1.2-.5 1.2-1.2 1.2"/></svg>