<svg xmlns="http://www.w3.org/2000/svg" fill="none" viewBox="0 0 171 151"><path fill="#000" d="m127.991 64.234-15.246-20.599a9.7 9.7 0 0 0-6.721-3.874 1.89 1.89 0 0 1-1.423-.93 1.87 1.87 0 0 1-.095-1.694 9.57 9.57 0 0 0-.016-7.723L94.175 5.986C92.646 2.507 89.19.264 85.374.264a9.61 9.61 0 0 0-8.802 5.722L66.257 29.414a9.58 9.58 0 0 0-.016 7.723 1.89 1.89 0 0 1-.095 1.694 1.9 1.9 0 0 1-1.423.93 9.7 9.7 0 0 0-6.72 3.874L42.755 64.234a9.52 9.52 0 0 0-.584 10.442 9.64 9.64 0 0 0 9.386 4.719l25.56-2.83a9.68 9.68 0 0 0 6.732-3.848 1.9 1.9 0 0 1 3.047 0 9.68 9.68 0 0 0 6.731 3.848l25.561 2.83a9.62 9.62 0 0 0 9.386-4.72 9.52 9.52 0 0 0-.584-10.441m-55.066-31.88L83.255 8.9a2.32 2.32 0 0 1 2.124-1.383c.918 0 1.752.544 2.123 1.383l10.33 23.454a2.38 2.38 0 0 1-.19 2.27 2.41 2.41 0 0 1-2.017 1.082H75.128c-.812 0-1.571-.406-2.017-1.082s-.515-1.53-.191-2.27zm5.303 35.707a2.4 2.4 0 0 1-1.884 1.298l-25.588 2.83a2.33 2.33 0 0 1-2.267-1.135 2.29 2.29 0 0 1 .144-2.518l15.262-20.62a2.4 2.4 0 0 1 2.07-.971 2.4 2.4 0 0 1 1.954 1.193l.016.027 10.22 17.6.015.026c.409.702.43 1.557.064 2.275zm9.248-7.96a2.435 2.435 0 0 1-4.205.004l-7.85-13.519a2.39 2.39 0 0 1 0-2.412 2.44 2.44 0 0 1 2.101-1.21H93.22c.865 0 1.667.455 2.102 1.205s.435 1.668 0 2.412zm34.787 10.953a2.33 2.33 0 0 1-2.267 1.14l-25.587-2.83a2.4 2.4 0 0 1-1.885-1.298 2.37 2.37 0 0 1 .064-2.275l.016-.027 10.219-17.6.016-.026a2.4 2.4 0 0 1 1.953-1.193 2.42 2.42 0 0 1 2.071.972l15.262 20.619c.547.739.6 1.726.143 2.518zm-64.473 74.15q-1.946 2.751-5.162 4.091-3.216 1.264-7.181 1.264-3.142 0-5.76-.744-2.544-.743-4.488-2.231a11.4 11.4 0 0 1-3.067-3.794q-1.122-2.306-1.122-5.207 0-3.198 1.271-5.43a10.3 10.3 0 0 1 3.441-3.719q2.245-1.414 5.237-2.083 2.992-.744 6.283-.744H57.34q0-4.314-1.944-6.695-1.945-2.38-6.808-2.454-2.841 0-4.936.967-2.02.968-2.693 3.198h-8.752q.448-3.124 2.02-5.281a14.8 14.8 0 0 1 3.89-3.571 16.3 16.3 0 0 1 5.086-2.008 27.7 27.7 0 0 1 5.685-.595q3.665 0 6.807.967c3.142.967 3.915 1.736 5.46 3.273q2.619 2.678 3.516 6.397.898 3.719.898 8.108v21.125h-7.406zm-.45-12.572h-8.228q-2.169 0-4.338.372-2.17.298-3.74 1.562-1.497 1.19-1.497 3.497 0 2.826 2.02 4.314 2.094 1.413 5.087 1.413 2.319 0 4.264-.595 2.02-.595 3.44-1.934 1.422-1.414 2.17-3.496.822-2.157.822-5.133m22.249-38.085q2.319 0 3.815 1.413 1.57 1.413 1.57 3.868 0 2.38-1.57 3.794-1.497 1.413-3.815 1.413-2.47 0-3.965-1.413-1.496-1.413-1.496-3.794 0-2.455 1.496-3.868t3.965-1.413m-4.339 55.491v-39.201h8.528v39.201zm76.303-39.87q4.712 0 8.303 1.488 3.59 1.487 6.059 4.165 2.543 2.604 3.815 6.323t1.271 8.257q0 4.612-1.271 8.331-1.197 3.645-3.665 6.323t-6.135 4.091q-3.59 1.413-8.377 1.413-4.713 0-8.304-1.413-3.59-1.488-6.058-4.091-2.394-2.678-3.666-6.398-1.197-3.719-1.197-8.256c0-4.537.399-5.777 1.197-8.257q1.272-3.719 3.74-6.323 2.469-2.678 6.059-4.165t8.229-1.488m0 33.027q2.916 0 4.937-.967 2.094-1.041 3.366-2.752 1.346-1.711 1.945-4.017.673-2.306.673-4.984c0-2.678-.225-3.446-.673-4.984q-.599-2.38-1.945-4.091-1.272-1.711-3.366-2.678-2.02-.967-4.937-.967-2.843 0-4.863.967a9.4 9.4 0 0 0-3.366 2.678q-1.346 1.711-2.019 4.091-.6 2.307-.599 4.984c.001 2.677.199 3.447.599 4.984q.673 2.306 1.944 4.017a10.1 10.1 0 0 0 3.366 2.752q2.095.967 4.938.967m-43.32-16.365h-6.134V99.004h-8.452v51.035h8.452v-15.844h6.658l10.397 15.844h9.874l-13.464-20.531 12.417-18.67h-9.575zm-82.987-16.103H15.148V99.004h-2.61L.269 115.583v2.144h6.3v19.402q0 6.87 3.114 9.89 3.188 3.02 10.552 3.02h4.707v-7.399h-3.947q-3.417 0-4.632-1.661c-1.215-1.661-1.214-2.793-1.214-5.058v-18.194h10.097z"/></svg>