<svg xmlns="http://www.w3.org/2000/svg" enable-background="new 0 0 169 105" viewBox="0 0 169 105"><filter id="a" width="177.5" height="112.9" x="-4.4" y="-3.8" filterUnits="userSpaceOnUse"><feColorMatrix values="1 0 0 0 0 0 1 0 0 0 0 0 1 0 0 0 0 0 1 0"/></filter><mask id="b" width="177.5" height="112.9" x="-4.4" y="-3.8" maskUnits="userSpaceOnUse"><path fill="#fff" d="M83 104.6c-19 0-38 .2-57-.1C12.9 104.4 1.7 93.7.2 80.6c-1.5-13.8 6.6-26.5 19.4-30.1 2-.6 4.1-.8 6.1-1.1 3.1-.4 4.1-1.8 3.2-4.9-2.2-7.2-2.1-14.3.2-21.4C33.3 10.6 45.2 1.3 58.4.6c13.8-.7 26.6 7 32 19.5.3.6.5 1.3.8 1.9 1 2.2 2.3 2.7 4.6 1.9 2.2-.7 4.4-1.5 6.7-1.9 11.2-1.7 22.7 5.8 25.9 16.9.1.2.1.4.1.6 1.3 4.4 1.6 4.6 6.1 4.1 19.1-2.3 35 12.7 34.1 32-.7 15.6-13.4 28.6-28.7 28.9-19 .3-38 .1-57 .1" filter="url(#a)"/></mask><path d="M86.5 87.3h-4.4V49.1l-20 20L59 66l22.8-22.8c1.4-1.4 3.8-1.4 5.3 0L109.9 66l-3.1 3.1L86.5 49z"/><path d="M83 104.6h4.4v-4.4H83zm-57-.1.1-4.4zM.2 80.6l-4.4.5zm19.5-30 1.2 4.3zm6.1-1.1-.6-4.4zm3.1-4.9-4.2 1.3zm.3-21.4 4.2 1.4zM58.4.6l-.2-4.4zm32 19.5 4.1-1.8zm.9 1.9-4 1.9zm4.5 2 1.3 4.2zm6.7-1.9-.7-4.4zM128.4 39l4.2-1.2zm.2.5 4.2-1.2zm6 4.1-.5-4.4zm34.1 32-4.4-.2zM140 104.5l.1 4.4zm-57 .1v-4.4h-4.4v4.4zm0-4.4c-19 0-38 .2-56.9-.1l-.1 8.8c19 .2 38.1.1 57 .1zm-56.9-.1c-10.8-.1-20.2-9-21.4-20l-8.8 1c1.7 15.2 14.7 27.6 30.1 27.8zm-21.5-20c-1.3-11.8 5.6-22.4 16.2-25.3l-2.4-8.5c-15 4.2-24.3 19-22.5 34.8zm16.3-25.3c1.6-.5 3.2-.6 5.5-.9l-1.3-8.8c-1.8.3-4.3.5-6.7 1.2zm5.5-.9c1.9-.3 4.5-1 6.1-3.4 1.6-2.5 1.2-5.2.6-7.1l-8.5 2.5c.1.5.1.7.1.6 0 0 0-.2.1-.3q0-.3.3-.6c.3-.4.6-.6.6-.6s-.1.1-.6.1zm6.7-10.5c-1.9-6.3-1.9-12.5.2-18.8L25 21.8c-2.6 8-2.7 16.1-.3 24.1zm.2-18.8c3.6-11 14-19 25.3-19.6l-.5-8.8C43.1-3 29.7 7.5 25 21.8zM58.6 5c12-.6 23.1 6.1 27.8 16.8l8.1-3.5C88.3 4.2 73.7-4.6 58.1-3.8zm27.8 16.8c.2.4.6 1.4.9 2.1l8-3.8c-.3-.6-.4-.9-.8-1.8zm.9 2.1c.7 1.5 1.9 3.3 4.1 4.2s4.3.5 5.8 0l-2.7-8.4c-.3.1-.4.1-.4.1.1 0 .3 0 .7.1.3.1.5.3.6.4s0 0-.2-.3zm9.9 4.3c2.5-.8 4.2-1.4 6-1.7l-1.3-8.7c-2.7.4-5.4 1.4-7.3 2zm6-1.7c9-1.4 18.4 4.7 21 13.7l8.5-2.5c-3.8-13.1-17.3-22-30.8-20zm21 13.7q0-.15 0 0v.2c0 .1.1.2.1.4l8.5-2.5v.1-.3c0-.1-.1-.2-.1-.4zm.1.5c.3 1.1.6 2.2 1.1 3.1.4 1 1.2 2.3 2.6 3.2s2.8 1.1 3.9 1.2c1 0 2.2-.1 3.3-.2l-1.1-8.8c-.5.1-1 .1-1.3.1h-.7c-.3 0 .2 0 .8.3.6.4.7.8.6.5-.1-.1-.1-.3-.3-.7-.1-.3-.2-.8-.4-1.3zm10.9 7.3c16.3-2 29.9 10.8 29.2 27.5l8.8.4c1-22.1-17.2-39.3-39-36.6zm29.1 27.4c-.6 13.4-11.6 24.5-24.4 24.6l.1 8.8c17.9-.3 32.3-15.3 33.1-33.1zm-24.4 24.7c-18.9.3-37.8.1-56.9.1v8.8c18.9 0 38 .2 57-.1zM83 104.6h-4.4 8.8zm4.4 0h-8.8z" mask="url(#b)"/></svg>