<svg xmlns="http://www.w3.org/2000/svg" viewBox="0 0 143 144"><path fill="none" d="M97.6 34.6h.9l.7.7 8.9 8.9q1.5 1.5-.3 3.9c-.5.6-1.2 1.4-1.9 2.1L87.4 68.8 100 81.4c.1 0 .3-.1.5-.3L138 43.7c.2-.2.3-.4.3-.5l-38-38c-.1 0-.3.1-.5.3L62.4 42.8c-.2.2-.3.4-.3.5L74.7 56l18.5-18.5c2.9-2.9 3.8-2.8 4.4-2.9M58.674 78.233l3.112-3.112 6.505 6.506-3.111 3.111z"/><path d="M141.6 40.2 103.2 1.8c-1.7-1.7-4.6-1.5-6.6.5L59.3 39.7c-.9.9-1.4 2-1.6 3.1-.2 1.3.2 2.6 1.1 3.5l12.8 12.8 3.1-3.1L62 43.4c0-.1.1-.3.3-.5L99.7 5.5c.2-.2.4-.3.5-.3l38 38c0 .1-.1.3-.3.5l-37.4 37.4c-.2.2-.4.3-.5.3L87.4 68.8l-3.1 3.1 12.8 12.8c.8.8 1.8 1.2 2.9 1.2 1.3 0 2.7-.6 3.8-1.7l37.4-37.4c.9-.9 1.4-2 1.6-3.1.1-1.3-.3-2.6-1.2-3.5m-3.1 3.1"/><path fill="none" d="m61.784 75.107 12.87-12.87 6.505 6.506-12.87 12.87zM103.8 46.1l-6.5-6.5c-.3.3-.7.6-1 1L77.8 59.1l6.5 6.5 18.5-18.5c.4-.3.7-.7 1-1m-50.5 55.3c-.5 0-1.1-.2-1.6-.7l-8.9-8.9q-1.5-1.5.3-3.9c.5-.6 1.2-1.4 1.9-2.1l10.6-10.6-12.7-12.7c-.1 0-.3.1-.5.3L5 100.2c-.2.2-.3.4-.3.5l38 38c.1 0 .3-.1.5-.3L80.6 101c.2-.2.3-.4.3-.5L68.3 87.9 57.8 98.5c-1.3 1.2-3 2.9-4.5 2.9"/><path fill="none" d="m48.1 88.8-1 1 6.5 6.5c.3-.3.7-.6 1-1l10.6-10.6-6.5-6.5z"/><path d="M81 100.5c0 .1-.1.3-.3.5l-37.4 37.4c-.2.2-.4.3-.5.3l-38-38c0-.1.1-.3.3-.5l37.4-37.4c.2-.2.4-.3.5-.3l12.6 12.6 3.1-3.1-12.8-12.8c-.9-.9-2.2-1.3-3.5-1.1-1.1.2-2.2.7-3.1 1.6L1.9 97.1c-2 2-2.2 4.9-.5 6.6L39.8 142c.8.8 1.8 1.2 2.9 1.2 1.3 0 2.7-.6 3.8-1.7l37.4-37.4c2-2 2.2-4.9.5-6.6L71.5 84.8l-3.1 3.1z"/><path d="m53.6 96.3-6.5-6.5c.3-.3.6-.7 1-1l10.6-10.6-3.1-3.1L45 85.7c-.8.8-1.4 1.5-1.9 2.1q-1.8 2.4-.3 3.9l8.9 8.9c.5.5 1 .7 1.6.7 1.6 0 3.3-1.7 4.5-2.9l10.6-10.6-3.1-3.1-10.7 10.6c-.4.4-.7.8-1 1m14.743-14.607 12.87-12.87 3.11 3.112-12.868 12.87zM96.3 40.7l1-1 6.5 6.5c-.3.3-.6.7-1 1L84.3 65.7l3.1 3.1 18.5-18.5c.8-.8 1.4-1.5 1.9-2.1q1.8-2.4.3-3.9l-8.9-8.9-.7-.7h-.9c-.6 0-1.5 0-4.4 2.9L74.7 56l3.1 3.1zM58.69 71.98l12.869-12.87 3.111 3.112-12.87 12.87z"/><path d="m71.557 59.097 3.111-3.11 3.112 3.11-3.112 3.112zm9.653 9.713 3.112-3.112 3.111 3.112-3.11 3.11zM65.163 84.748l3.111-3.111 3.112 3.111-3.112 3.111zm-9.583-9.641 3.111-3.11 3.112 3.11-3.112 3.112z"/></svg>