<svg xmlns="http://www.w3.org/2000/svg" viewBox="0 0 120 137"><path d="M112.8 136.7H6.8c-3.5 0-6.3-2.8-6.3-6.3V53.2c0-3.5 2.8-6.3 6.3-6.3h106c3.5 0 6.3 2.8 6.3 6.3v77.2c0 3.5-2.8 6.3-6.3 6.3M6.8 51.2c-1.1 0-1.9.9-1.9 1.9v77.2c0 1.1.9 1.9 1.9 1.9h106c1.1 0 1.9-.9 1.9-1.9V53.2c0-1.1-.9-1.9-1.9-1.9H6.8z"/><path d="M86.5 49h-4.4V27.1c0-12.3-10-22.4-22.3-22.4s-22.4 10-22.4 22.4v.9H33v-.9C33 12.4 45 .4 59.8.4s26.8 12 26.8 26.8V49zM71.1 99.4h-4.4v-8.1c0-3.8-3.1-6.9-6.9-6.9s-6.9 3.1-6.9 6.9v7.6h-4.4v-7.6C48.5 85 53.6 80 59.8 80c6.3 0 11.3 5.1 11.3 11.3z"/><path d="M48.5 96h22.6v4.4H48.5z"/></svg>