<svg xmlns="http://www.w3.org/2000/svg" viewBox="0 0 111 118"><path d="M55.3 117.2h-1.9l-.1-.5C26.2 108.1 8.7 88 2.5 58.5c-4.7-22.5-1.2-42.3-1-43.1l.4-2.1 2.1.3c.3 0 28.9 4.5 49.9-12.7l.6-.5h1.6l.7.5c21.1 17.3 49.6 12.8 49.9 12.7l2.1-.4.4 2.1c.2.8 3.6 20.6-1 43.1-6.2 29.6-23.7 49.7-50.8 58.2l-.1.5zm-49.8-99c-.7 5.6-2.3 21.9 1.4 39.5 6 28.5 22.3 47 48.5 55 26.2-7.9 42.5-26.4 48.5-55 3.7-17.6 2.1-33.9 1.4-39.5-7.5.8-30.9 1.9-50-12.8C36.3 20.1 12.8 19 5.5 18.2m46.7 56c-.8 0-1.6-.3-2.2-.9L36.4 59.7l3.1-3.1 12.6 12.6L78 40.1l3.3 2.9-26.8 30.2c-.6.6-1.4 1-2.3 1"/></svg>