<svg width="602" height="294" viewBox="0 0 602 294" fill="none" xmlns="http://www.w3.org/2000/svg">
<mask id="mask0_45_70" style="mask-type:alpha" maskUnits="userSpaceOnUse" x="0" y="0" width="603" height="294">
<path d="M1 0V293.792M10.1059 2.87797e-05V293.792M19.2124 2.87797e-05V293.792M28.3182 2.87797e-05V293.792M37.4241 2.87797e-05V293.792M46.5306 2.87797e-05V293.792M55.6365 2.87797e-05V293.792M64.7423 2.87797e-05V293.792M73.8482 2.87797e-05V293.792M82.9547 2.87797e-05V293.792M92.0606 2.87797e-05V293.792M101.166 2.87797e-05V293.792M110.273 2.87797e-05V293.792M119.379 2.87797e-05V293.792M128.485 2.87797e-05V293.792M137.591 2.87797e-05V293.792M146.697 2.87797e-05V293.792M155.803 2.87797e-05V293.792M164.909 2.87797e-05V293.792M174.015 2.87797e-05V293.792M183.121 2.87797e-05V293.792M192.227 2.87797e-05V293.792M201.334 2.87797e-05V293.792M210.439 2.87797e-05V293.792M219.545 2.87797e-05V293.792M228.652 2.87797e-05V293.792M237.758 2.87797e-05V293.792M246.864 2.87797e-05V293.792M255.969 2.87797e-05V293.792M265.076 2.87797e-05V293.792M274.182 2.87797e-05V293.792M283.288 2.87797e-05V293.792M292.394 2.87797e-05V293.792M301.5 2.87797e-05V293.792M310.606 2.87797e-05V293.792M319.712 2.87797e-05V293.792M328.818 2.87797e-05V293.792M337.924 2.87797e-05V293.792M347.031 2.87797e-05V293.792M356.137 0V293.792M365.242 2.87797e-05V293.792M374.348 2.87797e-05V293.792M383.455 2.87797e-05V293.792M392.561 2.87797e-05V293.792M401.666 2.87797e-05V293.792M410.773 2.87797e-05V293.792M419.879 2.87797e-05V293.792M428.985 2.87797e-05V293.792M438.091 2.87797e-05V293.792M447.197 2.87797e-05V293.792M456.303 2.87797e-05V293.792M465.409 2.87797e-05V293.792M474.515 2.87797e-05V293.792M483.621 2.87797e-05V293.792M492.727 2.87797e-05V293.792M501.834 2.87797e-05V293.792M510.939 2.87797e-05V293.792M520.045 2.87797e-05V293.792M529.152 2.87797e-05V293.792M538.258 2.87797e-05V293.792M547.363 0V293.792M556.469 2.87797e-05V293.792M565.576 0V293.792M574.682 2.87797e-05V293.792M583.788 2.87797e-05V293.792M592.894 2.87797e-05V293.792M602 2.87797e-05V293.792" stroke="black" stroke-width="2"/>
</mask>
<g mask="url(#mask0_45_70)">
<path d="M581.315 295.777H-6.65135C-7.31899 297.104 -7.95131 298.352 -8.54594 299.513C-9.73521 301.836 -12.876 300.975 -12.876 298.366C-12.876 296.936 -11.7171 295.777 -10.2875 295.777H-6.65135C10.6646 261.366 51.7431 173.979 75.4407 173.979C109.697 173.979 138.458 223.937 174.449 223.937C210.439 223.937 280.005 69.6669 321.199 69.6669C362.393 69.6669 386.923 147.936 424.649 147.936C462.374 147.936 490.745 6.90015 531.072 6.90015C561.476 6.90015 582.712 71.4924 598.485 100.622C600.256 103.893 601.315 107.51 601.315 111.23V275.777C601.315 286.823 592.361 295.777 581.315 295.777Z" fill="black"/>
</g>
</svg>
