<svg xmlns="http://www.w3.org/2000/svg" xml:space="preserve" viewBox="0 0 295.7 295.7"><path fill="#2dd4bf" d="M130 150H38.2c-8.1 0-8 0-8.1-8.2C29 67.1 80.5 16.3 137.2 3.6 148.3 1.1 159.4.1 170.7.1c29.6 0 59.2.1 88.8-.1 4.6 0 6 1 6.1 5.9.9 52.2-20.1 93-63.4 122.2-11 7.4-23.3 12.4-36.5 16.5 2.3 1.8 65.1 1.2 94.5 1.1 3 0 5.2-.2 5.3 4.2 1.4 51.1-17.9 92.1-59.9 121.6-23.3 16.4-49.7 24.1-78.3 24.1-30.6 0-61.2 0-91.8.1-3.6 0-5.4-.5-5.5-4.8-.6-57.4 23.4-100.7 73.6-129.1 8.5-4.7 17.6-7.8 26.4-11.8z"/></svg>
