<svg xmlns="http://www.w3.org/2000/svg" viewBox="0 0 64 64"><path fill="#0c0c0c" d="M32 0c17.7 0 32 14.3 32 32S49.7 64 32 64 0 49.7 0 32 14.3 0 32 0"/><path fill="none" stroke="#6094c1" stroke-opacity=".2" d="M32 .5C49.4.5 63.5 14.6 63.5 32S49.4 63.5 32 63.5.5 49.4.5 32 14.6.5 32 .5z"/><path fill="#fff" d="M11.3 35.5h8.6v-6.9h-7.2q-1.7 0-1.4-1.8h8.6v-4.9h13.7c5.3 0 9.3 3.4 10.4 8.6 0 .2 0 .4.2.7h8.6v1.9h-8.5c-.4 1.2-.6 2.4-1.2 3.4-1.7 3.6-4.6 5.7-8.6 5.8-4.7.2-9.3 0-14 0H20v-4.8h-7.3q-1.7 0-1.4-1.9zm10.6-11.9v16.7h12.3c.9 0 1.8-.2 2.7-.5 3.8-1.5 6-5.3 5.3-9.4-.7-4-4.1-6.8-8.4-6.9H22z"/></svg>