<svg xmlns="http://www.w3.org/2000/svg" viewBox="0 0 64 64"><path fill="#0c0c0c" d="M32 0c17.7 0 32 14.3 32 32S49.7 64 32 64 0 49.7 0 32 14.3 0 32 0"/><path fill="none" stroke="#6094c1" stroke-opacity=".2" d="M32 .5C49.4.5 63.5 14.6 63.5 32S49.4 63.5 32 63.5.5 49.4.5 32 14.6.5 32 .5z"/><path fill="#fff" d="M21.5 19.2c2.2 1.2 4.1 2.3 6.1 3.5 4.4 2.5 8.8 5.1 13.2 7.6.7.4 1.5.6 2.3.6h9.7V33h-10c-.7 0-1.4.2-2 .5-6 3.5-12.1 6.9-18.1 10.4-.3.2-.7.4-1.2.7V33H11.3c0-.4 0-.7-.1-1-.1-.9.2-1.3 1.2-1.2h9.1V19.1zm2.2 21.9c5.3-3.1 10.4-6 15.6-9-5.3-3-10.4-6-15.6-9v18.1z"/></svg>