<svg xmlns="http://www.w3.org/2000/svg" viewBox="0 0 64 64"><path fill="#0c0c0c" d="M32 0c17.7 0 32 14.3 32 32S49.7 64 32 64 0 49.7 0 32 14.3 0 32 0"/><path fill="none" stroke="#6094c1" stroke-opacity=".2" d="M32 .5C49.4.5 63.5 14.6 63.5 32S49.4 63.5 32 63.5.5 49.4.5 32 14.6.5 32 .5z"/><path fill="#fff" d="M40.2 34.6c-1.2 3.4-3.5 5.6-7.1 6.3-.5.1-1 .1-1.5.1H19.2v-4.3h-7.7V36c-.1-.7.2-1 .9-1h6.7v-6.1h-7.6v-1.6h7.6v-4.4h11.7c4.5 0 7.6 2 9.3 6.3 0 0 0 .2.1.2 2.2-.8 3.1-.5 4.4 1.4.1.2.5.4.8.4h5.8q1.5 0 1.2 1.7h-7.1c-.3 0-.6.1-.7.3-1.3 1.9-2.3 2.2-4.5 1.4zm-19.3-10v14.8h10.5c4.2 0 7.5-3.2 7.5-7.3 0-4.2-3.2-7.4-7.4-7.5H21zm20.9 6.1c-.8 0-1.4.6-1.3 1.4 0 .7.6 1.3 1.4 1.3.7 0 1.3-.6 1.3-1.3 0-.8-.6-1.4-1.4-1.4"/></svg>