<svg xmlns="http://www.w3.org/2000/svg" viewBox="0 0 64 64"><path fill="#0c0c0c" d="M32 0c17.7 0 32 14.3 32 32S49.7 64 32 64 0 49.7 0 32 14.3 0 32 0"/><path fill="none" stroke="#6094c1" stroke-opacity=".2" d="M32 .5C49.4.5 63.5 14.6 63.5 32S49.4 63.5 32 63.5.5 49.4.5 32 14.6.5 32 .5z"/><path fill="#fff" d="M52.9 32.9h-8c-.4 0-.8.2-1 .5-1.5 2.4-4.1 2.6-5.9.4 0 0 0-.2-.2-.3-6 6.9-13.8 8.6-22.3 8.7-.3-1.6-.3-1.6 1-2.1s2-1.5 2.7-2.8H11v-1.9h8.1c.7 0 1-.2 1-.9v-5.2c0-.7-.4-1-1.1-.9h-8.1v-1.8h8.3c-.7-1.3-1.4-2.4-2.7-2.9q-1.3-.5-1.1-2.1c8.5 0 16.3 1.7 22.3 8.6l.4-.4c1.7-1.9 4.3-1.7 5.6.5.3.5.6.7 1.2.7h6.5q1.7 0 1.4 1.9zM36.7 32c-4.3-5.5-10.3-7.5-16.9-8.2 3.4 5.5 3.4 10.9 0 16.4 6.6-.7 12.5-2.7 16.9-8.2m5.6 0c0-.9-.6-1.6-1.5-1.6-.8 0-1.5.7-1.5 1.5s.7 1.6 1.5 1.6 1.5-.7 1.5-1.5"/></svg>