<svg xmlns="http://www.w3.org/2000/svg" viewBox="0 0 64 64"><path fill="#0c0c0c" d="M32 0c17.7 0 32 14.3 32 32S49.7 64 32 64 0 49.7 0 32 14.3 0 32 0"/><path fill="none" stroke="#6094c1" stroke-opacity=".2" d="M32 .5C49.4.5 63.5 14.6 63.5 32S49.4 63.5 32 63.5.5 49.4.5 32 14.6.5 32 .5z"/><path fill="#fff" d="M37.3 33c-5.7 3.3-11.4 6.6-17.2 9.9v-10h-8.7v-1c0-.7.2-.9.9-.9h7.9V21c5.9 3.4 11.5 6.6 17.2 9.9 0-.2.2-.3.3-.4.7-1.2 1.7-1.9 3-1.9 1.4 0 2.3.7 3.1 1.8.2.3.6.6 1 .6h6.6q1.6 0 1.5 1.8h-8.7c-.7 1.6-1.7 2.5-3.3 2.5s-2.6-.9-3.3-2.3zm-1.9-1c-4.5-2.6-8.9-5.1-13.3-7.7v15.4c4.5-2.6 8.8-5.1 13.3-7.7m6.7 0c0-.8-.7-1.5-1.6-1.5-.8 0-1.4.7-1.5 1.5 0 .9.6 1.5 1.5 1.5S42 32.8 42 32z"/></svg>