<svg xmlns="http://www.w3.org/2000/svg" viewBox="0 0 64 64"><path fill="#0c0c0c" d="M32 0c17.7 0 32 14.3 32 32S49.7 64 32 64 0 49.7 0 32 14.3 0 32 0"/><path fill="none" stroke="#6094c1" stroke-opacity=".2" d="M32 .5C49.4.5 63.5 14.6 63.5 32S49.4 63.5 32 63.5.5 49.4.5 32 14.6.5 32 .5z"/><path fill="#fff" d="M51.5 30.9v2h-9c-.4 0-.9.2-1.1.4-4 5.1-9.5 7.7-15.7 8.8-2.7.5-5.5.6-8.2.9-.4-1.8-.4-1.9 1-2.4s2.2-1.6 2.9-3h-8.8v-2h8.8c.6 0 1-.2 1-.8V29c0-.6-.4-.8-1-.8h-7.2q-1.8 0-1.6-1.9h8.8c-.7-1.5-1.5-2.7-2.9-3-1.3-.3-1.5-1-1.2-2.1 0 0 .1-.1.2-.1 6.3 0 12.5.9 17.9 4.3 2 1.3 3.8 3.1 5.5 4.8.5.5 1 .8 1.7.8h8.7zm-29.7 9.8c1.5-.2 2.7-.4 4-.6 5.2-1 9.8-3.1 13.4-7.2.7-.8.7-1.4 0-2.2-3.1-3.5-7-5.6-11.5-6.7-1.9-.5-3.8-.7-5.9-1.1 3.8 5.2 3.8 12.7 0 17.8"/></svg>