<svg xmlns="http://www.w3.org/2000/svg" viewBox="0 0 64 64"><path fill="#0c0c0c" d="M32 0c17.7 0 32 14.3 32 32S49.7 64 32 64 0 49.7 0 32 14.3 0 32 0"/><path fill="none" stroke="#6094c1" stroke-opacity=".2" d="M32 .5C49.4.5 63.5 14.6 63.5 32S49.4 63.5 32 63.5.5 49.4.5 32 14.6.5 32 .5z"/><path fill="#fff" d="M20.2 26.1c-.8-1.7-2-3-4-3.2v-2c9.2.2 17.6 1.9 24 9.3.3-.3.5-.6.7-.8 1.8-1.7 4.5-1.4 5.7.8.4.7.8.8 1.4.8h6.9c1.8 0 1.8 0 1.5 2h-9.3c-1.4 3.1-4.7 3.7-7 .9-6.3 7.3-14.8 9.1-23.9 9.3-.2-1.1-.4-2 1.1-2.3 1.2-.3 2.2-1.5 2.8-2.9-1-.2-1.7-.1-2.3.9-1 1.7-2.6 2.5-4.2 2.4-.2-1-.4-1.9 1-2.2.5 0 .9-.6 1.2-1.2H9q-1.8 0-1.6-1.9h8.7c.7 0 1-.2 1.2-.9.5-1.9.4-3.8 0-5.7-.2-.6-.5-.9-1.1-.9H7.4v-1c0-.8.2-1 1-1h7.8c-.6-.5-1-1-1.4-1.1-1.4-.3-1.3-1.1-1.1-2.2 1.3-.2 2.3.5 3.2 1.3.4.3.8.7 1 1.1.5 1 1.3 1.1 2.3.8zm.5 14.8c1.3-.2 2.4-.3 3.5-.5 5.4-1 10.2-3.1 13.9-7.3.7-.8.7-1.3 0-2.1-4.6-5.2-10.7-7.1-17.3-7.8 3.7 7.2 3.7 11.8 0 17.7zm-1.1-12.6v7.3c1.5.2 1.6.2 1.7-1.4.1-1.5.1-3.1 0-4.7-.1-1.5-.2-1.5-1.7-1.3zM45.1 32c0-.9-.7-1.6-1.5-1.7-.9 0-1.7.7-1.7 1.6s.7 1.7 1.7 1.6c.9 0 1.6-.7 1.6-1.6z"/></svg>