<svg xmlns="http://www.w3.org/2000/svg" viewBox="0 0 64 64"><path fill="#0c0c0c" d="M32 0c17.7 0 32 14.3 32 32S49.7 64 32 64 0 49.7 0 32 14.3 0 32 0"/><path fill="none" stroke="#6094c1" stroke-opacity=".2" d="M32 .5C49.4.5 63.5 14.6 63.5 32S49.4 63.5 32 63.5.5 49.4.5 32 14.6.5 32 .5z"/><path fill="#fff" d="M23.3 37.7c-1.1-.3-1.8 0-2.4 1-.9 1.4-2.2 2.3-4.1 2.3v-1.7c.8-.5 1.6-.9 2.3-1.3v-.3h-6.8q-1.8 0-1.5-1.9h8.5c.8 0 1.1-.3 1.3-1 .4-1.9.4-3.7 0-5.5-.2-.7-.5-.8-1.1-.8h-8.6c0-.4 0-.7-.1-1 0-.7.2-1 1-1 2.4 0 4.9 0 7.4-.2-.4-.3-.8-.9-1.3-.9-1.4-.3-1.1-1.2-1-2.2 1.9 0 3.2 1 4.2 2.5.6 1 1.3 1.1 2.3.8-.8-1.8-2-2.9-3.9-3.2v-.6c-.2-1 .2-1.4 1.3-1.3 6 .2 11.9 1.1 17 4.5 1.9 1.3 3.5 3 5.2 4.6.5.5.9.8 1.6.8h7.2c1.8 0 1.8 0 1.4 1.9h-4.6c-1.5 0-3.2-.4-4.6.1-1.3.5-2.1 2-3.2 3-4.2 3.8-9.2 5.6-14.7 6.4-2.2.3-4.4.4-6.7.6v-2c1.9-.3 3.1-1.5 3.9-3.2zm.6 3c7-.8 13.3-2.8 17.8-8.6-3.3-5.1-10.8-8.4-17.7-8.7 3.5 5.7 3.5 11.4 0 17.3zm-1.2-12.4v7.2c1.5.2 1.6.2 1.7-1.4q.15-2.25 0-4.5c-.1-1.6-.3-1.6-1.7-1.4z"/></svg>